<svg xmlns="http://www.w3.org/2000/svg" width="118" viewBox="0 0 88.5 124.5" height="166" version="1.0"><defs><clipPath id="a"><path d="M.102 112h87.257v11.508H.102zm0 0"/></clipPath><clipPath id="b"><path d="M3 .453h81V119H3zm0 0"/></clipPath></defs><g clip-path="url(#a)"><path fill="#100f0d" d="M50.816 112.797c-2.93 4.242-4.82 6.832-4.863 6.894a2.757 2.757 0 0 1-4.441 0c-.043-.062-1.934-2.652-4.864-6.894-20.726.418-36.546 2.617-36.546 5.273 0 2.95 19.535 5.34 43.628 5.34 24.098 0 43.633-2.39 43.633-5.34 0-2.656-15.82-4.855-36.547-5.273"/></g><g clip-path="url(#b)"><path fill="#100f0d" d="M43.73 70.332c-16.332 0-29.578-13.234-29.578-29.562 0-16.325 13.246-29.563 29.578-29.563 16.336 0 29.583 13.238 29.583 29.563 0 16.328-13.247 29.562-29.583 29.562zm0-69.785C21.504.547 3.488 18.555 3.488 40.77c0 22.214 40.242 77.3 40.242 77.3s40.247-55.086 40.247-77.3C83.977 18.555 65.957.547 43.73.547"/></g><path fill="#100f0d" d="M49.031 31.219c-1.12 0-2.004-.61-1.968-1.348.035-.723.933-1.297 2.003-1.297 1.079 0 1.957.574 1.97 1.297.015.738-.884 1.348-2.005 1.348zm-2.89 6.168c-.051.988-1.184 1.808-2.524 1.808-1.336 0-2.324-.82-2.199-1.808.117-.957 1.242-1.715 2.516-1.715 1.27 0 2.261.758 2.207 1.715zm-6.672-5.95c-.098.598-.895 1.086-1.774 1.086s-1.484-.488-1.36-1.086c.126-.582.915-1.046 1.767-1.046.851 0 1.46.464 1.367 1.047zm-2.242 6.786c-.188 1.047-1.485 1.922-2.891 1.922s-2.328-.875-2.063-1.922c.254-1.016 1.54-1.82 2.872-1.82 1.332 0 2.265.804 2.082 1.82zm-3.961 8.406c-.118.55-.743 1.004-1.395 1.004-.656 0-1.074-.453-.941-1.004.129-.54.75-.973 1.39-.973.637 0 1.063.434.946.973zm21.418-10.324c-.028-.422.41-.758.984-.758.57 0 1.066.336 1.11.758a.597.597 0 0 1-.208.508l3.211-1.43c-5.523-5.473-13.035-8.934-21.343-9.988.437.187.695.52.624.902-.113.605-.996 1.11-1.972 1.11-.977 0-1.645-.505-1.496-1.11.129-.516.808-.942 1.601-1.043a49.608 49.608 0 0 0-3.636-.211l-7.243 25.242 29.68-13.215c-.7.098-1.281-.316-1.312-.765"/><path fill="#100f0d" d="m61.715 34.52 5.215-2.32a.877.877 0 0 0 .187-1.49c-8.422-6.67-19.27-10.44-30.926-10.827a1.465 1.465 0 0 0-1.457 1.062l-.828 2.883c8.063.149 15.633 2.188 21.98 6.168a36.17 36.17 0 0 1 5.829 4.524M68.227 33.492a.56.56 0 0 0-.79-.512l-41.12 18.31c.015.179-.079.605.218 1.081-.027.012-.055.024-.086.035.078.614 1.27 1.102 2.395.813 1.238-.32 1.832-1.446 2.5-1.395.976.078 1.093 2.582.363 4.989-.965 3.187-3.152 5.277-2.758 5.812.285.39 1.856-.2 2.969-1.418 2.684-2.945.043-7.172 4.703-11.754l2.172-.926c.129.844-1.152 3.434-.621 5.848.277 1.254.96 2.047 1.242 1.844.39-.29-.336-2.32.64-5.645.278-.937.637-2.16 1.395-3.18l3.711-1.585c.7.668-.61 2.324-.09 3.156.282.45.992.48 1.305.125.578-.664-.734-2.133.309-3.93l3.82-1.633c.285.243.484.594.57 1.016.266 1.32-.761 2.453-1.547 5.383-.203.754-1.23 4.562-.109 4.918.492.156 1.406-.36 1.816-1.055.63-1.07-.418-1.754-.418-4.219 0-.547 0-3.476 1.743-5.789.82-1.086 1.71-1.61 2.152-1.87 1.8-1.063 2.125-.09 3.785-1.009.914-.504 1.305-1.074 1.805-1.554l2.094-.891c2.777-.07 1.308 4.188 1.69 4.094.282-.07.692-2.438 2.255-4.692.363-.523 1.32-1.308 1.62-2.023.169-.246.267-.543.267-.852v-1.492"/></svg>