<svg xmlns="http://www.w3.org/2000/svg" width="205" viewBox="0 0 153.75 177.75" height="237" version="1.0"><defs><clipPath id="a"><path d="M22 16.824h91v160.238H22zm0 0"/></clipPath></defs><path fill="#524b5b" d="M27.297 29.547v135a3.83 3.83 0 0 0 3.828 3.832h73.656a3.832 3.832 0 0 0 3.824-3.832v-135a3.825 3.825 0 0 0-3.824-3.832H31.125a3.825 3.825 0 0 0-3.828 3.832"/><path fill="#ebedf0" d="M27.297 29.547v135a3.83 3.83 0 0 0 3.828 3.832h73.656a3.832 3.832 0 0 0 3.824-3.832v-135a3.825 3.825 0 0 0-3.824-3.832H31.125a3.825 3.825 0 0 0-3.828 3.832"/><path fill="#91b9f8" d="M43.926 25.715c.738 18.7 18.234 31.05 36.629 44.043 9.543 6.738 19.484 13.762 28.05 22.086v-8.395c-7.875-7.011-16.44-13.066-24.492-18.75-10.304-7.273-20.035-14.148-26.39-21.656-4.805-5.668-7.297-11.3-7.606-17.328h-6.191"/><path fill="#fff" d="M66.344 105.816 27.297 72.508v3.058L53.992 98.34v.015l-25.328 14.707-.562.329a.707.707 0 0 0-.254.957.707.707 0 0 0 .605.347.694.694 0 0 0 .348-.093l.57-.329 25.754-14.957h.008l8.43 7.188v.02l-29.055 16.68-1.899 1.089a1.166 1.166 0 0 0-.433 1.59c.215.375.61.586 1.011.586.2 0 .395-.051.575-.156l1.906-1.098 30.5-17.5c.324-.192.543-.531.578-.903a1.181 1.181 0 0 0-.402-.996"/><path fill="#fff" d="m105.285 32.563 3.32-1.477v2.547l-1.39.625-.012.015 1.402 4.079v7.136l-3.949-11.476c-.199-.567.078-1.196.63-1.45zm-46.012 93.94h-.003l-17.418 9.43-9.27 5.02-5.285 2.863v-2.656l4.117-2.226 9.27-5.02 17.793-9.637c.21-.113.453-.156.683-.129l14.098 1.547h.008l21.492-12.379.004-.015-11.297-13.664h-.012l-6.469 2.879a1.169 1.169 0 0 1-1.336-.278L60.766 85.891c-.371-.407-.457-1.024-.149-1.477a1.16 1.16 0 0 1 1.828-.137l14.352 15.762h.02l6.5-2.894a1.16 1.16 0 0 1 1.37.324l12.133 14.66h.012l11.773-6.781v3.761l-19.55 11.254-.004.016 19.554 35.766v4.847l-21.574-39.449h-.015l-40.149 23.102-9.129 5.257-8.008 4.61-.003.015 7.882 13.852h-4.285l-6.027-10.594v-7.531l.805 1.418.02.008 7.987-4.598 9.133-5.258 24.567-14.148-.004-.016-10.532-1.156M29.621 40.293a.705.705 0 0 1 .871.246L42.543 58.73c.176.274.187.649-.031.891a.678.678 0 0 1-.528.242.713.713 0 0 1-.582-.312L29.664 41.82h-.016l-2.351 1.074v-1.536l2.324-1.066M63.484 25.715l10.243 14.164a.709.709 0 0 0 .867.219l30.515-14.368a3.075 3.075 0 0 0-.328-.015h-2.93L74.528 38.582h-.011l-9.309-12.867h-1.723"/><path fill="#d3d7df" d="M27.297 46.496v21.242l6.234 5.535c.52.465 1.278.559 1.899.235L42.168 70c.89-.46 1.18-1.594.625-2.434L29.211 47.168a1.681 1.681 0 0 0-1.914-.672M85.7 94.129l10.237 13.68a1.685 1.685 0 0 0 2.223.433l10.445-6.324v-5.797l-11.82-10.215a1.696 1.696 0 0 0-2.05-.117l-8.641 5.93a1.694 1.694 0 0 0-.395 2.41M52.523 147.398l12.692 20.98h30.027l-18.992-34.75a1.688 1.688 0 0 0-2.328-.648l-20.805 12.083a1.692 1.692 0 0 0-.594 2.335M73.988 51.203l26.051 20.152a1.677 1.677 0 0 0 1.824.153l6.742-3.598v-9.172l-7.546-23.816c-.329-1.031-1.536-1.496-2.461-.945L74.164 48.414a1.688 1.688 0 0 0-.176 2.79M27.297 78.012v27.43l1.734 3.011a1.68 1.68 0 0 0 2.367.582l16.493-10.512a1.687 1.687 0 0 0 .187-2.707L27.297 78.012"/><path fill="#b3dfbf" d="m94.219 123.379 14.386 27.2v-36.68l-13.753 7.394a1.548 1.548 0 0 0-.633 2.086M46.395 60.559l7.046-3.98a1.54 1.54 0 0 1 1.66.093L77.048 72.48c.965.696.816 2.176-.266 2.668L50.766 86.941a1.55 1.55 0 0 1-1.707-.296l-9.653-9.27a1.548 1.548 0 0 1 .188-2.39l8.879-6.169c.73-.504.886-1.515.343-2.214l-2.886-3.75a1.546 1.546 0 0 1 .465-2.293"/><path fill="#fddd81" d="M27.297 110.691v21.102l4.117 7.14 1.168 2.02 3.527 6.129 1.63 2.82 10.644 18.477h12.16l-13.676-23.734-1.625-2.82-3.39-5.891-1.168-2.02-5.016-8.7-1.16-2.01-5.137-8.93-.707-1.212-1.367-2.37"/><path fill="#ee4858" d="M140.191 86.98a5.868 5.868 0 0 0 6.938-4.566 5.883 5.883 0 0 0-4.559-6.95 5.87 5.87 0 0 0-6.937 4.571 5.878 5.878 0 0 0 4.558 6.945zm3.477-16.835c5.86 1.21 9.625 6.953 8.414 12.824-2.043 9.898-10.89 17.226-14.465 16.488-3.574-.742-8.625-11.797-6.75-20.883 1.211-5.87 6.942-9.644 12.801-8.43"/><path fill="#524b5b" d="M24.14 46.559h.235c.371 0 .727.07 1.055.195v21.46a2.957 2.957 0 0 1-1.055.196h-.234c-1.72 0-3.114-1.457-3.114-3.254V49.812c0-1.796 1.395-3.253 3.114-3.253M23.563 72.535h1.39c.164 0 .324.02.477.05v13.813c-.153.032-.313.051-.477.051h-1.39c-1.403 0-2.536-1.187-2.536-2.648v-8.614c0-1.464 1.133-2.652 2.535-2.652M110.281 61.246h1.281c1.43 0 2.59-1.16 2.59-2.594v-8.726a2.592 2.592 0 0 0-2.59-2.594h-1.28c-1.43 0-2.59 1.16-2.59 2.594v8.726a2.592 2.592 0 0 0 2.59 2.594"/><path fill="#f4b185" d="M88.21 72.727 80.22 85.969a3.372 3.372 0 0 1-3.184 1.613l-18.414-1.695a7.178 7.178 0 0 1-1.715-.387c-1.726-.621-3.468-.695-5.222-.09a.515.515 0 0 1-.582-.18l-.536-.742a.509.509 0 0 1 .086-.683c.782-.653 2.77-2.07 5.13-1.91 3.046.203 19.007-.02 19.007-.02l7.234-11.414 6.188 2.266"/><path fill="#40a74d" d="m86.703 77.402-4.043 7.016a.641.641 0 0 1-.941.195l-6.324-4.746a.511.511 0 0 1-.098-.719l5.082-6.648a3.973 3.973 0 0 1 3.617-1.508 3.991 3.991 0 0 1 3.324 2.738l.004.028a3.985 3.985 0 0 1-.62 3.644"/><path fill="#3e4860" d="m123.934 131.227 5.527-4.813a1.18 1.18 0 0 1 1.586.031 1.185 1.185 0 0 1-.027 1.746l-6.586 5.864a.75.75 0 0 1-.672.164l-13.793-3.477.64-2.539 12.657 3.188a.756.756 0 0 0 .668-.164M43.309 87.484l2.343-2.007c.336-.293.578-.68.688-1.118l.59-2.343a2.156 2.156 0 0 1 2.613-1.57l4.89 1.234a2.158 2.158 0 0 1 1.563 2.62l-.414 1.645a2.15 2.15 0 0 1-2.613 1.567l-1.364-.34a2.138 2.138 0 0 0-1.949.473l-3.523 3.101a2.153 2.153 0 0 1-3.176-.363 2.16 2.16 0 0 1 .352-2.899"/><path fill="#3e4860" d="m112.09 124.5 31.898 8.035a.705.705 0 0 0 .856-.512l.363-1.457a.7.7 0 0 0-.512-.855l-31.898-8.035-.707 2.824M109.535 132.484l6.477 13.168a.63.63 0 0 1-.157.762.628.628 0 0 1-.87-.047l-11.81-12.574 6.36-1.309M94.508 161.496c4.469 1.125 9-1.59 10.125-6.07 1.12-4.477-1.59-9.02-6.059-10.145s-9.004 1.59-10.125 6.07c-1.125 4.477 1.586 9.02 6.059 10.145zm5.472-21.82c7.56 1.902 12.149 9.586 10.247 17.16-1.899 7.574-9.567 12.172-17.13 10.27-7.558-1.907-12.148-9.59-10.25-17.165 1.903-7.574 9.571-12.171 17.133-10.265"/><path fill="#77727e" d="M104.281 153.695a.949.949 0 0 0-1.355-.894l-2.887 1.383 2.3 2.12c.5.458 1.313.258 1.532-.382.016-.05.035-.102.05-.152.216-.68.333-1.375.36-2.075zm-2.414 5.332.043-.043c.34-.32.317-.863-.027-1.18l-2.809-2.585a.69.69 0 0 0-.867-.059c-.352.242-.402.746.125 1.3l2.395 2.524a.808.808 0 0 0 1.14.043zm-3.187 1.825c.672-.192.879-1.047.398-1.551l-2.21-2.332-1.302 2.844c-.34.742.051 1.335.864 1.347a7.582 7.582 0 0 0 2.25-.308zm-.305-10.551 2.719-1.535c.586-.332.656-1.164.117-1.575a7.894 7.894 0 0 0-2.008-1.097c-.793-.29-1.36.191-1.246 1.027zm-2.145.672a.7.7 0 0 0 .707-.79l-.503-3.8a.81.81 0 0 0-.903-.696l-.054.012a.791.791 0 0 0-.676.95l.758 3.761a.7.7 0 0 0 .671.563zm-2.23 8.87 1.582-3.468a.697.697 0 0 0-.215-.848c-.34-.257-.828-.152-1.191.52l-1.653 3.058a.808.808 0 0 0 .317 1.102l.05.031c.41.215.915.028 1.11-.394zm-.758-5.038-3.105-.36c-.664-.074-1.211.547-1.02 1.192.184.601.438 1.187.766 1.738.066.11.137.219.203.324.402.594 1.285.567 1.625-.066zm-4.316-2.832-.012.054a.818.818 0 0 0 .715.938l3.785.437a.705.705 0 0 0 .738-.464.702.702 0 0 0-.53-.918l-3.747-.692a.815.815 0 0 0-.95.645zm3.156-4.934a7.66 7.66 0 0 0-1.633 1.547.947.947 0 0 0 .57 1.516l3.157.582-.617-3.063a.947.947 0 0 0-1.477-.582zm10.293 2.625-3.313 1.871a.701.701 0 0 0-.324.813c.121.41.582.613.965.43.934-.446 2.531-1.212 3.442-1.65a.818.818 0 0 0 .398-1.073l-.023-.047a.825.825 0 0 0-1.145-.344zm2.121 8.293c-1.918 3.395-5.883 5.2-9.707 4.445a9.184 9.184 0 0 1-6.113-4.297 9.22 9.22 0 0 1-.864-7.527c1.399-4.387 5.86-7.058 10.38-6.223a9.176 9.176 0 0 1 6.21 4.32 9.22 9.22 0 0 1 .094 9.282"/><path fill="#ecf3f3" d="M99.848 150.219a4.556 4.556 0 0 1-.63 6.808 4.549 4.549 0 0 1-5.968-.55 4.557 4.557 0 0 1 .633-6.813 4.55 4.55 0 0 1 5.965.555"/><path fill="#3e4860" d="M94.766 152.898a1.845 1.845 0 0 1 2.234-1.34 1.845 1.845 0 0 1-.898 3.578 1.841 1.841 0 0 1-1.336-2.238M14.082 141.246a8.35 8.35 0 0 0 10.129-6.07c1.125-4.477-1.59-9.02-6.059-10.145-4.468-1.125-9.004 1.59-10.125 6.067-1.125 4.48 1.586 9.02 6.055 10.148zm5.477-21.824c7.562 1.906 12.148 9.59 10.246 17.16-1.899 7.578-9.567 12.176-17.13 10.27-7.558-1.907-12.148-9.59-10.245-17.16 1.898-7.575 9.57-12.172 17.129-10.27"/><path fill="#77727e" d="M23.86 133.445c.023-.715-.712-1.203-1.352-.894l-2.89 1.383 2.3 2.117c.5.46 1.312.262 1.531-.38a7.945 7.945 0 0 0 .41-2.227zm-2.41 5.332.042-.043a.813.813 0 0 0-.027-1.18l-2.809-2.585a.696.696 0 0 0-.867-.063l-.004.004c-.351.242-.402.742.125 1.297l2.395 2.527a.813.813 0 0 0 1.144.043zm-3.188 1.825c.668-.196.875-1.047.394-1.555l-2.21-2.332-1.301 2.847c-.336.739.05 1.333.867 1.344a7.615 7.615 0 0 0 2.25-.304zm-.309-10.551 2.719-1.535c.59-.332.656-1.164.117-1.575a7.775 7.775 0 0 0-2.008-1.097c-.789-.293-1.36.187-1.25 1.027zm-2.144.672a.7.7 0 0 0 .707-.793l-.504-3.801a.807.807 0 0 0-.903-.692l-.05.008a.79.79 0 0 0-.676.95l.758 3.765a.7.7 0 0 0 .668.563zm-2.23 8.87 1.585-3.468a.702.702 0 0 0-.215-.852h-.004c-.34-.253-.828-.148-1.191.524l-1.652 3.058c-.211.391-.079.891.312 1.102l.055.027c.41.22.918.028 1.11-.39zm-.755-5.038-3.11-.36c-.663-.078-1.21.547-1.019 1.188a7.688 7.688 0 0 0 .973 2.062.947.947 0 0 0 1.625-.062zm-4.32-2.836-.012.058a.812.812 0 0 0 .715.934l3.785.437a.692.692 0 0 0 .738-.46.699.699 0 0 0-.535-.918l-3.742-.692a.814.814 0 0 0-.95.64zm3.156-4.934a7.758 7.758 0 0 0-1.633 1.547.95.95 0 0 0 .575 1.52l3.152.582-.617-3.063a.946.946 0 0 0-1.477-.586zm10.297 2.63-3.316 1.87a.698.698 0 0 0-.325.809v.004c.125.41.582.613.97.43.929-.45 2.526-1.215 3.44-1.653a.813.813 0 0 0 .395-1.07l-.023-.051c-.203-.422-.735-.57-1.141-.34zm2.121 8.292c-1.922 3.395-5.887 5.195-9.707 4.445-.16-.03-.316-.07-.473-.109a9.181 9.181 0 0 1-5.644-4.191 9.194 9.194 0 0 1-.86-7.524c1.395-4.387 5.86-7.062 10.38-6.223a9.188 9.188 0 0 1 6.21 4.317 9.247 9.247 0 0 1 .094 9.285"/><path fill="#ecf3f3" d="M19.426 129.965a4.554 4.554 0 0 1-.63 6.812c-1.827 1.336-4.41 1.098-5.964-.55a4.554 4.554 0 0 1 .629-6.813c1.828-1.336 4.41-1.098 5.965.55"/><path fill="#3e4860" d="M14.344 132.645a1.842 1.842 0 0 1 3.57.898 1.842 1.842 0 0 1-2.234 1.34 1.846 1.846 0 0 1-1.336-2.238"/><path fill="#3e4860" d="m26.313 124.371-8.72 10.016a1.909 1.909 0 0 1-2.605.258 1.916 1.916 0 0 1-.383-2.633l8.43-11.711 3.277 4.07M42.5 99.676l2.863 6.46a10.509 10.509 0 0 1 .79 5.81l-2.395 16.117c-.528 3.574 2.047 6.855 5.637 7.183l7.69.703c3.575.328 6.798-2.164 7.392-5.71l2.468-14.766 47.325 6.43-46.122 23.484-30.761-6.895-5.567-28.328L42.5 99.676M83.816 141.563l13.989 10.3a1.86 1.86 0 0 1-1.567 3.297l-26.023-6.828 13.601-6.77"/><path fill="#56c061" d="m24.336 107.93 9.062 30.593c.051.16.106.32.176.477a4.262 4.262 0 0 0 3.043 2.5l39.153 8.285c.859.184 1.753.09 2.55-.273l35.567-15.98a2.376 2.376 0 0 0 1.363-1.821l1.496-10.453L89.375 124a31.775 31.775 0 0 0-21.008 11.016l-3.734 4.382a6.173 6.173 0 0 1-6.004 2.036l-15.895-3.403a4.402 4.402 0 0 1-3.41-3.492l-2.41-12.676a15.683 15.683 0 0 1 1.39-9.953l10.5-20.933a2.388 2.388 0 0 0-.863-3.09l-3.964-2.485a2.387 2.387 0 0 0-2.957.344l-14.934 15.172a7.121 7.121 0 0 0-1.75 7.012"/><path fill="#56c061" d="m28.863 109.969-11.605 1.902a18.24 18.24 0 0 0-9.219 4.414c-1.117 1-.707 2.84.727 3.262 8.847 2.594 17.648 6.476 26.402 11.77l-6.305-21.348"/><path fill="#3e4860" d="m68.367 117.918-1.734-1.082a2.347 2.347 0 0 1-.348-3.719c4.403-4.047 9.063-4.984 14.684-2.953l3.855.902a7.695 7.695 0 0 0 6.446-.57 7.674 7.674 0 0 1 6.054-.7l15.004 4.329a5.577 5.577 0 0 1 3.86 4.273l.558 2.86-22.933 2.297-21.297-4.02a12.185 12.185 0 0 1-4.149-1.617"/><path fill="#f7c958" d="M129.168 127.3a.656.656 0 1 1 1.273.32.656.656 0 0 1-1.273-.32M123.176 132.578a.656.656 0 1 1 1.273.32.66.66 0 0 1-.797.48.662.662 0 0 1-.476-.8"/><path fill="#56c061" d="m52.605 85.484 4 1.008a1.317 1.317 0 0 0 .645-2.555l-4.008-1.007a1.316 1.316 0 0 0-.637 2.555"/><path fill="#ecf3f3" d="M50.238 82.73a.538.538 0 0 0 .657-.39l.898-3.578a3.292 3.292 0 0 1 3.988-2.39l.438.108a.534.534 0 0 0 .652-.39.538.538 0 0 0-.39-.656l-.438-.11a4.367 4.367 0 0 0-5.297 3.176l-.898 3.574a.538.538 0 0 0 .39.656"/><path fill="#ecf3f3" d="M55.984 75.867c-.453 1.813.075 3.508 1.18 3.785 1.106.278 2.371-.965 2.824-2.777.457-1.813-.074-3.508-1.18-3.785-1.105-.281-2.367.965-2.824 2.777M35.926 91.39l.937.782c.516.43.711 1.129.504 1.762l-.5 1.539a3.646 3.646 0 0 1-2.535 2.386l-6.637 1.727c-.254.066-.437-.25-.25-.438l7.614-7.714a.64.64 0 0 1 .867-.043"/><path fill="#40a74d" d="m25.848 113.031 5.164 15.883-4.567-2.644zM33.574 139a4.262 4.262 0 0 0 3.043 2.5l39.153 8.285c.859.184 1.753.09 2.55-.273l35.567-15.98c-3.145 1.41-24.586.374-32.43 8.085-7.848 7.715-14.492 4.438-30.992 1.274-5.45-1.043-11.383-2.461-16.89-3.891"/><path fill="#303a54" d="m66.441 118.488 5.567 2.715c.367.18.762.285 1.172.32l13.96.973c.122.008.141-.172.024-.195l-14.422-2.719a4.284 4.284 0 0 1-1.074-.355l-5.035-2.391-.192 1.652"/><path fill="#56c061" d="m122.2 103.016-4.966 19.777 27.121 6.832 3.704-14.766.023-.097c.121-.496.195-.996.227-1.492.257-4.122-2.438-7.97-6.579-9.008l-15.21-3.832a3.554 3.554 0 0 0-4.32 2.586"/><path fill="#40a74d" d="m121.332 106.477-.367 1.457 27.117 6.828c.121-.496.195-.996.227-1.492l-26.977-6.793"/><path fill="#4a4f54" d="M94.441 59.945s-1.265 2.461-4.722 2.922c-3.457.465-.989-7.344-.989-7.344l5.711 4.422"/><path fill="#f7c4a3" d="m49.348 133.684 6.48 1.632 1.625-6.492-6.473-1.629-1.632 6.489"/><path fill="#343f58" d="M92.215 102.367a1.141 1.141 0 0 0-1.012-1.414c-4.45-.355-8.894-.715-13.344-1.074l-10.086-.809c-2.656-.215-6.32-1.152-8.824-.18-5.738 2.227-5.73 10.77-6.726 15.848-.875 4.453-1.75 8.907-2.621 13.36-.122.597.25 1.18.836 1.328l6.273 1.578a1.14 1.14 0 0 0 1.379-.813c.89-3.425 1.785-6.855 2.68-10.285.71-2.73 1.425-5.457 2.109-8.199.215-.863.887-1.2 1.726-1.234 2.934-.106 5.907.27 8.82.586 2.184.23 4.364.507 6.536.832 2.047.304 4 .617 6.078.386 4.656-.59 5.262-6.27 6.176-9.91"/><path fill="#56c061" d="M91.664 65.395c-2.121 1.011-4.246 2.02-6.371 3.027-1.098.523-2.418.95-3.43 1.633-3.207 2.152-3.894 7.172-5.05 10.57-1.356 4-2.715 8-4.075 12-.133.39-2.078 6.613-2.234 6.586l21.719 3.96a.699.699 0 0 0 .82-.605c.644-5.507 1.371-11 2.11-16.496.656-4.886 1.784-10.023.367-14.886-.696-2.395-2.188-4.043-3.856-5.79"/><path fill="#f7c4a3" d="m91.14 59.074.145 5.836-8.234 3.598 1.945-8.672 6.145-.762"/><path fill="#f7c4a3" d="M77.566 52.586c-1.328 5.285.914 9.16 3.692 10.453 5.758 2.684 12.265-1.906 13.594-7.191 1.324-5.285-1.88-10.649-7.157-11.98-5.277-1.329-8.804 3.433-10.129 8.718"/><path fill="#40a74d" d="m91.652 63.355.825 2.985-11.875 5.12a.298.298 0 0 1-.41-.331l.62-3.043a2.53 2.53 0 0 1 1.731-1.914l9.11-2.817"/><path fill="#f7c4a3" d="m89.035 78.012-9.207 9.886a3.351 3.351 0 0 1-3.18 1.61l-16.562-.89a7.135 7.135 0 0 1-1.715-.388c-1.726-.62-3.465-.69-5.219-.09a.514.514 0 0 1-.582-.18l-.535-.741a.501.501 0 0 1 .086-.684c.777-.652 2.766-2.066 5.125-1.91 3.05.203 18.29-.61 18.29-.61l9.218-10.359 4.281 4.356"/><path fill="#40a74d" d="m90.434 78.047-5.192 6.496a.652.652 0 0 1-.98.047l-5.696-5.797a.521.521 0 0 1 .012-.742l6.188-5.965a4.084 4.084 0 0 1 3.902-.973 4.102 4.102 0 0 1 2.953 3.297l.004.028a4.123 4.123 0 0 1-1.191 3.609"/><path fill="#fff5e8" d="M41.398 133.387c-.644 2.34 9.352 4.258 12.954 4.867a1.382 1.382 0 0 0 1.57-1.043l.57-2.375a.713.713 0 0 0-.512-.871.711.711 0 0 0-.242-.016c-.984.117-3.722.2-6-1.953 0 0-6.66-1.297-8.12.914a1.56 1.56 0 0 0-.22.477"/><path fill="#343f58" d="M41.617 132.91c.559 2.074 10.067 4.113 14.117 4.848.121-.153.211-.328.258-.528l.57-2.375a.733.733 0 0 0-.132-.625.703.703 0 0 0-.625-.265c-.989.117-3.742.195-6.035-1.961 0 0-6.688-1.3-8.153.906"/><path fill="#fff5e8" d="M46.254 131.629s.828 1.773-.172 3.922c0 0-3.492-.461-4.602-2.387 0 0 .485-2.129 4.774-1.535"/><path fill="#f7c4a3" d="M90.586 58.535a2.465 2.465 0 0 0 1.789 2.992 2.46 2.46 0 0 0 2.988-1.789 2.47 2.47 0 0 0-1.789-2.996 2.465 2.465 0 0 0-2.988 1.793"/><path fill="#4a4f54" d="M96.336 50.941s.559 4.63-1.121 7.168c0 0-1.356-1.05-1.863-.468-.512.586-1.133 2.015-2.211 1.433-1.079-.578.617-5.398.058-6.261-.558-.86 5.137-1.872 5.137-1.872M86.164 51.219s-5.246 3.593-10.77-.543c-.226-.168-.117-.528.165-.531.668-.004 1.57-.2 2.316-1.012 1.367-1.504 6.602-1.156 7.828-.266 1.23.895.461 2.352.461 2.352"/><path fill="#40a74d" d="m91.441 53.875 4.7-.047c.71.063.82-.277.953-.976.441-2.422 2.027-8.965-4.574-11.575-5.594-2.21-8.352-2.246-10.704-.367-2.355 1.88-3.945 6.988-3.945 6.988 6.137-.941 10.438 1.454 13.57 5.977"/><path fill="#56c061" d="M76.473 50.008c.793.297 2.007-.938 2.523-1.137 1.328-.516 2.613-.316 3.828.211l.063.023c1.441.637 2.773 1.727 3.941 2.625.563.434 1.129.868 1.695 1.278.672.48 1.422.98 2.25.953.09-.004.18-.012.262-.023 1.164-.188 1.504-1.368 1.04-2.301-2.098-4.219-8.845-6.535-13.204-4.614-.21.094-.86.457-1.492.907l-.008.008c-.156.109-.316.23-.46.351l-.009.008-.015.012c-.375.308-.692.636-.817.93h-.004c-.144.324-.058.597.407.769"/><path fill="#7fcf88" d="M76.473 50.008c.793.297 2.007-.938 2.523-1.137 1.328-.516 2.613-.316 3.828.211l.063.023c1.441.637 2.773 1.727 3.941 2.625.563.434 1.129.868 1.695 1.278.672.48 1.422.98 2.25.953.09-.004.18-.012.262-.023-.828-.04-2.222-2.223-5.144-4.063-2.735-1.719-6.176-3.465-8.512-1.945l-.008.008a3.27 3.27 0 0 0-.46.351l-.009.008-.015.012a6 6 0 0 0-.817.93h-.004c-.144.324-.058.597.407.769"/><path fill="#56c061" d="M76.473 50.008c.793.297 2.007-.938 2.523-1.137 1.328-.516 2.613-.316 3.828.211-2.492-1.129-4.808-1.586-6.351.926"/><path fill="#f4b185" d="M84.11 63.8s2.519.458 4.07-.62c0 0-.707 1.043-4.344 1.832l.273-1.211"/><g clip-path="url(#a)"><path fill="#524b5b" d="m23.094 129.758.027.047a.805.805 0 0 1-.258.984v-1.316a.791.791 0 0 1 .23.285zm.761 3.687a7.523 7.523 0 0 1-.406 2.227.894.894 0 0 1-.586.574v-3.781a.94.94 0 0 1 .992.98zm5.946-116.613h75.281c3.832 0 6.934 3.246 6.934 7.254v145.687c0 4.004-3.102 7.254-6.934 7.254H29.801c-3.836 0-6.938-3.25-6.938-7.254v-24.218a14.063 14.063 0 0 0 4.285-3.59v20.863c0 2.625 1.997 4.742 4.454 4.742h71.664c2.457 0 4.453-2.117 4.453-4.742V31.59c0-2.625-1.996-4.754-4.453-4.754H31.602c-2.457 0-4.454 2.129-4.454 4.754v68.246l-1.062 1.082a7.122 7.122 0 0 0-1.746 7.012l.781 2.652-2.258.367V24.086c0-4.008 3.102-7.254 6.938-7.254"/></g></svg>