<svg xmlns="http://www.w3.org/2000/svg" xmlns:xlink="http://www.w3.org/1999/xlink" width="359" zoomAndPan="magnify" viewBox="0 0 269.25 324.749995" height="433" preserveAspectRatio="xMidYMid meet" version="1.0"><defs><clipPath id="5ce42f30c1"><path d="M 0 0.328125 L 268.503906 0.328125 L 268.503906 324.175781 L 0 324.175781 Z M 0 0.328125 " clip-rule="nonzero"/></clipPath><clipPath id="409090e61a"><path d="M 0.710938 0.347656 L 268.464844 0.347656 L 268.464844 323 L 0.710938 323 Z M 0.710938 0.347656 " clip-rule="nonzero"/></clipPath></defs><g clip-path="url(#5ce42f30c1)"><path fill="#ffffff" d="M 0 0.328125 L 268.503906 0.328125 L 268.503906 324.175781 L 0 324.175781 Z M 0 0.328125 " fill-opacity="1" fill-rule="nonzero"/></g><g clip-path="url(#409090e61a)"><path fill="#000000" d="M 248.382812 322.960938 L 20.792969 322.960938 C 20.132812 322.960938 19.476562 322.925781 18.820312 322.863281 C 18.164062 322.796875 17.511719 322.699219 16.867188 322.574219 C 16.21875 322.445312 15.582031 322.285156 14.949219 322.09375 C 14.316406 321.902344 13.699219 321.679688 13.089844 321.425781 C 12.480469 321.175781 11.882812 320.894531 11.304688 320.582031 C 10.722656 320.269531 10.15625 319.933594 9.609375 319.566406 C 9.058594 319.199219 8.53125 318.808594 8.023438 318.390625 C 7.511719 317.972656 7.023438 317.527344 6.558594 317.0625 C 6.089844 316.597656 5.648438 316.109375 5.230469 315.597656 C 4.8125 315.089844 4.421875 314.558594 4.054688 314.011719 C 3.6875 313.464844 3.347656 312.898438 3.039062 312.316406 C 2.726562 311.734375 2.445312 311.140625 2.195312 310.53125 C 1.941406 309.921875 1.71875 309.300781 1.527344 308.671875 C 1.335938 308.039062 1.175781 307.402344 1.046875 306.753906 C 0.917969 306.109375 0.824219 305.457031 0.757812 304.800781 C 0.695312 304.144531 0.660156 303.484375 0.660156 302.828125 L 0.660156 20.96875 C 0.660156 20.308594 0.695312 19.652344 0.757812 18.996094 C 0.824219 18.339844 0.917969 17.6875 1.046875 17.039062 C 1.175781 16.394531 1.335938 15.753906 1.527344 15.125 C 1.71875 14.492188 1.941406 13.871094 2.195312 13.261719 C 2.445312 12.652344 2.726562 12.058594 3.039062 11.476562 C 3.347656 10.894531 3.6875 10.332031 4.054688 9.78125 C 4.421875 9.234375 4.8125 8.707031 5.230469 8.195312 C 5.648438 7.6875 6.089844 7.199219 6.558594 6.730469 C 7.023438 6.265625 7.511719 5.824219 8.023438 5.40625 C 8.53125 4.988281 9.058594 4.59375 9.609375 4.226562 C 10.15625 3.863281 10.722656 3.523438 11.304688 3.210938 C 11.882812 2.902344 12.480469 2.621094 13.089844 2.367188 C 13.699219 2.113281 14.316406 1.894531 14.949219 1.703125 C 15.582031 1.511719 16.21875 1.351562 16.867188 1.222656 C 17.511719 1.09375 18.164062 0.996094 18.820312 0.933594 C 19.476562 0.867188 20.132812 0.835938 20.792969 0.835938 L 248.382812 0.835938 C 249.042969 0.835938 249.703125 0.867188 250.359375 0.933594 C 251.015625 0.996094 251.664062 1.09375 252.3125 1.222656 C 252.957031 1.351562 253.597656 1.511719 254.226562 1.703125 C 254.859375 1.894531 255.480469 2.113281 256.089844 2.367188 C 256.699219 2.621094 257.292969 2.902344 257.875 3.210938 C 258.457031 3.523438 259.019531 3.863281 259.570312 4.226562 C 260.117188 4.59375 260.644531 4.988281 261.15625 5.40625 C 261.664062 5.824219 262.152344 6.265625 262.621094 6.730469 C 263.085938 7.199219 263.527344 7.6875 263.945312 8.195312 C 264.363281 8.707031 264.757812 9.234375 265.125 9.78125 C 265.488281 10.332031 265.828125 10.894531 266.140625 11.476562 C 266.449219 12.058594 266.730469 12.652344 266.984375 13.261719 C 267.234375 13.871094 267.457031 14.492188 267.648438 15.125 C 267.839844 15.753906 268 16.394531 268.128906 17.039062 C 268.257812 17.6875 268.355469 18.339844 268.417969 18.996094 C 268.484375 19.652344 268.515625 20.308594 268.515625 20.96875 L 268.515625 302.828125 C 268.515625 303.484375 268.484375 304.144531 268.417969 304.800781 C 268.355469 305.457031 268.257812 306.109375 268.128906 306.753906 C 268 307.402344 267.839844 308.039062 267.648438 308.671875 C 267.457031 309.300781 267.234375 309.921875 266.984375 310.53125 C 266.730469 311.140625 266.449219 311.734375 266.140625 312.316406 C 265.828125 312.898438 265.488281 313.464844 265.125 314.011719 C 264.757812 314.558594 264.363281 315.089844 263.945312 315.597656 C 263.527344 316.109375 263.085938 316.597656 262.621094 317.0625 C 262.152344 317.527344 261.664062 317.972656 261.15625 318.390625 C 260.644531 318.808594 260.117188 319.199219 259.570312 319.566406 C 259.019531 319.933594 258.457031 320.269531 257.875 320.582031 C 257.292969 320.894531 256.699219 321.175781 256.089844 321.425781 C 255.480469 321.679688 254.859375 321.902344 254.226562 322.09375 C 253.597656 322.285156 252.957031 322.445312 252.3125 322.574219 C 251.664062 322.699219 251.015625 322.796875 250.359375 322.863281 C 249.703125 322.925781 249.042969 322.960938 248.382812 322.960938 Z M 20.792969 10.902344 C 20.132812 10.902344 19.476562 10.964844 18.828125 11.09375 C 18.179688 11.222656 17.550781 11.414062 16.941406 11.667969 C 16.332031 11.921875 15.75 12.230469 15.199219 12.597656 C 14.652344 12.964844 14.144531 13.382812 13.675781 13.851562 C 13.207031 14.316406 12.789062 14.824219 12.421875 15.375 C 12.054688 15.925781 11.746094 16.503906 11.492188 17.117188 C 11.242188 17.726562 11.050781 18.355469 10.921875 19.003906 C 10.792969 19.652344 10.726562 20.308594 10.726562 20.96875 L 10.726562 302.828125 C 10.726562 303.488281 10.792969 304.140625 10.921875 304.789062 C 11.050781 305.4375 11.242188 306.066406 11.492188 306.679688 C 11.746094 307.289062 12.054688 307.871094 12.421875 308.417969 C 12.789062 308.96875 13.207031 309.476562 13.675781 309.945312 C 14.144531 310.410156 14.652344 310.828125 15.199219 311.195312 C 15.75 311.5625 16.332031 311.875 16.941406 312.125 C 17.550781 312.378906 18.179688 312.570312 18.828125 312.699219 C 19.476562 312.828125 20.132812 312.894531 20.792969 312.894531 L 248.382812 312.894531 C 249.046875 312.894531 249.699219 312.828125 250.347656 312.699219 C 250.996094 312.570312 251.625 312.378906 252.234375 312.125 C 252.847656 311.875 253.425781 311.5625 253.976562 311.195312 C 254.527344 310.828125 255.035156 310.410156 255.503906 309.945312 C 255.96875 309.476562 256.386719 308.96875 256.753906 308.417969 C 257.121094 307.871094 257.429688 307.289062 257.683594 306.679688 C 257.9375 306.066406 258.128906 305.4375 258.257812 304.789062 C 258.386719 304.140625 258.449219 303.488281 258.449219 302.828125 L 258.449219 20.96875 C 258.449219 20.308594 258.386719 19.652344 258.257812 19.003906 C 258.128906 18.355469 257.9375 17.726562 257.683594 17.117188 C 257.429688 16.503906 257.121094 15.925781 256.753906 15.375 C 256.386719 14.824219 255.96875 14.316406 255.503906 13.851562 C 255.035156 13.382812 254.527344 12.964844 253.976562 12.597656 C 253.425781 12.230469 252.847656 11.921875 252.238281 11.667969 C 251.625 11.414062 250.996094 11.222656 250.347656 11.09375 C 249.699219 10.964844 249.046875 10.902344 248.382812 10.902344 Z M 20.792969 10.902344 " fill-opacity="1" fill-rule="nonzero"/></g><path fill="#000000" d="M 77.617188 106.53125 C 71.359375 106.46875 65.191406 105.691406 59.113281 104.203125 C 53.035156 102.714844 47.207031 100.554688 41.628906 97.722656 C 41.207031 97.515625 40.820312 97.253906 40.46875 96.9375 C 40.121094 96.621094 39.820312 96.261719 39.570312 95.863281 C 39.320312 95.460938 39.132812 95.035156 39.003906 94.582031 C 38.875 94.128906 38.808594 93.664062 38.8125 93.195312 C 38.851562 91.570312 39.007812 89.957031 39.285156 88.355469 C 39.5625 86.75 39.949219 85.179688 40.457031 83.632812 C 40.960938 82.089844 41.578125 80.589844 42.300781 79.132812 C 43.023438 77.675781 43.851562 76.28125 44.777344 74.949219 C 45.707031 73.613281 46.726562 72.351562 47.835938 71.167969 C 48.949219 69.980469 50.140625 68.882812 51.410156 67.871094 C 52.683594 66.859375 54.023438 65.941406 55.425781 65.125 C 56.832031 64.308594 58.289062 63.597656 59.796875 62.996094 C 59.425781 62.449219 59.082031 61.886719 58.761719 61.308594 C 58.441406 60.734375 58.148438 60.140625 57.886719 59.535156 C 57.621094 58.929688 57.382812 58.316406 57.175781 57.6875 C 56.96875 57.0625 56.792969 56.425781 56.644531 55.78125 C 56.496094 55.140625 56.378906 54.492188 56.292969 53.835938 C 56.203125 53.179688 56.148438 52.523438 56.121094 51.863281 C 56.097656 51.207031 56.101562 50.546875 56.136719 49.886719 C 56.171875 49.226562 56.238281 48.570312 56.332031 47.917969 C 56.429688 47.265625 56.558594 46.617188 56.714844 45.976562 C 56.871094 45.335938 57.058594 44.703125 57.273438 44.078125 C 57.488281 43.453125 57.734375 42.839844 58.007812 42.242188 C 58.28125 41.640625 58.582031 41.050781 58.910156 40.480469 C 59.234375 39.90625 59.589844 39.347656 59.96875 38.808594 C 60.347656 38.269531 60.753906 37.746094 61.183594 37.246094 C 61.609375 36.742188 62.0625 36.261719 62.535156 35.800781 C 63.007812 35.339844 63.5 34.902344 64.015625 34.488281 C 64.527344 34.074219 65.0625 33.683594 65.613281 33.320312 C 66.160156 32.957031 66.726562 32.617188 67.308594 32.304688 C 67.890625 31.992188 68.488281 31.710938 69.09375 31.453125 C 69.703125 31.195312 70.324219 30.96875 70.953125 30.769531 C 71.582031 30.570312 72.21875 30.402344 72.863281 30.261719 C 73.511719 30.125 74.160156 30.015625 74.816406 29.9375 C 75.472656 29.859375 76.128906 29.808594 76.789062 29.792969 C 77.449219 29.777344 78.109375 29.789062 78.765625 29.832031 C 79.425781 29.878906 80.082031 29.953125 80.734375 30.058594 C 81.386719 30.164062 82.03125 30.296875 82.667969 30.464844 C 83.308594 30.628906 83.9375 30.824219 84.558594 31.046875 C 85.179688 31.273438 85.789062 31.527344 86.386719 31.804688 C 86.984375 32.085938 87.566406 32.394531 88.136719 32.730469 C 88.703125 33.066406 89.257812 33.429688 89.792969 33.816406 C 90.328125 34.203125 90.84375 34.613281 91.339844 35.046875 C 91.835938 35.484375 92.3125 35.941406 92.765625 36.417969 C 93.617188 37.277344 94.386719 38.199219 95.078125 39.1875 C 95.773438 40.175781 96.375 41.21875 96.890625 42.308594 C 97.402344 43.402344 97.820312 44.53125 98.140625 45.695312 C 98.460938 46.859375 98.683594 48.039062 98.800781 49.242188 C 98.917969 50.441406 98.933594 51.644531 98.847656 52.851562 C 98.757812 54.054688 98.570312 55.242188 98.277344 56.414062 C 97.988281 57.585938 97.597656 58.722656 97.113281 59.828125 C 96.625 60.933594 96.050781 61.988281 95.382812 62.996094 C 98.789062 64.484375 101.90625 66.429688 104.742188 68.832031 C 106.539062 70.304688 108.152344 71.953125 109.585938 73.777344 C 111.019531 75.601562 112.238281 77.558594 113.242188 79.648438 C 114.246094 81.738281 115.011719 83.914062 115.539062 86.175781 C 116.066406 88.433594 116.34375 90.722656 116.371094 93.042969 C 116.371094 93.515625 116.304688 93.976562 116.175781 94.429688 C 116.046875 94.882812 115.859375 95.3125 115.609375 95.710938 C 115.359375 96.113281 115.0625 96.472656 114.710938 96.789062 C 114.359375 97.101562 113.972656 97.367188 113.550781 97.574219 C 107.984375 100.429688 102.167969 102.613281 96.101562 104.125 C 90.03125 105.636719 83.871094 106.441406 77.617188 106.53125 Z M 49.027344 90.222656 C 51.246094 91.269531 53.515625 92.191406 55.835938 92.988281 C 58.15625 93.785156 60.511719 94.453125 62.90625 94.988281 C 65.300781 95.527344 67.714844 95.929688 70.152344 96.199219 C 72.589844 96.46875 75.035156 96.601562 77.488281 96.601562 C 79.941406 96.601562 82.386719 96.46875 84.824219 96.199219 C 87.265625 95.929688 89.679688 95.527344 92.074219 94.988281 C 94.46875 94.453125 96.824219 93.785156 99.144531 92.988281 C 101.464844 92.191406 103.734375 91.269531 105.949219 90.222656 C 105.507812 87.574219 104.609375 85.085938 103.257812 82.761719 C 101.902344 80.441406 100.183594 78.429688 98.101562 76.734375 C 94.21875 73.515625 89.804688 71.402344 84.863281 70.394531 C 84.382812 70.277344 83.929688 70.089844 83.503906 69.839844 C 83.078125 69.585938 82.695312 69.277344 82.359375 68.914062 C 82.023438 68.550781 81.75 68.144531 81.535156 67.699219 C 81.316406 67.253906 81.171875 66.785156 81.09375 66.296875 C 81.015625 65.808594 81.011719 65.320312 81.078125 64.828125 C 81.144531 64.339844 81.277344 63.867188 81.484375 63.417969 C 81.691406 62.964844 81.957031 62.554688 82.28125 62.183594 C 82.609375 61.8125 82.984375 61.496094 83.402344 61.234375 C 83.765625 61.015625 84.113281 60.777344 84.449219 60.519531 C 84.785156 60.265625 85.105469 59.988281 85.410156 59.695312 C 85.714844 59.402344 86 59.09375 86.269531 58.765625 C 86.539062 58.441406 86.789062 58.101562 87.019531 57.746094 C 87.25 57.390625 87.457031 57.027344 87.648438 56.648438 C 87.835938 56.269531 88.003906 55.882812 88.148438 55.484375 C 88.292969 55.089844 88.414062 54.683594 88.511719 54.273438 C 88.613281 53.863281 88.6875 53.449219 88.738281 53.027344 C 88.792969 52.609375 88.820312 52.1875 88.824219 51.765625 C 88.828125 51.34375 88.808594 50.921875 88.765625 50.5 C 88.722656 50.082031 88.65625 49.664062 88.5625 49.25 C 88.472656 48.839844 88.359375 48.433594 88.222656 48.03125 C 88.085938 47.632812 87.925781 47.242188 87.746094 46.859375 C 87.5625 46.476562 87.359375 46.109375 87.136719 45.75 C 86.914062 45.390625 86.671875 45.046875 86.410156 44.714844 C 86.144531 44.382812 85.867188 44.066406 85.566406 43.769531 C 84.796875 42.953125 83.921875 42.273438 82.941406 41.722656 C 81.964844 41.171875 80.925781 40.777344 79.832031 40.539062 C 78.734375 40.304688 77.628906 40.230469 76.507812 40.328125 C 75.390625 40.421875 74.3125 40.683594 73.273438 41.101562 C 72.234375 41.523438 71.277344 42.089844 70.40625 42.796875 C 69.539062 43.507812 68.792969 44.328125 68.167969 45.261719 C 67.546875 46.195312 67.074219 47.199219 66.753906 48.273438 C 66.433594 49.347656 66.28125 50.449219 66.292969 51.570312 C 66.289062 52.542969 66.410156 53.503906 66.65625 54.445312 C 66.902344 55.390625 67.265625 56.285156 67.746094 57.132812 C 68.230469 57.980469 68.8125 58.75 69.496094 59.445312 C 70.175781 60.140625 70.9375 60.738281 71.777344 61.234375 C 72.203125 61.488281 72.585938 61.796875 72.921875 62.164062 C 73.257812 62.527344 73.53125 62.9375 73.746094 63.382812 C 73.960938 63.832031 74.105469 64.300781 74.183594 64.792969 C 74.257812 65.28125 74.261719 65.773438 74.191406 66.265625 C 74.113281 66.769531 73.960938 67.246094 73.734375 67.703125 C 73.507812 68.160156 73.21875 68.570312 72.871094 68.9375 C 72.519531 69.308594 72.121094 69.617188 71.679688 69.863281 C 71.234375 70.113281 70.765625 70.289062 70.265625 70.394531 C 68.992188 70.585938 67.738281 70.875 66.507812 71.257812 C 65.277344 71.640625 64.082031 72.109375 62.921875 72.671875 C 61.761719 73.234375 60.648438 73.878906 59.585938 74.609375 C 58.523438 75.335938 57.519531 76.140625 56.578125 77.023438 C 55.636719 77.902344 54.765625 78.847656 53.964844 79.859375 C 53.164062 80.867188 52.445312 81.933594 51.804688 83.050781 C 51.164062 84.171875 50.613281 85.332031 50.148438 86.535156 C 49.683594 87.734375 49.308594 88.964844 49.027344 90.222656 Z M 111.234375 93.292969 Z M 111.234375 93.292969 " fill-opacity="1" fill-rule="nonzero"/><path fill="#000000" d="M 225.183594 60.929688 L 130.3125 60.929688 C 129.980469 60.929688 129.652344 60.898438 129.328125 60.835938 C 129.003906 60.769531 128.691406 60.675781 128.382812 60.546875 C 128.078125 60.421875 127.789062 60.265625 127.515625 60.082031 C 127.238281 59.898438 126.984375 59.691406 126.75 59.457031 C 126.519531 59.222656 126.308594 58.96875 126.125 58.695312 C 125.941406 58.417969 125.789062 58.128906 125.660156 57.824219 C 125.535156 57.519531 125.4375 57.203125 125.375 56.878906 C 125.308594 56.554688 125.277344 56.226562 125.277344 55.898438 C 125.277344 55.566406 125.308594 55.238281 125.375 54.917969 C 125.4375 54.59375 125.535156 54.277344 125.660156 53.972656 C 125.789062 53.667969 125.941406 53.375 126.125 53.101562 C 126.308594 52.828125 126.519531 52.574219 126.75 52.339844 C 126.984375 52.105469 127.238281 51.898438 127.515625 51.714844 C 127.789062 51.53125 128.078125 51.375 128.382812 51.246094 C 128.691406 51.121094 129.003906 51.027344 129.328125 50.960938 C 129.652344 50.898438 129.980469 50.863281 130.3125 50.863281 L 225.183594 50.863281 C 225.511719 50.863281 225.839844 50.898438 226.164062 50.960938 C 226.488281 51.027344 226.804688 51.121094 227.109375 51.246094 C 227.414062 51.375 227.703125 51.53125 227.976562 51.714844 C 228.253906 51.898438 228.507812 52.105469 228.742188 52.339844 C 228.976562 52.574219 229.183594 52.828125 229.367188 53.101562 C 229.550781 53.375 229.707031 53.667969 229.832031 53.972656 C 229.957031 54.277344 230.054688 54.59375 230.117188 54.917969 C 230.183594 55.238281 230.214844 55.566406 230.214844 55.898438 C 230.214844 56.226562 230.183594 56.554688 230.117188 56.878906 C 230.054688 57.203125 229.957031 57.519531 229.832031 57.824219 C 229.707031 58.128906 229.550781 58.417969 229.367188 58.695312 C 229.183594 58.96875 228.976562 59.222656 228.742188 59.457031 C 228.507812 59.691406 228.253906 59.898438 227.976562 60.082031 C 227.703125 60.265625 227.414062 60.421875 227.109375 60.546875 C 226.804688 60.675781 226.488281 60.769531 226.164062 60.835938 C 225.839844 60.898438 225.511719 60.929688 225.183594 60.929688 Z M 225.183594 60.929688 " fill-opacity="1" fill-rule="nonzero"/><path fill="#000000" d="M 177.820312 85.894531 L 130.3125 85.894531 C 129.980469 85.894531 129.652344 85.863281 129.328125 85.800781 C 129.003906 85.734375 128.691406 85.640625 128.382812 85.511719 C 128.078125 85.386719 127.789062 85.230469 127.515625 85.046875 C 127.238281 84.863281 126.984375 84.65625 126.75 84.421875 C 126.519531 84.1875 126.308594 83.933594 126.125 83.660156 C 125.941406 83.382812 125.789062 83.09375 125.660156 82.789062 C 125.535156 82.484375 125.4375 82.167969 125.375 81.84375 C 125.308594 81.519531 125.277344 81.191406 125.277344 80.863281 C 125.277344 80.53125 125.308594 80.203125 125.375 79.878906 C 125.4375 79.554688 125.535156 79.242188 125.660156 78.9375 C 125.789062 78.632812 125.941406 78.339844 126.125 78.066406 C 126.308594 77.792969 126.519531 77.539062 126.75 77.304688 C 126.984375 77.070312 127.238281 76.859375 127.515625 76.675781 C 127.789062 76.492188 128.078125 76.339844 128.382812 76.210938 C 128.691406 76.085938 129.003906 75.992188 129.328125 75.925781 C 129.652344 75.863281 129.980469 75.828125 130.3125 75.828125 L 177.820312 75.828125 C 178.152344 75.828125 178.480469 75.863281 178.804688 75.925781 C 179.128906 75.992188 179.441406 76.085938 179.746094 76.210938 C 180.054688 76.339844 180.34375 76.492188 180.617188 76.675781 C 180.894531 76.859375 181.148438 77.070312 181.378906 77.304688 C 181.613281 77.539062 181.824219 77.792969 182.007812 78.066406 C 182.191406 78.339844 182.34375 78.632812 182.472656 78.9375 C 182.597656 79.242188 182.695312 79.554688 182.757812 79.878906 C 182.824219 80.203125 182.855469 80.53125 182.855469 80.863281 C 182.855469 81.191406 182.824219 81.519531 182.757812 81.84375 C 182.695312 82.167969 182.597656 82.484375 182.472656 82.789062 C 182.34375 83.09375 182.191406 83.382812 182.007812 83.660156 C 181.824219 83.933594 181.613281 84.1875 181.378906 84.421875 C 181.148438 84.65625 180.894531 84.863281 180.617188 85.046875 C 180.34375 85.230469 180.054688 85.386719 179.746094 85.511719 C 179.441406 85.640625 179.128906 85.734375 178.804688 85.800781 C 178.480469 85.863281 178.152344 85.894531 177.820312 85.894531 Z M 177.820312 85.894531 " fill-opacity="1" fill-rule="nonzero"/><path fill="#000000" d="M 77.617188 200.148438 C 71.359375 200.085938 65.191406 199.308594 59.113281 197.820312 C 53.035156 196.335938 47.207031 194.175781 41.628906 191.339844 C 40.835938 190.917969 40.199219 190.324219 39.722656 189.558594 C 39.246094 188.796875 38.992188 187.964844 38.960938 187.0625 C 39.003906 185.4375 39.160156 183.824219 39.4375 182.222656 C 39.710938 180.621094 40.101562 179.046875 40.605469 177.503906 C 41.113281 175.957031 41.726562 174.457031 42.453125 173.003906 C 43.175781 171.546875 44 170.152344 44.929688 168.816406 C 45.855469 167.480469 46.875 166.222656 47.988281 165.035156 C 49.097656 163.851562 50.289062 162.75 51.5625 161.738281 C 52.835938 160.726562 54.171875 159.8125 55.578125 158.996094 C 56.984375 158.179688 58.441406 157.46875 59.949219 156.863281 C 59.414062 156.0625 58.9375 155.230469 58.515625 154.367188 C 58.09375 153.503906 57.734375 152.613281 57.433594 151.699219 C 57.128906 150.785156 56.894531 149.855469 56.71875 148.910156 C 56.542969 147.964844 56.433594 147.011719 56.386719 146.050781 C 56.339844 145.089844 56.359375 144.132812 56.445312 143.171875 C 56.527344 142.214844 56.675781 141.265625 56.886719 140.328125 C 57.101562 139.390625 57.375 138.472656 57.714844 137.570312 C 58.050781 136.667969 58.445312 135.796875 58.902344 134.949219 C 59.359375 134.101562 59.871094 133.289062 60.433594 132.511719 C 61 131.734375 61.617188 130.996094 62.28125 130.304688 C 62.949219 129.609375 63.65625 128.960938 64.410156 128.363281 C 65.164062 127.765625 65.953125 127.222656 66.78125 126.730469 C 67.609375 126.238281 68.464844 125.804688 69.347656 125.429688 C 70.234375 125.054688 71.140625 124.742188 72.070312 124.488281 C 73 124.238281 73.941406 124.050781 74.894531 123.925781 C 75.847656 123.800781 76.804688 123.742188 77.765625 123.746094 C 79.175781 123.769531 80.570312 123.929688 81.945312 124.226562 C 83.324219 124.523438 84.660156 124.949219 85.953125 125.507812 C 87.25 126.0625 88.476562 126.738281 89.640625 127.535156 C 90.804688 128.332031 91.878906 129.234375 92.867188 130.238281 C 93.847656 131.234375 94.71875 132.316406 95.488281 133.484375 C 96.257812 134.652344 96.902344 135.886719 97.429688 137.179688 C 97.957031 138.476562 98.351562 139.808594 98.617188 141.183594 C 98.882812 142.554688 99.011719 143.941406 99.003906 145.335938 C 98.984375 147.371094 98.675781 149.363281 98.074219 151.308594 C 97.476562 153.25 96.609375 155.070312 95.484375 156.761719 C 98.886719 158.253906 102.007812 160.199219 104.84375 162.601562 C 106.644531 164.089844 108.261719 165.757812 109.695312 167.605469 C 111.128906 169.449219 112.34375 171.429688 113.339844 173.542969 C 114.335938 175.660156 115.089844 177.855469 115.601562 180.136719 C 116.113281 182.417969 116.367188 184.726562 116.371094 187.0625 C 116.371094 187.535156 116.304688 187.996094 116.175781 188.449219 C 116.046875 188.90625 115.859375 189.332031 115.609375 189.730469 C 115.359375 190.132812 115.0625 190.492188 114.710938 190.808594 C 114.359375 191.125 113.972656 191.386719 113.550781 191.59375 C 107.96875 194.378906 102.144531 196.492188 96.074219 197.9375 C 90.007812 199.382812 83.855469 200.121094 77.617188 200.148438 Z M 49.027344 183.742188 C 51.246094 184.789062 53.515625 185.710938 55.835938 186.507812 C 58.15625 187.304688 60.511719 187.96875 62.90625 188.503906 C 65.300781 189.042969 67.714844 189.445312 70.152344 189.714844 C 72.589844 189.984375 75.035156 190.121094 77.488281 190.121094 C 79.941406 190.121094 82.386719 189.984375 84.824219 189.714844 C 87.265625 189.445312 89.679688 189.042969 92.074219 188.503906 C 94.46875 187.96875 96.824219 187.304688 99.144531 186.507812 C 101.464844 185.710938 103.734375 184.789062 105.949219 183.742188 C 105.507812 181.089844 104.609375 178.601562 103.257812 176.28125 C 101.902344 173.957031 100.183594 171.949219 98.101562 170.253906 C 94.21875 167.03125 89.804688 164.917969 84.863281 163.910156 C 84.371094 163.804688 83.902344 163.632812 83.460938 163.386719 C 83.019531 163.144531 82.621094 162.839844 82.273438 162.476562 C 81.921875 162.113281 81.632812 161.707031 81.40625 161.253906 C 81.179688 160.804688 81.023438 160.332031 80.9375 159.832031 C 80.867188 159.34375 80.867188 158.855469 80.9375 158.367188 C 81.011719 157.875 81.152344 157.40625 81.363281 156.960938 C 81.570312 156.511719 81.84375 156.105469 82.171875 155.738281 C 82.503906 155.371094 82.878906 155.058594 83.304688 154.800781 C 84.125 154.304688 84.871094 153.714844 85.539062 153.03125 C 86.210938 152.34375 86.785156 151.585938 87.261719 150.753906 C 87.734375 149.917969 88.097656 149.039062 88.347656 148.113281 C 88.601562 147.1875 88.730469 146.246094 88.738281 145.289062 C 88.738281 144.546875 88.667969 143.8125 88.523438 143.089844 C 88.378906 142.363281 88.164062 141.65625 87.878906 140.972656 C 87.597656 140.289062 87.25 139.640625 86.839844 139.023438 C 86.425781 138.410156 85.960938 137.839844 85.4375 137.316406 C 84.914062 136.792969 84.34375 136.324219 83.726562 135.914062 C 83.113281 135.503906 82.460938 135.15625 81.777344 134.871094 C 81.09375 134.589844 80.390625 134.375 79.664062 134.230469 C 78.9375 134.085938 78.203125 134.011719 77.464844 134.011719 C 76.722656 134.011719 75.992188 134.085938 75.265625 134.230469 C 74.539062 134.375 73.835938 134.589844 73.148438 134.871094 C 72.464844 135.15625 71.816406 135.503906 71.199219 135.914062 C 70.585938 136.324219 70.015625 136.792969 69.492188 137.316406 C 68.96875 137.839844 68.5 138.410156 68.089844 139.023438 C 67.679688 139.640625 67.332031 140.289062 67.050781 140.972656 C 66.765625 141.65625 66.550781 142.363281 66.40625 143.089844 C 66.261719 143.8125 66.191406 144.546875 66.191406 145.289062 C 66.1875 146.261719 66.308594 147.222656 66.554688 148.164062 C 66.800781 149.105469 67.167969 150.003906 67.648438 150.851562 C 68.128906 151.699219 68.710938 152.46875 69.394531 153.164062 C 70.078125 153.859375 70.835938 154.457031 71.675781 154.953125 C 72.105469 155.203125 72.484375 155.515625 72.820312 155.882812 C 73.15625 156.246094 73.429688 156.65625 73.644531 157.101562 C 73.859375 157.550781 74.007812 158.019531 74.082031 158.511719 C 74.160156 159 74.160156 159.492188 74.09375 159.984375 C 74.011719 160.488281 73.859375 160.964844 73.632812 161.421875 C 73.40625 161.875 73.121094 162.289062 72.769531 162.65625 C 72.417969 163.023438 72.023438 163.332031 71.578125 163.582031 C 71.132812 163.828125 70.664062 164.007812 70.167969 164.113281 C 68.902344 164.304688 67.660156 164.59375 66.441406 164.972656 C 65.21875 165.355469 64.035156 165.824219 62.882812 166.378906 C 61.734375 166.9375 60.628906 167.574219 59.574219 168.296875 C 58.519531 169.019531 57.523438 169.8125 56.585938 170.683594 C 55.648438 171.554688 54.78125 172.488281 53.984375 173.488281 C 53.1875 174.488281 52.46875 175.539062 51.828125 176.644531 C 51.1875 177.753906 50.632812 178.898438 50.164062 180.089844 C 49.695312 181.277344 49.316406 182.496094 49.027344 183.742188 Z M 111.335938 187.0625 Z M 111.335938 187.0625 " fill-opacity="1" fill-rule="nonzero"/><path fill="#000000" d="M 225.183594 154.449219 L 130.3125 154.449219 C 129.980469 154.449219 129.652344 154.414062 129.328125 154.351562 C 129.003906 154.285156 128.691406 154.191406 128.382812 154.066406 C 128.078125 153.9375 127.789062 153.785156 127.515625 153.601562 C 127.238281 153.417969 126.984375 153.207031 126.75 152.972656 C 126.519531 152.738281 126.308594 152.484375 126.125 152.210938 C 125.941406 151.9375 125.789062 151.644531 125.660156 151.339844 C 125.535156 151.035156 125.4375 150.722656 125.375 150.398438 C 125.308594 150.074219 125.277344 149.746094 125.277344 149.414062 C 125.277344 149.085938 125.308594 148.757812 125.375 148.433594 C 125.4375 148.109375 125.535156 147.792969 125.660156 147.488281 C 125.789062 147.183594 125.941406 146.894531 126.125 146.617188 C 126.308594 146.34375 126.519531 146.089844 126.75 145.855469 C 126.984375 145.621094 127.238281 145.414062 127.515625 145.230469 C 127.789062 145.046875 128.078125 144.890625 128.382812 144.765625 C 128.691406 144.636719 129.003906 144.542969 129.328125 144.476562 C 129.652344 144.414062 129.980469 144.382812 130.3125 144.382812 L 225.183594 144.382812 C 225.511719 144.382812 225.839844 144.414062 226.164062 144.476562 C 226.488281 144.542969 226.804688 144.636719 227.109375 144.765625 C 227.414062 144.890625 227.703125 145.046875 227.976562 145.230469 C 228.253906 145.414062 228.507812 145.621094 228.742188 145.855469 C 228.976562 146.089844 229.183594 146.34375 229.367188 146.617188 C 229.550781 146.894531 229.707031 147.183594 229.832031 147.488281 C 229.957031 147.792969 230.054688 148.109375 230.117188 148.433594 C 230.183594 148.757812 230.214844 149.085938 230.214844 149.414062 C 230.214844 149.746094 230.183594 150.074219 230.117188 150.398438 C 230.054688 150.722656 229.957031 151.035156 229.832031 151.339844 C 229.707031 151.644531 229.550781 151.9375 229.367188 152.210938 C 229.183594 152.484375 228.976562 152.738281 228.742188 152.972656 C 228.507812 153.207031 228.253906 153.417969 227.976562 153.601562 C 227.703125 153.785156 227.414062 153.9375 227.109375 154.066406 C 226.804688 154.191406 226.488281 154.285156 226.164062 154.351562 C 225.839844 154.414062 225.511719 154.449219 225.183594 154.449219 Z M 225.183594 154.449219 " fill-opacity="1" fill-rule="nonzero"/><path fill="#000000" d="M 177.820312 179.414062 L 130.3125 179.414062 C 129.980469 179.414062 129.652344 179.378906 129.328125 179.316406 C 129.003906 179.25 128.691406 179.15625 128.382812 179.03125 C 128.078125 178.902344 127.789062 178.746094 127.515625 178.5625 C 127.238281 178.378906 126.984375 178.171875 126.75 177.9375 C 126.519531 177.703125 126.308594 177.449219 126.125 177.175781 C 125.941406 176.902344 125.789062 176.609375 125.660156 176.304688 C 125.535156 176 125.4375 175.683594 125.375 175.359375 C 125.308594 175.039062 125.277344 174.710938 125.277344 174.378906 C 125.277344 174.050781 125.308594 173.722656 125.375 173.398438 C 125.4375 173.074219 125.535156 172.757812 125.660156 172.453125 C 125.789062 172.148438 125.941406 171.859375 126.125 171.582031 C 126.308594 171.308594 126.519531 171.054688 126.75 170.820312 C 126.984375 170.585938 127.238281 170.378906 127.515625 170.195312 C 127.789062 170.011719 128.078125 169.855469 128.382812 169.730469 C 128.691406 169.601562 129.003906 169.507812 129.328125 169.441406 C 129.652344 169.378906 129.980469 169.347656 130.3125 169.347656 L 177.820312 169.347656 C 178.152344 169.347656 178.480469 169.378906 178.804688 169.441406 C 179.128906 169.507812 179.441406 169.601562 179.746094 169.730469 C 180.054688 169.855469 180.34375 170.011719 180.617188 170.195312 C 180.894531 170.378906 181.148438 170.585938 181.378906 170.820312 C 181.613281 171.054688 181.824219 171.308594 182.007812 171.582031 C 182.191406 171.859375 182.34375 172.148438 182.472656 172.453125 C 182.597656 172.757812 182.695312 173.074219 182.757812 173.398438 C 182.824219 173.722656 182.855469 174.050781 182.855469 174.378906 C 182.855469 174.710938 182.824219 175.039062 182.757812 175.359375 C 182.695312 175.683594 182.597656 176 182.472656 176.304688 C 182.34375 176.609375 182.191406 176.902344 182.007812 177.175781 C 181.824219 177.449219 181.613281 177.703125 181.378906 177.9375 C 181.148438 178.171875 180.894531 178.378906 180.617188 178.5625 C 180.34375 178.746094 180.054688 178.902344 179.746094 179.03125 C 179.441406 179.15625 179.128906 179.25 178.804688 179.316406 C 178.480469 179.378906 178.152344 179.414062 177.820312 179.414062 Z M 177.820312 179.414062 " fill-opacity="1" fill-rule="nonzero"/><path fill="#000000" d="M 77.617188 293.667969 C 71.359375 293.601562 65.191406 292.824219 59.113281 291.339844 C 53.035156 289.851562 47.207031 287.691406 41.628906 284.859375 C 41.207031 284.652344 40.820312 284.386719 40.46875 284.074219 C 40.121094 283.757812 39.820312 283.398438 39.570312 282.996094 C 39.320312 282.597656 39.132812 282.167969 39.003906 281.714844 C 38.875 281.261719 38.808594 280.800781 38.8125 280.328125 C 38.851562 278.703125 39.007812 277.089844 39.285156 275.488281 C 39.5625 273.886719 39.949219 272.3125 40.457031 270.765625 C 40.960938 269.222656 41.578125 267.722656 42.300781 266.265625 C 43.023438 264.8125 43.851562 263.417969 44.777344 262.082031 C 45.707031 260.746094 46.726562 259.488281 47.835938 258.300781 C 48.949219 257.113281 50.140625 256.015625 51.410156 255.003906 C 52.683594 253.992188 54.023438 253.078125 55.425781 252.261719 C 56.832031 251.445312 58.289062 250.734375 59.796875 250.128906 C 59.28125 249.328125 58.820312 248.5 58.414062 247.640625 C 58.007812 246.777344 57.660156 245.894531 57.371094 244.984375 C 57.085938 244.078125 56.859375 243.15625 56.695312 242.21875 C 56.53125 241.28125 56.429688 240.335938 56.394531 239.382812 C 56.355469 238.433594 56.382812 237.484375 56.472656 236.535156 C 56.5625 235.585938 56.714844 234.648438 56.933594 233.722656 C 57.148438 232.796875 57.425781 231.886719 57.761719 230.996094 C 58.101562 230.105469 58.496094 229.242188 58.949219 228.40625 C 59.402344 227.570312 59.910156 226.765625 60.472656 225.996094 C 61.035156 225.226562 61.644531 224.5 62.304688 223.8125 C 62.960938 223.125 63.664062 222.484375 64.410156 221.894531 C 65.15625 221.300781 65.9375 220.761719 66.753906 220.273438 C 67.570312 219.785156 68.417969 219.351562 69.292969 218.976562 C 70.167969 218.605469 71.0625 218.289062 71.980469 218.035156 C 72.898438 217.78125 73.828125 217.589844 74.773438 217.460938 C 75.714844 217.332031 76.664062 217.265625 77.617188 217.261719 C 79.023438 217.285156 80.417969 217.449219 81.796875 217.742188 C 83.171875 218.039062 84.507812 218.464844 85.804688 219.023438 C 87.097656 219.578125 88.328125 220.257812 89.488281 221.050781 C 90.652344 221.847656 91.726562 222.75 92.714844 223.753906 C 93.695312 224.75 94.570312 225.835938 95.335938 227.003906 C 96.105469 228.171875 96.753906 229.402344 97.277344 230.695312 C 97.804688 231.992188 98.203125 233.324219 98.464844 234.699219 C 98.730469 236.070312 98.859375 237.457031 98.855469 238.855469 C 98.832031 240.890625 98.523438 242.878906 97.925781 244.824219 C 97.324219 246.769531 96.460938 248.585938 95.332031 250.28125 C 98.738281 251.769531 101.859375 253.714844 104.691406 256.117188 C 106.488281 257.589844 108.101562 259.234375 109.535156 261.058594 C 110.96875 262.882812 112.1875 264.84375 113.191406 266.933594 C 114.195312 269.023438 114.960938 271.199219 115.488281 273.460938 C 116.015625 275.71875 116.292969 278.007812 116.320312 280.328125 C 116.320312 280.800781 116.257812 281.261719 116.125 281.714844 C 115.996094 282.167969 115.808594 282.597656 115.558594 282.996094 C 115.308594 283.398438 115.011719 283.757812 114.660156 284.074219 C 114.3125 284.386719 113.925781 284.652344 113.5 284.859375 C 107.9375 287.683594 102.125 289.839844 96.066406 291.328125 C 90.003906 292.8125 83.855469 293.59375 77.617188 293.667969 Z M 49.027344 277.257812 C 51.246094 278.304688 53.515625 279.226562 55.835938 280.023438 C 58.15625 280.820312 60.511719 281.484375 62.90625 282.023438 C 65.300781 282.558594 67.714844 282.960938 70.152344 283.230469 C 72.589844 283.5 75.035156 283.636719 77.488281 283.636719 C 79.941406 283.636719 82.386719 283.5 84.824219 283.230469 C 87.265625 282.960938 89.679688 282.558594 92.074219 282.023438 C 94.46875 281.484375 96.824219 280.820312 99.144531 280.023438 C 101.464844 279.226562 103.734375 278.304688 105.949219 277.257812 C 105.507812 274.605469 104.609375 272.121094 103.257812 269.796875 C 101.902344 267.472656 100.183594 265.464844 98.101562 263.769531 C 94.238281 260.601562 89.859375 258.523438 84.964844 257.527344 C 84.46875 257.425781 84.003906 257.25 83.5625 257.003906 C 83.121094 256.761719 82.722656 256.457031 82.375 256.09375 C 82.023438 255.730469 81.734375 255.324219 81.507812 254.871094 C 81.28125 254.421875 81.121094 253.949219 81.039062 253.449219 C 80.964844 252.960938 80.964844 252.472656 81.039062 251.984375 C 81.109375 251.492188 81.253906 251.027344 81.460938 250.578125 C 81.671875 250.128906 81.941406 249.722656 82.273438 249.355469 C 82.605469 248.988281 82.980469 248.675781 83.402344 248.417969 C 84.226562 247.921875 84.972656 247.332031 85.640625 246.648438 C 86.3125 245.960938 86.886719 245.203125 87.359375 244.371094 C 87.835938 243.535156 88.199219 242.65625 88.449219 241.730469 C 88.699219 240.804688 88.832031 239.863281 88.839844 238.90625 C 88.839844 238.164062 88.765625 237.429688 88.621094 236.707031 C 88.476562 235.980469 88.265625 235.273438 87.980469 234.589844 C 87.699219 233.90625 87.351562 233.257812 86.9375 232.640625 C 86.527344 232.027344 86.058594 231.457031 85.535156 230.933594 C 85.011719 230.410156 84.445312 229.941406 83.828125 229.53125 C 83.214844 229.121094 82.5625 228.773438 81.878906 228.488281 C 81.195312 228.207031 80.492188 227.992188 79.765625 227.847656 C 79.039062 227.703125 78.304688 227.628906 77.566406 227.628906 C 76.824219 227.628906 76.089844 227.703125 75.367188 227.847656 C 74.640625 227.992188 73.933594 228.207031 73.25 228.488281 C 72.566406 228.773438 71.917969 229.121094 71.300781 229.53125 C 70.6875 229.941406 70.117188 230.410156 69.59375 230.933594 C 69.070312 231.457031 68.601562 232.027344 68.191406 232.640625 C 67.78125 233.257812 67.433594 233.90625 67.148438 234.589844 C 66.867188 235.273438 66.652344 235.980469 66.507812 236.707031 C 66.363281 237.429688 66.292969 238.164062 66.292969 238.90625 C 66.289062 239.878906 66.410156 240.839844 66.65625 241.78125 C 66.902344 242.722656 67.265625 243.621094 67.746094 244.46875 C 68.230469 245.316406 68.8125 246.085938 69.496094 246.78125 C 70.175781 247.476562 70.9375 248.074219 71.777344 248.570312 C 72.203125 248.820312 72.585938 249.132812 72.921875 249.5 C 73.257812 249.863281 73.53125 250.273438 73.746094 250.71875 C 73.960938 251.167969 74.105469 251.636719 74.183594 252.128906 C 74.257812 252.617188 74.261719 253.109375 74.191406 253.601562 C 74.113281 254.105469 73.960938 254.582031 73.734375 255.039062 C 73.507812 255.492188 73.21875 255.90625 72.871094 256.273438 C 72.519531 256.644531 72.121094 256.949219 71.679688 257.199219 C 71.234375 257.445312 70.765625 257.625 70.265625 257.730469 C 69.003906 257.917969 67.757812 258.199219 66.535156 258.574219 C 65.3125 258.945312 64.125 259.410156 62.972656 259.960938 C 61.816406 260.511719 60.710938 261.144531 59.652344 261.863281 C 58.59375 262.578125 57.59375 263.367188 56.652344 264.234375 C 55.710938 265.101562 54.839844 266.03125 54.035156 267.027344 C 53.234375 268.019531 52.507812 269.070312 51.863281 270.175781 C 51.21875 271.277344 50.65625 272.421875 50.183594 273.609375 C 49.707031 274.796875 49.320312 276.011719 49.027344 277.257812 Z M 111.234375 280.328125 Z M 111.234375 280.328125 " fill-opacity="1" fill-rule="nonzero"/><path fill="#000000" d="M 225.183594 247.964844 L 130.3125 247.964844 C 129.980469 247.964844 129.652344 247.933594 129.328125 247.867188 C 129.003906 247.804688 128.691406 247.707031 128.382812 247.582031 C 128.078125 247.453125 127.789062 247.300781 127.515625 247.117188 C 127.238281 246.933594 126.984375 246.722656 126.75 246.492188 C 126.519531 246.257812 126.308594 246.003906 126.125 245.726562 C 125.941406 245.453125 125.789062 245.164062 125.660156 244.859375 C 125.535156 244.550781 125.4375 244.238281 125.375 243.914062 C 125.308594 243.589844 125.277344 243.261719 125.277344 242.929688 C 125.277344 242.601562 125.308594 242.273438 125.375 241.949219 C 125.4375 241.625 125.535156 241.3125 125.660156 241.003906 C 125.789062 240.699219 125.941406 240.410156 126.125 240.136719 C 126.308594 239.859375 126.519531 239.605469 126.75 239.371094 C 126.984375 239.140625 127.238281 238.929688 127.515625 238.746094 C 127.789062 238.5625 128.078125 238.40625 128.382812 238.28125 C 128.691406 238.15625 129.003906 238.058594 129.328125 237.996094 C 129.652344 237.929688 129.980469 237.898438 130.3125 237.898438 L 225.183594 237.898438 C 225.511719 237.898438 225.839844 237.929688 226.164062 237.996094 C 226.488281 238.058594 226.804688 238.15625 227.109375 238.28125 C 227.414062 238.40625 227.703125 238.5625 227.976562 238.746094 C 228.253906 238.929688 228.507812 239.140625 228.742188 239.371094 C 228.976562 239.605469 229.183594 239.859375 229.367188 240.136719 C 229.550781 240.410156 229.707031 240.699219 229.832031 241.003906 C 229.957031 241.3125 230.054688 241.625 230.117188 241.949219 C 230.183594 242.273438 230.214844 242.601562 230.214844 242.929688 C 230.214844 243.261719 230.183594 243.589844 230.117188 243.914062 C 230.054688 244.238281 229.957031 244.550781 229.832031 244.859375 C 229.707031 245.164062 229.550781 245.453125 229.367188 245.726562 C 229.183594 246.003906 228.976562 246.257812 228.742188 246.492188 C 228.507812 246.722656 228.253906 246.933594 227.976562 247.117188 C 227.703125 247.300781 227.414062 247.453125 227.109375 247.582031 C 226.804688 247.707031 226.488281 247.804688 226.164062 247.867188 C 225.839844 247.933594 225.511719 247.964844 225.183594 247.964844 Z M 225.183594 247.964844 " fill-opacity="1" fill-rule="nonzero"/><path fill="#000000" d="M 177.820312 272.929688 L 130.3125 272.929688 C 129.980469 272.929688 129.652344 272.898438 129.328125 272.832031 C 129.003906 272.769531 128.691406 272.671875 128.382812 272.546875 C 128.078125 272.417969 127.789062 272.265625 127.515625 272.082031 C 127.238281 271.898438 126.984375 271.6875 126.75 271.457031 C 126.519531 271.222656 126.308594 270.96875 126.125 270.691406 C 125.941406 270.417969 125.789062 270.128906 125.660156 269.820312 C 125.535156 269.515625 125.4375 269.203125 125.375 268.878906 C 125.308594 268.554688 125.277344 268.226562 125.277344 267.894531 C 125.277344 267.566406 125.308594 267.238281 125.375 266.914062 C 125.4375 266.589844 125.535156 266.273438 125.660156 265.96875 C 125.789062 265.664062 125.941406 265.375 126.125 265.101562 C 126.308594 264.824219 126.519531 264.570312 126.75 264.335938 C 126.984375 264.101562 127.238281 263.894531 127.515625 263.710938 C 127.789062 263.527344 128.078125 263.371094 128.382812 263.246094 C 128.691406 263.121094 129.003906 263.023438 129.328125 262.960938 C 129.652344 262.894531 129.980469 262.863281 130.3125 262.863281 L 177.820312 262.863281 C 178.152344 262.863281 178.480469 262.894531 178.804688 262.960938 C 179.128906 263.023438 179.441406 263.121094 179.746094 263.246094 C 180.054688 263.371094 180.34375 263.527344 180.617188 263.710938 C 180.894531 263.894531 181.148438 264.101562 181.378906 264.335938 C 181.613281 264.570312 181.824219 264.824219 182.007812 265.101562 C 182.191406 265.375 182.34375 265.664062 182.472656 265.96875 C 182.597656 266.273438 182.695312 266.589844 182.757812 266.914062 C 182.824219 267.238281 182.855469 267.566406 182.855469 267.894531 C 182.855469 268.226562 182.824219 268.554688 182.757812 268.878906 C 182.695312 269.203125 182.597656 269.515625 182.472656 269.820312 C 182.34375 270.128906 182.191406 270.417969 182.007812 270.691406 C 181.824219 270.96875 181.613281 271.222656 181.378906 271.457031 C 181.148438 271.6875 180.894531 271.898438 180.617188 272.082031 C 180.34375 272.265625 180.054688 272.417969 179.746094 272.546875 C 179.441406 272.671875 179.128906 272.769531 178.804688 272.832031 C 178.480469 272.898438 178.152344 272.929688 177.820312 272.929688 Z M 177.820312 272.929688 " fill-opacity="1" fill-rule="nonzero"/></svg>