<svg xmlns="http://www.w3.org/2000/svg" width="176" viewBox="0 0 132 161.25" height="215" version="1.0"><defs><clipPath id="a"><path d="M101 102h29.836v22H101zm0 0"/></clipPath><clipPath id="b"><path d="M36 .328h89v159.758H36zm0 0"/></clipPath></defs><path fill="#524b5b" d="M120.555 13.008v134.61a3.818 3.818 0 0 1-3.813 3.823H43.336a3.823 3.823 0 0 1-3.816-3.824V13.007a3.82 3.82 0 0 1 3.816-3.823h73.406a3.813 3.813 0 0 1 3.813 3.824"/><path fill="#ebedf0" d="M120.555 13.008v134.61a3.818 3.818 0 0 1-3.813 3.823H43.336a3.823 3.823 0 0 1-3.816-3.824V13.007a3.82 3.82 0 0 1 3.816-3.823h73.406a3.813 3.813 0 0 1 3.813 3.824"/><path fill="#91b9f8" d="M103.988 9.184c-.738 18.644-18.18 30.964-36.508 43.918C57.97 59.82 48.06 66.824 39.52 75.125V66.75c7.851-6.988 16.386-13.027 24.41-18.691 10.27-7.254 19.968-14.11 26.304-21.594 4.79-5.656 7.274-11.274 7.579-17.281h6.175"/><path fill="#fff" d="m81.64 89.055 38.915-33.211v3.05L93.953 81.603v.015l25.242 14.664.559.324a.709.709 0 0 1 .254.957.715.715 0 0 1-.602.348.719.719 0 0 1-.351-.094l-.563-.328-25.668-14.914h-.011l-8.399 7.168v.02l28.957 16.629 1.895 1.086c.55.316.746 1.027.43 1.59a1.17 1.17 0 0 1-1.008.581c-.2 0-.391-.05-.575-.156l-1.902-1.094L81.816 90.95a1.184 1.184 0 0 1-.574-.898c-.039-.38.117-.754.399-.996"/><path fill="#fff" d="m42.832 16.016-3.312-1.477v2.54l1.39.624.012.016-1.402 4.066v7.113l3.937-11.441a1.167 1.167 0 0 0-.625-1.441zm45.855 93.668h.008l17.356 9.402 9.242 5.008 5.262 2.851v-2.644l-4.102-2.223-9.238-5.004-17.735-9.61a1.152 1.152 0 0 0-.68-.128l-14.05 1.539h-.008l-21.418-12.34-.008-.015 11.262-13.625h.012l6.45 2.867c.456.207.991.097 1.327-.274l14.832-16.3c.371-.403.461-1.02.149-1.473a1.155 1.155 0 0 0-1.82-.137L71.222 83.297h-.016l-6.48-2.887a1.161 1.161 0 0 0-1.368.32L51.27 95.348h-.011L39.52 88.59v3.75l19.488 11.222.008.016-19.496 35.66v4.832l21.503-39.332h.02l40.008 23.035 9.101 5.243 7.98 4.593.005.02-7.856 13.812h4.27l6.004-10.566v-7.508l-.801 1.414-.02.008-7.96-4.586-9.098-5.242-24.489-14.11.004-.015 10.496-1.152M118.242 23.723a.7.7 0 0 0-.87.242l-12.005 18.14c-.18.274-.191.645.028.891.14.164.335.238.523.238.223 0 .45-.113.582-.308l11.7-17.684h.015l2.34 1.07v-1.53l-2.313-1.06M84.492 9.184l-10.21 14.125a.694.694 0 0 1-.567.285.683.683 0 0 1-.297-.067L43.008 9.2a2.98 2.98 0 0 1 .328-.015h2.918l27.23 12.828h.012l9.281-12.828h1.715"/><path fill="#d3d7df" d="M120.555 29.906v21.18l-6.211 5.523c-.52.461-1.274.555-1.89.23l-6.72-3.495a1.685 1.685 0 0 1-.617-2.43l13.535-20.34a1.668 1.668 0 0 1 1.903-.668M62.352 77.402 52.148 91.043a1.678 1.678 0 0 1-2.214.43L39.52 85.172v-5.785L51.3 69.203a1.685 1.685 0 0 1 2.044-.117L61.96 75a1.69 1.69 0 0 1 .39 2.402M95.414 130.52 82.766 151.44H52.84l18.93-34.652a1.678 1.678 0 0 1 2.32-.648l20.734 12.05a1.685 1.685 0 0 1 .59 2.329M74.023 34.602 48.06 54.695a1.679 1.679 0 0 1-1.817.153l-6.722-3.59v-9.145l7.523-23.746c.328-1.031 1.531-1.492 2.453-.945L73.848 31.82a1.684 1.684 0 0 1 .175 2.782M120.555 61.328v27.356l-1.727 3a1.67 1.67 0 0 1-2.355.582l-16.438-10.48a1.69 1.69 0 0 1-.191-2.704l20.71-17.754"/><path fill="#b3dfbf" d="m53.86 106.57-14.34 27.118V97.112l13.71 7.375a1.541 1.541 0 0 1 .63 2.082M101.523 43.926 94.5 39.96a1.534 1.534 0 0 0-1.656.09L70.973 55.816c-.961.692-.813 2.168.265 2.66l25.93 11.758c.574.258 1.246.141 1.703-.293l9.617-9.246a1.543 1.543 0 0 0-.187-2.383l-8.852-6.148a1.546 1.546 0 0 1-.34-2.21l2.88-3.74a1.545 1.545 0 0 0-.466-2.288"/><path fill="#fddd81" d="M120.555 93.918v21.043l-4.102 7.117-1.16 2.016-3.52 6.11-1.62 2.812-10.614 18.425H87.422l13.629-23.668 1.625-2.812 3.375-5.875 1.164-2.012 4.996-8.676 1.16-2.007 5.121-8.903.703-1.207 1.36-2.363"/><path fill="#ee4858" d="M14 80.332a5.848 5.848 0 0 1-6.914-4.55c-.652-3.173 1.383-6.274 4.543-6.93 3.164-.657 6.258 1.382 6.914 4.554.652 3.172-1.379 6.274-4.543 6.926zm-3.465-16.789c-5.84 1.21-9.594 6.937-8.387 12.789 2.036 9.871 10.86 17.176 14.418 16.441 3.559-.738 8.598-11.761 6.727-20.824-1.207-5.851-6.918-9.617-12.758-8.406"/><path fill="#f4b185" d="m58.102 61.484 7.207 13.172a3.264 3.264 0 0 0 3.02 1.692l17.917-.887a6.841 6.841 0 0 0 1.68-.305c1.699-.531 3.386-.527 5.062.13a.495.495 0 0 0 .57-.15l.551-.698a.49.49 0 0 0-.054-.668c-.727-.66-2.598-2.122-4.895-2.063-2.96.07-18.426-.8-18.426-.8l-6.543-11.368-6.09 1.945"/><path fill="#e3394a" d="m59.371 66.082 3.633 6.969a.62.62 0 0 0 .902.226l6.328-4.343a.496.496 0 0 0 .125-.692l-4.656-6.66a3.869 3.869 0 0 0-6.777.91l-.012.028a3.897 3.897 0 0 0 .457 3.562"/><path fill="#433057" d="m90.996 80.277 2.723 3.63-3.938 3.331-3.765-5.394 4.98-1.567M108.355 125.168c-.84-4.078 1.774-8.066 5.84-8.91 4.07-.844 8.047 1.777 8.89 5.855.84 4.078-1.772 8.067-5.843 8.91-4.066.844-8.047-1.78-8.887-5.855zm-6.18 1.281c1.552 7.496 8.868 12.317 16.348 10.766 7.477-1.55 12.286-8.887 10.739-16.383-1.547-7.496-8.864-12.316-16.344-10.766-7.477 1.551-12.29 8.887-10.742 16.383"/><path fill="#bcb9bf" d="M110.582 129.145a7.506 7.506 0 0 1-2.227-3.977c-.03-.148-.054-.297-.078-.441a1.285 1.285 0 0 1 1.414-1.454l3.36.372a1.29 1.29 0 0 1 1.027 1.812l-1.469 3.258c-.359.793-1.394 1.023-2.027.43zm9.129.886a7.483 7.483 0 0 1-2.469.992c-.902.188-1.8.204-2.66.07-.836-.128-1.312-1.03-.965-1.8l1.516-3.36a1.285 1.285 0 0 1 2.035-.425l2.719 2.484c.625.57.543 1.586-.176 2.04zm2.906-3.379c-.347.797-1.39.996-2.031.41l-2.64-2.41a1.288 1.288 0 0 1 .23-2.07l2.93-1.676c.726-.414 1.66-.039 1.874.77a7.541 7.541 0 0 1-.363 4.977zm-6.176-10.515a7.525 7.525 0 0 1 4.13 1.742c.683.578.59 1.664-.192 2.11l-2.777 1.59c-.758.433-1.715 0-1.895-.86l-.625-3.035c-.176-.84.508-1.63 1.36-1.547zm-7.453 4.144a7.526 7.526 0 0 1 3.102-3.242c.75-.414 1.687.04 1.86.879l.628 3.035a1.29 1.29 0 0 1-1.402 1.54l-3.18-.352a1.29 1.29 0 0 1-1.008-1.86zm-2.285 4.625c.774 5.461 6.125 8.989 11.438 7.531 4.379-1.199 7.234-5.554 6.597-10.062-.773-5.465-6.125-8.988-11.437-7.531-4.38 1.199-7.235 5.554-6.598 10.062"/><path fill="#e7e6e8" d="M110.863 121.027c-1.57 2.95-.21 6.59 2.903 7.778 2.57.984 5.515-.125 6.812-2.555 1.57-2.945.211-6.586-2.902-7.773-2.57-.985-5.52.12-6.813 2.55"/><path fill="#433057" d="M47.113 137.867c-.84-4.078 1.774-8.07 5.844-8.91 4.066-.844 8.047 1.777 8.887 5.856.843 4.074-1.774 8.062-5.84 8.91a7.526 7.526 0 0 1-8.89-5.856zm-6.175 1.278c1.546 7.5 8.863 12.32 16.343 10.77 7.48-1.552 12.29-8.888 10.742-16.384-1.546-7.496-8.867-12.316-16.343-10.77-7.48 1.552-12.29 8.887-10.742 16.384"/><path fill="#bcb9bf" d="M49.34 141.844a7.52 7.52 0 0 1-2.227-3.977c-.027-.148-.054-.297-.074-.445-.125-.828.582-1.543 1.414-1.453l3.356.375a1.287 1.287 0 0 1 1.03 1.808l-1.472 3.262c-.355.79-1.39 1.024-2.027.43zm9.133.883a7.558 7.558 0 0 1-2.47.996c-.901.183-1.8.203-2.66.07a1.288 1.288 0 0 1-.964-1.805l1.512-3.36a1.283 1.283 0 0 1 2.035-.421l2.719 2.48c.625.57.542 1.59-.172 2.04zm2.902-3.38c-.348.798-1.39.997-2.031.41l-2.637-2.405a1.287 1.287 0 0 1 .227-2.07l2.933-1.68a1.282 1.282 0 0 1 1.875.77c.04.144.07.292.102.44a7.503 7.503 0 0 1-.469 4.536zm-6.176-10.515c1.54.148 2.973.77 4.13 1.746.683.578.589 1.664-.188 2.106l-2.778 1.59c-.761.433-1.718 0-1.894-.856l-.63-3.04c-.171-.839.509-1.624 1.36-1.546zm-7.453 4.145a7.556 7.556 0 0 1 3.106-3.243c.746-.414 1.683.04 1.855.88l.629 3.034c.176.86-.535 1.641-1.398 1.543l-3.18-.351a1.295 1.295 0 0 1-1.012-1.863zm-2.285 4.625c.773 5.464 6.129 8.988 11.437 7.535 4.38-1.203 7.235-5.559 6.598-10.063-.773-5.465-6.125-8.992-11.437-7.535-4.375 1.203-7.235 5.559-6.598 10.063"/><path fill="#433057" d="M49.625 133.727c-1.57 2.949-.21 6.585 2.898 7.777 2.57.98 5.52-.125 6.813-2.555a5.53 5.53 0 0 0-2.902-7.777c-2.567-.98-5.516.125-6.809 2.555M103.074 108.809l10.598 16.472a2.493 2.493 0 0 0 3.43.766 2.501 2.501 0 0 0 .898-3.25l-10.71-21.277-4.216 7.289"/><path fill="#ee4858" d="m33.254 96.316 4.004 19.387-26.57 5.508-2.985-14.473-.02-.093a8.88 8.88 0 0 1-.156-1.457c-.082-4.008 2.688-7.63 6.746-8.47l14.899-3.09a3.451 3.451 0 0 1 4.082 2.688"/><path fill="#e3394a" d="m33.957 99.707.293 1.43-26.566 5.508a8.88 8.88 0 0 1-.157-1.457l26.43-5.481"/><g clip-path="url(#a)"><path fill="#ee4858" d="m110.52 102.844 6.996 1.476a17.09 17.09 0 0 1 7.214 3.426l4.5 3.629a2.556 2.556 0 0 1 .625 3.23 2.544 2.544 0 0 1-2.183 1.301l-7.86.102c-3.519.047-6.972.957-10.062 2.648l-7.96 4.364 8.73-20.176"/></g><path fill="#433057" d="m39.484 114.66-28.879 5.988a1.241 1.241 0 0 0-.964 1.473 1.241 1.241 0 0 0 1.324.988l27.969-2.507.55-5.942"/><path fill="#ee4858" d="m113.395 102.86-9.727 19.769-.004.008-1.266 2.574a8.256 8.256 0 0 1-5.734 4.445l-59.855 12.41a2.615 2.615 0 0 1-2.907-1.46c-.05-.098-.086-.2-.125-.305l-1.12-3.492a21.723 21.723 0 0 1-.083-13.051l.004-.008a21.78 21.78 0 0 1 1.637-3.914l4.644-8.606 38.246-7.925-1.496 3.824-1.214 3.101a13.106 13.106 0 0 0 .261 10.149l.801 1.773a6.118 6.118 0 0 0 6.48 3.535l7.547-.992a16.443 16.443 0 0 0 12.586-9.629 5.261 5.261 0 0 0-.25-4.73l-11.847-20.61-.008-.007-1.262-2.2c-.46-.8-.305-1.816.375-2.44l2.176-2a2.664 2.664 0 0 1 3.457-.118l17.332 13.848a4.953 4.953 0 0 1 1.352 6.05"/><path fill="#e3394a" d="M102.352 114.25a5.261 5.261 0 0 0-.532-3.914l-11.847-20.61 12.515 17.188a5.294 5.294 0 0 1 .723 4.848l-.86 2.488M103.66 122.637l-1.265 2.574a8.258 8.258 0 0 1-5.73 4.445l-59.856 12.41a2.615 2.615 0 0 1-2.907-1.46c13.344-2.766 57.598-11.934 61.496-12.75 4.536-.958 7.375-3.43 8.262-5.22M38.86 111.23l-4.645 8.606c3.484-6.168 11.742-9.324 22.258-11.059 7.644-1.109 14.16-1.53 19.136-1.648l1.496-3.824-38.246 7.925"/><path fill="#433057" d="m38.86 111.23.683-7.992a10.198 10.198 0 0 1 5.402-8.156 11.97 11.97 0 0 1 9.184-.828l5.351 1.683c2.727.86 5.66.797 8.348-.18l3.129-1.136a5.547 5.547 0 0 1 6.402 1.984l2.149 2.993c1.05 1.46.238 3.52-1.524 3.867L38.86 111.23"/><path fill="#ee4858" d="m88.137 83.637 3.14-2.63c.352-.296.586-.698.7-1.144.18-.703.753-1.8 2.562-2.25 1.106-.27 1.773-1.402 1.543-2.52l-1.39-6.734a2.157 2.157 0 0 0-2.547-1.68l-5.118 1.063c-4.082.848-6.293 5.301-4.504 9.074l2.95 6.239a1.722 1.722 0 0 0 2.664.582"/><path fill="#e3394a" d="M71.492 135.148c.52-.101.926-.507 1.028-1.027.613-3.105 2.082-13.687-5.633-16.601-8.742-3.305-27.73 6.78-30.469 22.746a1.308 1.308 0 0 0 1.539 1.5l33.535-6.618"/><path fill="#ee4858" d="M69.867 135.488c.469-.093.824-.488.906-1.004.493-3.082 1.602-13.586-5.414-16.648-7.949-3.469-24.859 6.184-27.004 22.027-.117.895.622 1.684 1.422 1.524l30.09-5.899"/><path fill="#e3394a" d="m112.129 105.426-8.031 16.328 5.12-2.805zM56.418 126.086l-6.645 1.375a.432.432 0 0 1-.515-.34.434.434 0 0 1 .34-.516l6.644-1.378a.435.435 0 0 1 .516.34.437.437 0 0 1-.34.519M56.723 127.555l-6.649 1.382a.438.438 0 0 1-.176-.86l6.649-1.378a.435.435 0 0 1 .516.34.435.435 0 0 1-.34.516M57.027 129.027l-6.644 1.38a.441.441 0 0 1-.52-.34.437.437 0 0 1 .34-.516l6.649-1.38a.435.435 0 0 1 .515.34.44.44 0 0 1-.34.516"/><path fill="#f7c958" d="M108.04 101.852c.151.742-.688 1.546-1.88 1.793-1.187.25-2.277-.157-2.43-.899-.156-.746.684-1.547 1.875-1.797 1.192-.246 2.282.156 2.434.903M95.922 77.438a.944.944 0 0 1-1.121-.735l-2.051-9.937a.948.948 0 1 1 1.855-.383l2.051 9.933a.944.944 0 0 1-.734 1.121"/><path fill="#433057" d="m91.395 74.973-3.31 2.265a1.276 1.276 0 0 1-1.772-.336 1.281 1.281 0 0 1 .332-1.773l3.312-2.266a1.27 1.27 0 0 1 1.77.332 1.282 1.282 0 0 1-.332 1.778"/><path fill="#f7c958" d="M88.523 70.867a.523.523 0 0 1-.62-.406l-.723-3.504a3.195 3.195 0 0 0-3.77-2.484l-.426.09a.526.526 0 0 1-.62-.407.526.526 0 0 1 .406-.62l.43-.09c2.284-.477 4.53 1.003 5.003 3.3l.723 3.504a.517.517 0 0 1-.403.617"/><path fill="#f7c958" d="M83.23 63.973c.368 1.777-.21 3.402-1.296 3.625-1.082.226-2.258-1.035-2.625-2.809-.368-1.777.214-3.402 1.3-3.625 1.082-.227 2.258 1.031 2.621 2.809"/><path fill="#634936" d="M52.684 49.297s1.125 2.437 4.453 3.027c3.336.594 1.261-7.082 1.261-7.082l-5.714 4.055"/><path fill="#f7c4a3" d="m93.371 122.668-6.344 1.316-1.312-6.363 6.344-1.312 1.312 6.359"/><path fill="#383042" d="M53.105 90.531a1.102 1.102 0 0 1 1.04-1.328l12.976-.492c3.27-.125 6.543-.25 9.813-.371 2.582-.102 6.171-.86 8.558.187 5.473 2.391 5.113 10.684 5.871 15.645.668 4.355 1.328 8.71 1.996 13.066a1.11 1.11 0 0 1-.867 1.254l-6.148 1.27a1.095 1.095 0 0 1-1.297-.84l-4.016-18.184-.02-.136c-.152-1.594-.32-2.579-1.843-2.254-.055.011-.11.02-.164.023-5.938.348-11.875.738-17.809 1.137-1.566.105-3.207.008-4.593-.727-3.13-1.656-2.88-5.25-3.497-8.25"/><path fill="#ee4858" d="m55.148 54.695 6.055 3.2c1.043.55 2.305 1.02 3.258 1.722 3.02 2.223 3.484 7.117 4.46 10.461 1.153 3.934 2.31 7.871 3.462 11.805.113.387 1.742 6.5 1.894 6.48l-21.215 2.95a.681.681 0 0 1-.769-.622c-.398-5.367-.879-10.726-1.367-16.086-.438-4.765-1.32-9.796.25-14.453.773-2.293 2.289-3.828 3.972-5.457"/><path fill="#f7c4a3" d="m55.918 48.59-.379 5.652 7.832 3.828-1.531-8.492-5.922-.988"/><path fill="#f7c4a3" d="M69.34 42.852c1.074 5.183-1.262 8.847-4.004 9.988-5.691 2.367-11.813-2.352-12.883-7.535-1.07-5.18 2.254-10.25 7.426-11.325 5.168-1.07 8.394 3.692 9.46 8.872"/><path fill="#e3394a" d="m55.246 52.719-.918 2.86 11.3 5.452a.284.284 0 0 0 .407-.304l-.476-2.977a2.45 2.45 0 0 0-1.602-1.926l-8.71-3.105"/><path fill="#f7c4a3" d="m57.184 67.04 8.52 9.968a3.253 3.253 0 0 0 3.019 1.691l14.43-2.023a6.841 6.841 0 0 0 1.679-.305c1.695-.527 3.387-.527 5.063.125a.489.489 0 0 0 .57-.144l.55-.7a.49.49 0 0 0-.054-.668c-.73-.66-2.602-2.12-4.895-2.062-2.96.074-16.043.496-16.043.496l-8.507-10.43-4.332 4.051"/><path fill="#e3394a" d="m55.828 67.016 4.766 6.515a.64.64 0 0 0 .949.09l5.754-5.39a.512.512 0 0 0 .023-.723l-5.757-6.04a3.972 3.972 0 0 0-6.738 1.973l-.005.028a3.982 3.982 0 0 0 1.008 3.547"/><path fill="#fff5e8" d="M101.09 122.703c.531 2.297-9.238 3.742-12.754 4.188a1.334 1.334 0 0 1-1.477-1.075l-.457-2.324a.71.71 0 0 1 .149-.601.665.665 0 0 1 .383-.223.588.588 0 0 1 .234-.008c.95.153 3.602.348 5.898-1.648 0 0 6.512-.98 7.832 1.222.09.141.157.297.192.47"/><path fill="#383042" d="M100.898 122.234c-.625 1.989-9.925 3.575-13.882 4.121a1.306 1.306 0 0 1-.223-.523l-.461-2.328a.721.721 0 0 1 .152-.598.683.683 0 0 1 .621-.234c.954.152 3.618.344 5.926-1.652 0 0 6.54-.989 7.867 1.214"/><path fill="#fff5e8" d="M96.457 120.8s-.871 1.684.008 3.813c0 0 3.402-.304 4.558-2.129 0 0-.382-2.082-4.566-1.683"/><path fill="#f7c4a3" d="M56.477 48.086a2.395 2.395 0 0 1-1.856 2.832 2.388 2.388 0 0 1-2.824-1.86 2.394 2.394 0 0 1 1.855-2.831 2.386 2.386 0 0 1 2.825 1.859"/><path fill="#634936" d="M51.215 40.488s-.73 4.465.793 6.996c0 0 1.355-.964 1.824-.379.473.59 1.016 2 2.086 1.485 1.066-.52-.379-5.266.2-6.078.573-.809-4.903-2.024-4.903-2.024M61.059 41.176S66 44.875 71.527 41.09c.223-.153.133-.504-.136-.52-.649-.035-1.52-.261-2.204-1.082-1.269-1.511-6.359-1.39-7.585-.574-1.227.813-.543 2.262-.543 2.262"/><path fill="#e3394a" d="m55.84 43.535-4.555-.242c-.691.031-.785-.297-.883-.984-.332-2.368-1.601-8.778 4.907-11.036 5.515-1.914 8.187-1.84 10.394.079 2.203 1.921 3.535 6.941 3.535 6.941-5.91-1.164-10.18.98-13.398 5.242"/><path fill="#ee4858" d="M70.508 40.398c-.781.258-1.91-.992-2.403-1.207-1.265-.554-2.52-.414-3.718.047l-.063.024c-1.422.558-2.758 1.558-3.926 2.383-.566.394-1.125.792-1.695 1.164-.672.441-1.418.898-2.219.832a1.671 1.671 0 0 1-.254-.032c-1.125-.226-1.402-1.386-.914-2.273 2.207-4.004 8.836-5.977 12.989-3.93.199.098.816.477 1.406.938l.012.008c.144.113.297.238.433.363l.004.008.016.007c.351.317.64.649.754.934v.004c.129.316.035.582-.422.73"/><path fill="#f16976" d="M70.508 40.398c-.781.258-1.91-.992-2.403-1.207-1.265-.554-2.52-.414-3.718.047l-.063.024c-1.422.558-2.758 1.558-3.926 2.383-.566.394-1.125.792-1.695 1.164-.672.441-1.418.898-2.219.832a1.671 1.671 0 0 1-.254-.032c.805 0 2.243-2.062 5.153-3.73 2.719-1.555 6.125-3.102 8.328-1.535l.012.008c.148.105.297.23.433.363l.004.008.016.007c.277.286.531.598.754.934v.004c.129.316.035.582-.422.73"/><path fill="#e3394a" d="M70.508 40.398c-.781.258-1.91-.992-2.403-1.207-1.265-.554-2.52-.414-3.718.047 2.46-.992 4.73-1.34 6.12 1.16"/><path fill="#f4b185" d="M62.543 53.46s-2.465.345-3.922-.773c0 0 .64 1.043 4.133 1.958l-.211-1.184"/><path fill="#524b5b" d="M123.707 29.969h-.238c-.371 0-.723.07-1.051.195v21.398c.328.126.68.196 1.05.196h.239c1.711 0 3.098-1.453 3.098-3.246V33.215c0-1.793-1.387-3.246-3.098-3.246M124.281 55.871h-1.39c-.16 0-.32.02-.473.05v13.774c.152.032.312.047.473.047h1.39c1.395 0 2.524-1.18 2.524-2.64v-8.59c0-1.457-1.13-2.64-2.524-2.64M37.855 44.613h-1.28a2.583 2.583 0 0 1-2.583-2.586v-8.703a2.586 2.586 0 0 1 2.582-2.586h1.281a2.582 2.582 0 0 1 2.575 2.586v8.703a2.579 2.579 0 0 1-2.575 2.586"/><g clip-path="url(#b)"><path fill="#524b5b" d="m124.73 107.746.247.2V7.562c0-4-3.094-7.235-6.918-7.235H43.035c-3.82 0-6.91 3.235-6.91 7.234v145.27c0 3.988 3.09 7.23 6.91 7.23h75.024c3.824 0 6.918-3.242 6.918-7.23v-18.89a13.609 13.609 0 0 1-4.274 2.632v9.332c0 2.614-1.988 4.727-4.433 4.727H44.84c-2.445 0-4.434-2.113-4.434-4.727V15.04c0-2.617 1.989-4.734 4.434-4.734h71.43c2.445 0 4.433 2.117 4.433 4.734v90.29a17.183 17.183 0 0 1 4.027 2.417"/></g></svg>