<svg xmlns="http://www.w3.org/2000/svg" xmlns:xlink="http://www.w3.org/1999/xlink" width="433" zoomAndPan="magnify" viewBox="0 0 324.75 323.999988" height="432" preserveAspectRatio="xMidYMid meet" version="1.0"><defs><clipPath id="01aec669e7"><path d="M 0.585938 0.125 L 324.339844 0.125 L 324.339844 323.875 L 0.585938 323.875 Z M 0.585938 0.125 " clip-rule="nonzero"/></clipPath><clipPath id="871a494fab"><path d="M 131 49 L 275 49 L 275 323.875 L 131 323.875 Z M 131 49 " clip-rule="nonzero"/></clipPath></defs><g clip-path="url(#01aec669e7)"><path fill="#3d5a98" d="M 306.445312 323.851562 C 316.3125 323.851562 324.3125 315.851562 324.3125 305.984375 L 324.3125 17.992188 C 324.3125 8.121094 316.3125 0.125 306.445312 0.125 L 18.453125 0.125 C 8.582031 0.125 0.585938 8.121094 0.585938 17.992188 L 0.585938 305.984375 C 0.585938 315.851562 8.582031 323.851562 18.453125 323.851562 Z M 306.445312 323.851562 " fill-opacity="1" fill-rule="nonzero"/></g><g clip-path="url(#871a494fab)"><path fill="#ffffff" d="M 223.953125 323.851562 L 223.953125 198.488281 L 266.03125 198.488281 L 272.332031 149.632812 L 223.953125 149.632812 L 223.953125 118.4375 C 223.953125 104.292969 227.878906 94.652344 248.164062 94.652344 L 274.035156 94.640625 L 274.035156 50.945312 C 269.5625 50.347656 254.203125 49.019531 236.335938 49.019531 C 199.035156 49.019531 173.5 71.785156 173.5 113.601562 L 173.5 149.628906 L 131.3125 149.628906 L 131.3125 198.488281 L 173.5 198.488281 L 173.5 323.851562 Z M 223.953125 323.851562 " fill-opacity="1" fill-rule="nonzero"/></g></svg>