<svg xmlns="http://www.w3.org/2000/svg" width="1081" viewBox="0 0 810.75 534" height="712" version="1.0"><defs><clipPath id="a"><path d="M1.52 208H809.03v140H1.52zm0 0"/></clipPath><clipPath id="b"><path d="M130 .004h550V231H130zm0 0"/></clipPath><clipPath id="c"><path d="M129 325h549v207.254H129zm0 0"/></clipPath></defs><g clip-path="url(#a)"><path fill="#e5bb5c" d="m113.805 304.32-62.989 10.7c-11.32 1.906-19.898 2.035-30.199-2.168-12.066-4.918-18.91-20.032-19.097-35.13-.172-14.495 5.77-28.976 19.097-34.413 10.387-4.243 19.082-4.043 30.188-2.164l63 10.695a35.302 35.302 0 0 1 10.558 15.156 35.495 35.495 0 0 1 1.766 16.649c-.07.773.36 1.246.875 1.347.547.102 1.148-.199 1.379-.96 1.836-6.31 2.094-12.805.715-19.216a38.563 38.563 0 0 0-9.528-18.093 38.527 38.527 0 0 1 12.856-6.051c3.687-.961 7.176-1.29 10.965-1.234 1.23-8.56 5.55-16.188 11.793-21.665 6.285-5.52 14.52-8.875 23.5-8.875h453.168c8.867 0 17.003 3.27 23.246 8.645 6.382 5.508 10.8 13.207 12.066 21.894 4.305-.07 8.219.387 12.367 1.637 4.145 1.246 7.992 3.184 11.434 5.649a38.59 38.59 0 0 0-9.008 16.015 38.664 38.664 0 0 0-.504 18.598c.23 1.004.945 1.406 1.594 1.289.617-.098 1.16-.672 1.101-1.574a35.748 35.748 0 0 1 2.93-16.305 35.207 35.207 0 0 1 9.656-12.906l62.985-10.695c11.32-1.907 19.902-2.036 30.203 2.164 12.152 4.949 19.008 20.246 19.094 35.445.09 14.398-5.868 28.707-19.094 34.098-10.39 4.246-19.082 4.043-30.188 2.168l-63-10.7a38.442 38.442 0 0 1-11.507 8.547c-6.012 2.926-11.45 3.856-18.063 3.856a56.515 56.515 0 0 1-15.023-26.813 56.703 56.703 0 0 1 1.234-30.77c.328-1.046-.07-1.777-.688-2.007-.605-.23-1.394.058-1.882.988-5.696 10.871-7.805 23.102-6.024 35.246 1.965 13.406 8.653 25.664 18.75 34.598-2.465 4.762-5.996 8.89-10.226 12.101-5.985 4.52-13.418 7.215-21.453 7.215H178.684c-7.473 0-14.434-2.34-20.188-6.308-4.805-3.328-8.781-7.79-11.492-13.008a57.484 57.484 0 0 0 18.508-33.035c2.226-12.762.117-25.926-6.055-37.34-.5-.902-1.32-1.133-1.89-.844-.532.274-.88.988-.532 2.02a56.599 56.599 0 0 1 .945 32.765 56.447 56.447 0 0 1-14.59 25.192c-5.624.101-11.019-.871-15.968-2.91-5.067-2.063-9.688-5.247-13.617-9.493" fill-rule="evenodd"/></g><g clip-path="url(#b)"><path fill="#f56600" d="M679.988 230.277c-3.242-5.207-8.363-17.191-21.492-24.937-5.808-3.426-13.215-6.035-22.695-6.852-9.63-27.832-24.09-53.254-42.817-75.91-2.18-2.637-3.773-5.406-4.074-8.23-.258-2.508.488-5.063 2.797-7.641 3.461-3.473 6.945-6.941 10.418-10.41 2.125-1.895 4.535-2.785 6.914-2.828 3.2-.043 6.371 1.48 8.77 4.304a278.467 278.467 0 0 1 38.636 59.247 276.978 276.978 0 0 1 23.543 73.257zM583.73 64.047c-20.875-17.39-44.32-31.8-69.683-42.559A276.362 276.362 0 0 0 428.504.426c-3.414-.274-6.598.59-8.895 2.426-2.265 1.789-3.703 4.53-3.757 8.058v9.692c0 4.214.859 7.828 2.898 10.437 1.922 2.469 4.906 4.016 9.18 4.402 25.082 2.336 49.37 8.446 72.183 18.067 22.11 9.336 42.844 21.996 61.594 37.652 2.7 2.254 5.555 3.098 8.324 2.899 3.227-.23 6.356-1.938 9.04-4.602L586.515 82c2.41-3.082 3.113-6.41 2.511-9.55-.605-3.126-2.511-6.067-5.297-8.403zm-356.925 0c-2.782 2.336-4.692 5.277-5.293 8.402-.602 3.14.101 6.469 2.511 9.551l7.446 7.457c2.683 2.664 5.812 4.371 9.039 4.602 2.77.199 5.625-.645 8.32-2.899 17.852-14.894 37.492-27.097 58.41-36.273 23.73-10.426 49.114-17.008 75.367-19.446 4.278-.386 7.262-1.933 9.184-4.402 2.04-2.61 2.914-6.223 2.914-10.437V10.91c-.058-3.527-1.508-6.27-3.773-8.058-2.297-1.836-5.48-2.7-8.899-2.426a276.572 276.572 0 0 0-85.984 21.25 279.18 279.18 0 0 0-69.242 42.37zm-96.243 166.23a276.366 276.366 0 0 1 24.391-75.007 277.66 277.66 0 0 1 37.777-57.497c2.395-2.824 5.567-4.347 8.782-4.304 2.367.043 4.777.933 6.902 2.828 3.469 3.469 6.957 6.937 10.414 10.41 2.313 2.578 3.07 5.133 2.797 7.64-.3 2.825-1.89 5.594-4.074 8.231-18.723 22.656-33.184 48.078-42.813 75.91-10.402.903-18.293 3.942-24.347 7.871-11.91 7.743-16.743 18.926-19.828 23.918" fill-rule="evenodd"/></g><g clip-path="url(#c)"><path fill="#ffe07d" d="M513.082 459.367c.461-1.765-.285-2.984-1.305-3.258-.96-.257-2.18.36-2.797 2.137-.574 1.68-1.293 3.129-2.109 4.348-1.406 2.12-3.14 3.613-5.11 4.617-2.163 1.09-4.562 1.605-6.972 1.762-3.168.23-6.441-.102-9.566-.618-3.848-.617-7.766-1.59-11.422-2.492-5.54-1.379-10.95-2.511-16.602-3.386-3.387-.516-6.758-.961-10.113-1.29a2.105 2.105 0 0 0-2.297 1.891c-.113 1.035.547 1.953 1.508 2.238 3.125.891 6.183 1.895 9.195 2.926 5.567 1.922 11.004 4.028 16.516 6.051 4.676 1.719 9.367 3.469 14.219 4.719 3.328.87 7.015 1.633 10.488 1.347 3.285-.257 5.91-1.593 8.219-3.687 1.808-1.649 3.128-3.41 4.218-5.461.977-1.852 1.692-3.785 2.309-5.793.605-1.992 1.094-4.031 1.621-6.05zM254.957 432.61c2.711.66 5.266 1.563 7.773 2.77 3.102 1.488 6.086 3.426 8.61 5.734 2.828 2.567 5.223 5.578 7.16 8.848 2.613 4.414 4.406 9.203 6.098 14.066 2.84 8.215 5.238 16.676 8.851 24.59 4.692 10.281 11.106 18.54 21.926 19.656 9.426.993 16.77-3.265 23.715-9.273 5.512-4.777 10.101-10.238 15.281-15.285 2.695-2.625 5.496-5.008 8.047-6.297.977-.488 1.45-1.074 1.437-1.547-.03-.531-.675-.918-1.91-.918-4.734 0-8.91 1.563-12.738 3.871-5.394 3.281-9.945 7.887-14.723 12-4.648 3.988-10.015 8.262-16.558 6.524-6.153-1.66-10.66-7.926-13.586-13.203-4.707-8.477-6.63-15.774-8.508-22.899-1.422-5.394-2.926-10.898-5.25-16.004-2.254-4.945-5.254-9.379-9.328-13.02a33.593 33.593 0 0 0-7.918-5.347 34.96 34.96 0 0 0-8.54-2.824c-2.968-.59-5.925-.832-8.952-.79-3.844.044-8.031.544-11.563 1.65-2.64.831-5.222 2.066-7.187 4.058-.906.93-1.38 1.976-1.106 2.652.23.586 1.047.902 2.657.574 2.238-.43 4.46-.675 6.683-.703 3.285-.043 6.43.344 9.629 1.117zm422.578-106.175c-4.305 17.648-12.394 31.3-22.781 41.453-12.543 12.258-28.426 19.398-44.953 22.25-6.242 1.09-10.516 2.597-13.344 5.265-3.629 3.453-4.879 8.844-4.777 17.793.144 12.016-1.52 19.875-6.082 24.235-4.535 4.3-11.91 5.218-23.23 3.382-8.923-1.433-15.009-.472-19.356 2.25-7.188 4.489-9.7 13.793-12.598 25.008-2.566 9.907-6.93 18.797-16.297 25.493-12.898 9.207-27.46 6.05-43.344.472-20.906-7.355-41.523-17.433-64.293-13.16-13.773 2.578-28.062 10.496-42.726 27.703-16.227 19.027-37.16 26.512-55.711 22.84-17.406-3.441-32.727-16.746-40.016-39.602-3.53-11.058-5.695-25.84-13.359-32.808-4.36-3.957-10.516-5.39-19.742-2.18-12.352 4.317-23.918 1.606-30.934-5.39-5.754-5.723-8.476-14.297-6.195-24.247 2.223-8.52.918-16.09-2.684-22.554-4.234-7.645-11.664-13.782-20.203-18.157-10.547-5.433-20.43-12.285-28.71-23.097-7.044-9.219-12.942-21.309-17.087-37.856 3.2 4.52 8.121 16.547 20.59 24.578 6.973 4.489 16.297 7.743 28.98 7.743h453.169c12.554 0 21.695-3.93 28.382-9.02 10.715-8.172 15.164-19.387 17.301-22.394" fill-rule="evenodd"/></g><path fill="#ffac28" d="M415.852 198.328h54.277l76.543-76.512c2.496-2.492 3.5-5.53 3.226-8.515-.27-3.082-1.949-6.11-4.746-8.375-15.984-12.903-33.804-23.672-52.988-31.801a221.215 221.215 0 0 0-59.945-15.973c-4.95-.59-8.906.801-11.692 3.47-3.043 2.937-4.675 7.413-4.675 12.558zm-21.149 0H340.41l-76.543-76.512c-2.496-2.492-3.504-5.53-3.23-8.515.273-3.082 1.953-6.11 4.75-8.375a222.707 222.707 0 0 1 53.832-32.16 221.247 221.247 0 0 1 59.097-15.614c4.95-.59 8.91.801 11.696 3.47 3.039 2.937 4.691 7.413 4.691 12.558zm-162.387-60.422c-14.648 18.024-26.53 38.371-34.996 60.422h113.192l-59.215-59.176c-2.984-2.98-6.383-5.047-9.828-5.347-3.098-.274-6.254.89-9.153 4.101zm345.907 0c14.648 18.024 26.527 38.371 34.992 60.422H500.027l59.211-59.176c2.985-2.98 6.387-5.047 9.828-5.347 3.102-.274 6.258.89 9.157 4.101" fill-rule="evenodd"/><path fill="#fff" d="M370.066 79.836a18.53 18.53 0 0 1 9.672 11.168 18.526 18.526 0 0 1-.976 13.637c-2.223 4.601-4.262 4.058-6.887 1.804-1.723-1.476-3.688-3.668-6.113-5.648-.274 6.41-.832 13.336-2.996 17.894-2.211 4.676-6.141 6.856-13.188 3.414-7.918-3.87-8.406-8.59-5.61-13.406 2.454-4.23 7.446-8.547 12.212-12.445-3.07-.66-6-.82-8.196-1.25-3.296-.645-4.918-1.922-2.738-6.465a18.488 18.488 0 0 1 10.59-9.48 18.599 18.599 0 0 1 14.23.777zm-143.445 91.852a16.124 16.124 0 0 0 2.164 11.73 16.253 16.253 0 0 0 10.66 7.328c4.778.918 5.168-1.176 4.793-4.703-.187-1.824-.59-4.031-.687-6.41 4.82 3.297 10.187 6.652 14.605 7.355 4.203.66 7.559-1.074 8.781-7.543 1.29-6.867-1.105-9.82-5.18-10.726-4.347-.961-10.616.402-16.386 1.836 1.02-2.223 2.27-4.172 3.129-5.82 1.535-2.954 1.809-4.962-2.828-5.864-4.762-.934-9.453.328-13.027 3.066a16.16 16.16 0 0 0-6.024 9.75zm213.621 7.171c3.34 2.739 7.461 3.899 11.461 3.598a16.213 16.213 0 0 0 11.395-5.937c2.812-3.454 1.62-4.86-1.121-6.106-1.809-.805-4.29-1.55-6.758-2.742 4.949-2.578 10.215-5.59 13.015-8.973 2.91-3.5 3.2-7.43-2.152-11.73-5.523-4.43-9.285-3.63-12.012-.36-2.84 3.399-4.562 9.493-6.011 15.184-1.477-1.95-2.61-3.969-3.657-5.504-1.894-2.738-3.53-3.914-6.515-.258-2.61 3.211-3.801 7.14-3.63 10.985.216 4.457 2.24 8.8 5.985 11.843" fill-rule="evenodd"/><path fill="#f70000" d="M584.605 167.531c0-7.457-6.054-13.508-13.515-13.508-7.473 0-13.516 6.051-13.516 13.508 0 7.453 6.043 13.508 13.516 13.508 7.46 0 13.515-6.055 13.515-13.508zm-70.703-42.172c0-9.277-7.52-16.789-16.8-16.789-9.27 0-16.79 7.512-16.79 16.79 0 9.277 7.52 16.792 16.79 16.792 9.28 0 16.8-7.515 16.8-16.793zm-44.695-34.011c0-7.457-6.039-13.508-13.516-13.508-7.457 0-13.511 6.05-13.511 13.508 0 7.472 6.054 13.507 13.511 13.507 7.477 0 13.516-6.035 13.516-13.507zm-120.95 74.847c0-7.453 6.055-13.504 13.516-13.504s13.516 6.051 13.516 13.504c0 7.457-6.055 13.508-13.516 13.508-7.46 0-13.515-6.05-13.515-13.508zm-55.452-42.37c0-9.263 7.52-16.774 16.8-16.774 9.27 0 16.79 7.511 16.79 16.773 0 9.278-7.52 16.793-16.79 16.793-9.28 0-16.8-7.515-16.8-16.793zm256.406 59.679c0-4.445-3.602-8.043-8.063-8.043a8.043 8.043 0 0 0-8.05 8.043 8.049 8.049 0 0 0 8.05 8.059 8.051 8.051 0 0 0 8.063-8.06" fill-rule="evenodd"/></svg>