<svg xmlns="http://www.w3.org/2000/svg" width="238" viewBox="0 0 178.5 156" height="208" version="1.0"><defs><clipPath id="a"><path d="M150 101h27.281v29H150zm0 0"/></clipPath><clipPath id="b"><path d="M.027 77H42v7H.027zm0 0"/></clipPath><clipPath id="c"><path d="M12 .926h23V25H12zm0 0"/></clipPath><clipPath id="d"><path d="M56 120h14v35.738H56zm0 0"/></clipPath></defs><path d="M150.332 80.152c.027-.347-.32-.8-.668-.855-.562-.11-1.125-.242-1.684-.27-2.195-.105-4.386-.375-6.605-.375-2.887 0-5.773 0-8.66-.32-1.633-.187-3.262-.293-4.895-.457a47.344 47.344 0 0 1-3.367-.453c-2.004-.348-4.012-.75-6.016-1.125-3.128-.563-6.175-1.367-9.195-2.305-3.262-1.015-6.336-2.437-9.387-3.91-.718-.348-1.363-.805-2.058-1.203a1.606 1.606 0 0 1-.559-.617c-.91-1.903-1.5-3.883-1.5-6.055-.023-3.937.43-7.82 1.153-11.652.906-4.848 1.976-9.668 3.074-14.461 1.254-5.465 2.433-10.957 3.422-16.473.16-.832.265-1.687.398-2.52 0-.105 0-.214-.023-.347-.082-.508-.348-.832-.832-.992-.426-.16-.774 0-1.067.297-.187.214-.375.425-.535.668-.32.535-.64 1.07-.91 1.632l-6.414 13.5c-2.809 5.946-5.723 11.813-8.879 17.598-1.066 1.93-2.164 3.86-3.395 5.707-1.496 2.277-3.261 4.34-5.21 6.238-.27.27-.563.352-.91.325-2.274-.16-4.493-.536-6.712-1.047-3.476-.801-6.843-1.98-10.105-3.403-4.68-2.035-9.145-4.445-13.473-7.148-2.113-1.313-4.199-2.68-6.285-4.02-2.457-1.605-4.918-3.242-7.379-4.847-.8-.535-1.629-1.02-2.457-1.528-.242-.132-.508-.242-.777-.265a.805.805 0 0 0-.856.398c-.16.27-.16.7.055.938.266.297.563.562.856.804.96.778 1.976 1.528 2.914 2.332 2.699 2.329 5.347 4.739 7.859 7.286 1.203 1.203 2.434 2.355 3.637 3.59 2.324 2.328 4.652 4.632 6.898 7.042 4.625 4.93 8.633 10.34 12.695 15.723.215.27.403.563.563.856.082.136.11.324.11.484 0 .215-.055.453-.11.668-.8 2.84-1.898 5.574-3.527 8.062a53.713 53.713 0 0 1-4.598 6.11c-2.328 2.648-4.84 5.086-7.516 7.39a330.941 330.941 0 0 1-8.207 6.883c-4.09 3.324-8.234 6.59-12.324 9.887-.426.348-.855.723-1.258 1.148-.183.188-.32.457-.425.727-.16.32.054.723.402.8.265.055.558.11.828.055.586-.16 1.203-.347 1.766-.59 1.87-.777 3.742-1.578 5.558-2.542 4.04-2.145 8.047-4.368 11.977-6.75 2.46-1.5 4.945-3 7.433-4.45 3.825-2.222 7.727-4.23 11.871-5.785 2.645-.988 5.344-1.847 8.125-2.383a19.41 19.41 0 0 1 1.684-.242 2.94 2.94 0 0 1 2.086.563c.535.402 1.098.832 1.55 1.312 2.192 2.227 4.2 4.61 5.75 7.34.56.992 1.122 1.957 1.657 2.973 2.406 4.554 4.465 9.297 6.39 14.062a276.477 276.477 0 0 0 4.653 10.957c1.203 2.676 2.406 5.383 3.262 8.196.078.265.183.562.347.777.16.215.399.402.641.535.586.266 1.23-.11 1.254-.695 0-.403 0-.805-.024-1.18-.16-2.145-.375-4.285-.75-6.43-.43-2.465-.937-4.902-1.418-7.34-.375-1.953-.8-3.882-1.148-5.835-.508-2.84-.988-5.707-1.496-8.547a80.498 80.498 0 0 1-1.125-9.453c-.238-4.02-.238-8.063.293-12.055.215-1.528.86-2.785 2.246-3.59a40.498 40.498 0 0 1 4.707-2.328 50.533 50.533 0 0 1 9.223-2.813c2.488-.507 5-.937 7.539-1.18 2.351-.214 4.734-.292 7.113-.429 2.832-.16 5.64-.293 8.473-.453a882.28 882.28 0 0 0 8.476-.59 85.413 85.413 0 0 0 3.715-.375 6.697 6.697 0 0 0 1.473-.348c.398-.132.558-.457.613-.832zm-19.14.457c-2.38.106-4.762.266-7.141.32-2.672.083-5.32.376-7.938.805-2.73.43-5.43 1.043-8.074 1.93-1.55.508-3.102 1.07-4.574 1.793a197.65 197.65 0 0 0-5.266 2.73c-.91.485-1.656 1.18-2.3 2.012-.266.375-.481.75-.587 1.203-.562 2.09-.828 4.235-.91 6.375-.105 2.785-.105 5.547.188 8.332.133 1.286.242 2.598.347 3.883.16 2.035.563 4.043.91 6.055.481 2.918 1.016 5.808 1.551 8.703.375 1.957.801 3.883 1.176 5.84.375 1.875.75 3.777 1.121 5.68.028.105-.027.21-.027.347-.266-.27-.426-.617-.559-.992-1.66-3.91-3.289-7.82-4.84-11.785-1.953-5.008-4.117-9.938-6.656-14.707a119.579 119.579 0 0 0-1.738-3.106c-1.605-2.757-3.61-5.222-5.91-7.418a12.432 12.432 0 0 0-2.43-1.824c-1.285-.722-2.62-.91-4.094-.64a53.5 53.5 0 0 0-8.632 2.437c-4.36 1.606-8.504 3.695-12.512 6.027a410.164 410.164 0 0 0-7.434 4.446 236.493 236.493 0 0 1-9.117 5.25c-.16.078-1.734 1.07-2.484 1.312-.188.055-.242.028-.133-.11a.505.505 0 0 1 .105-.132c.536-.48 2.594-2.035 3.02-2.383 3.906-3 7.676-6.16 11.418-9.347 3.234-2.758 6.308-5.68 9.09-8.895 1.281-1.5 2.511-3.05 3.582-4.715 1.765-2.703 3.02-5.676 4.144-8.703.051-.16.106-.32.16-.48.266-1.02.266-2.012-.187-2.977-.293-.613-.59-1.23-.961-1.793-.883-1.312-1.766-2.625-2.703-3.91-4.785-6.48-10.106-12.48-15.906-18.082-1.336-1.285-2.672-2.598-4.012-3.91 0 0-.078-.051-.05-.106 0-.105.187-.082.265-.054.215.054.43.136.617.27 1.254.776 2.484 1.554 3.742 2.327 4.223 2.547 8.555 4.875 13.098 6.805 3.449 1.473 6.98 2.652 10.613 3.48 1.711.403 3.45.618 5.215.75.855.055 1.683 0 2.539-.16.402-.078.75-.265 1.043-.535 1.473-1.5 2.941-3 4.172-4.687a60.634 60.634 0 0 0 3.77-5.864c2.406-4.234 4.652-8.574 6.761-12.937 2.379-4.903 4.707-9.805 7.059-14.707.242-.508.507-.992.777-1.5.027-.055.078-.078.133-.106.027.078.105.16.078.215-.695 3.266-1.336 6.563-2.082 9.8-1.23 5.36-2.406 10.716-3.477 16.126a90.481 90.481 0 0 0-1.043 6.535 47.636 47.636 0 0 0-.32 6.805c.05 1.82.348 3.617 1.094 5.304.082.211.187.399.27.614.347 1.18 1.12 1.93 2.163 2.492.805.43 1.579.883 2.38 1.285 5.507 2.707 11.284 4.66 17.324 5.785 1.953.375 3.878.778 5.828 1.153 1.175.214 2.355.375 3.53.507 1.337.16 2.7.27 4.063.43.508.055.989.188 1.496.32.028 0 .055.082.11.188-.32-.133-.59-.133-.856-.106zm0 0"/><g clip-path="url(#a)"><path d="M177.2 124.402c-.134-.242-.24-.507-.376-.75-1.55-2.355-2.992-4.793-4.41-7.23-.187-.324-.215-.59-.078-.965.8-1.824 1.684-3.59 2.754-5.277.531-.86 1.066-1.743 1.601-2.598.133-.242.27-.512.375-.75.028-.082 0-.215 0-.27-.027-.187-.265-.374-.375-.347-.265.055-.562.082-.8.187-2.032.778-4.145 1.098-6.258 1.395-.774.105-1.574.187-2.352.078-.535-.43-1.07-.855-1.578-1.258-.187-.133-.348-.297-.508-.457-1.308-1.34-2.726-2.543-3.82-4.07-.11-.133-.242-.242-.348-.375-.16-.16-.507-.242-.617-.133-.133.16-.293.348-.347.563-.051.214-.028.453-.028.668-.023 1.074.028 2.144-.078 3.214-.133 1.473-.375 2.918-.562 4.368-.028.238-.133.425-.375.535-.829.453-1.657.992-2.512 1.39-1.871.914-3.742 1.852-5.774 2.414a.6.6 0 0 0-.297.16c-.105.106-.21.266-.265.403-.055.187.078.32.215.426.133.109.293.187.453.242 2.62.91 5.027 2.277 7.512 3.508.507.27.777.617.882 1.152.16.938.32 1.902.453 2.84.137.965.188 1.93.325 2.867.078.613.183 1.23.32 1.848.05.265.188.535.32.777.16.348.586.426.828.188.16-.165.32-.325.454-.485.992-1.152 1.98-2.328 2.996-3.48.64-.723 1.308-1.422 1.949-2.118.297-.32.644-.43 1.07-.347 1.23.242 2.434.453 3.664.668 1.176.215 2.297.535 3.395 1.02.402.187.855.32 1.285.452.21.055.453.028.668.055.105-.027.32-.32.238-.508zm-3.395-2.007c-.48.078-.828-.27-1.23-.43a14.947 14.947 0 0 0-4.891-1.23c-.778-.055-1.446.16-2.008.695a43.645 43.645 0 0 0-3.5 3.91c-.055.055-.188.027-.293.027a.118.118 0 0 1-.11-.11c-.027-.105-.027-.214-.05-.347-.137-1.18-.243-2.355-.43-3.535-.133-.828-.402-1.633-.59-2.465-.078-.347-.348-.59-.64-.75-1.926-.937-3.82-1.953-5.88-2.57 0 0-.296-.082-.43-.133-.16-.082-.105-.402.056-.402.988-.11 5.347-1.82 6.601-2.707.59-.403.965-.883 1.043-1.633.106-.856.188-1.688.188-2.543 0-.805.027-1.582.082-2.387 0-.027.078-.05.132-.078.051-.027.106-.027.133 0 .563.563 1.098 1.152 1.657 1.688a28.72 28.72 0 0 0 1.66 1.445c1.175.965 1.093 1.097 3.074.992a18.857 18.857 0 0 0 4.973-.937c.05-.028.105.027.16.05.027.028.05.11.027.137-.137.238-.242.508-.402.75-.989 1.578-1.953 3.188-2.649 4.926-.105.27-.238.512-.293.777-.105.403-.105.778.106 1.153.164.296.324.59.512.882.773 1.18 1.546 2.387 2.351 3.535.586.965.774 1.29.64 1.29zm0 0"/></g><g clip-path="url(#b)"><path d="M21.898 83.664c2.54-.055 5.082-.082 7.622-.137 2.433-.078 4.863-.215 7.218-.8 1.149-.297 2.27-.672 3.422-.993.508-.16.934-.402 1.281-.777.75-.777.508-1.633-.187-2.195-.188-.137-.375-.27-.586-.325a11.1 11.1 0 0 0-1.633-.453c-.988-.214-2.004-.296-3.02-.32-2.699-.055-5.43-.137-8.128-.187a252.92 252.92 0 0 0-6.442 0c-1.312 0-2.593.105-3.902.132-4.762.106-9.492.32-14.223.75-.617.055-1.23.215-1.847.32-.348.055-.614.243-.883.458-.48.402-.559 1.23-.106 1.66.243.242.508.453.801.59a16.75 16.75 0 0 0 1.899.695c2.566.723 5.214 1.07 7.859 1.285 3.61.215 7.219.43 10.855.297zM4.148 80.18c-.132-.055-.132-.106-.027-.133.055-.027.106-.027.16-.055.16-.027.348-.055.508-.055 3.61-.132 7.219-.238 10.828-.374a239.26 239.26 0 0 0 4.73-.188c3.665-.16 7.352-.05 11.016.055 1.871.054 3.715.11 5.586.187.617.028 1.258 0 1.82.32.051.028.133.083.133.11-.054.078-.082.187-.16.242-.16.078-.32.133-.48.188a19.684 19.684 0 0 1-4.145.828c-4.062.375-8.129.484-12.191.507-2.38-.05-4.758-.05-7.11-.16-3.05-.132-6.097-.375-9.09-.965-.535-.132-1.07-.265-1.578-.507zm0 0"/></g><path d="M56.172 11.879c.965 4.02 2.219 7.953 3.637 11.84 1.336 3.668 2.886 7.258 4.062 10.98.082.215.16.43.242.645.774 1.875 1.684 3.722 2.86 5.383.457.64.965 1.257 1.632 1.714.829.536 1.711.239 2.086-.671.184-.426.184-.883.16-1.633-.027-.27-.054-.856-.16-1.395a50.697 50.697 0 0 0-.75-3.32 217.772 217.772 0 0 0-5.507-17.836 79.193 79.193 0 0 0-4.84-11.04 44.362 44.362 0 0 0-1.551-2.648 4.009 4.009 0 0 0-.773-.886c-.536-.48-1.391-.32-1.739.324a2.718 2.718 0 0 0-.347 1.312c.027 1.016-.028 2.036.105 3.051.27 1.395.535 2.785.883 4.18zm1.285-5.465c.105-.055.188.055.238.16.16.297.348.59.508.887 1.418 2.973 2.809 5.945 3.93 9.023 1.285 3.512 2.62 6.993 3.77 10.555 1.152 3.563 2.007 7.18 2.89 10.82.105.43.133.883.238 1.528v.32c0 .027-.05.11-.078.11-.055 0-.11 0-.16-.028-.055-.027-.11-.055-.137-.11-1.094-1.66-2.11-3.347-2.914-5.167-1.789-4.153-3.285-8.438-4.703-12.75-1.23-3.778-2.352-7.578-3.207-11.438-.27-1.203-.535-2.437-.535-3.695 0-.055.078-.188.16-.215zM115.098 57.977c.453-.028.879-.16 1.28-.403.911-.59 1.817-1.125 2.7-1.742 7.14-4.953 14.195-10.07 21.203-15.238a39.977 39.977 0 0 0 3.66-3c.508-.457.989-.938 1.446-1.422.586-.613 1.07-1.313 1.39-2.113.239-.645-.054-1.262-.668-1.528-.484-.215-.992-.215-1.5-.082-.746.215-1.496.457-2.246.778a45.699 45.699 0 0 0-10.96 6.347c-1.9 1.5-3.77 3.082-5.641 4.606-.668.539-1.309 1.074-1.977 1.582-2.219 1.742-4.387 3.562-6.418 5.543-1.094 1.074-2.004 2.304-2.887 3.562-.32.457-.585.965-.722 1.528-.16.804.375 1.609 1.34 1.582zm1.976-3.375c.082-.137.133-.297.215-.43a16.961 16.961 0 0 1 2.297-2.492c4.652-4.23 9.598-8.086 14.68-11.785 2.859-2.063 5.933-3.696 9.195-5.008.16-.055.32-.133.48-.16.11-.028.215.054.32.082 0 0 0 .105-.023.16-.136.187-.242.402-.375.535-.644.64-1.258 1.285-1.98 1.875a78.4 78.4 0 0 1-3.77 2.863c-4.035 2.895-8.101 5.79-12.164 8.625-2.594 1.824-5.238 3.563-7.86 5.332-.265.188-.562.348-.855.535-.214.055-.242.028-.16-.132zM145.734 125.258a50.494 50.494 0 0 0-2.433-2.84c-1.844-1.926-3.903-3.613-5.988-5.246-4.465-3.484-9.223-6.563-14.063-9.512-.777-.48-1.578-.91-2.379-1.312-1.07-.535-2.14-1.016-3.289-1.313-.32-.078-.668-.133-.773-.16-.993-.055-1.688.723-1.286 1.66.082.215.215.403.375.563.348.375.696.75 1.07 1.074 1.712 1.39 3.423 2.812 5.16 4.148 3.286 2.52 6.602 4.985 9.864 7.528 3.582 2.785 7.434 5.172 11.336 7.472a9.73 9.73 0 0 0 1.043.563 4.6 4.6 0 0 0 .8.27c.43.105.802-.028 1.099-.321.347-.352.453-.805.238-1.262-.211-.453-.453-.91-.774-1.312zm-3.422-.801a.735.735 0 0 1-.32 0c-3.449-2.062-6.82-4.234-10-6.7-3.367-2.597-6.71-5.195-10.05-7.792-1.016-.805-1.981-1.688-2.97-2.52 0 0 0-.078.028-.105.05-.028.105-.082.16-.055.106.028.215.055.188.055 1.23.48 2.27 1.097 3.261 1.715a138.864 138.864 0 0 1 10.614 7.312 284 284 0 0 1 5.586 4.445c1.285 1.043 2.433 2.196 3.504 3.43.105.106.132.188 0 .215zm0 0"/><g clip-path="url(#c)"><path d="M12.836 14.344c.43.187.883.187 1.336.187 1.523-.027 2.863.59 4.09 1.446.91.644 1.523 1.5 1.765 2.597.106.512.215.992.27 1.5.105.91.16 1.797.265 2.707.028.348.083.668.133 1.016.028.187.293.375.48.402.243.028.458-.054.59-.242a6.27 6.27 0 0 0 .348-.562c.16-.348.32-.723.48-1.098a8.515 8.515 0 0 1 2.915-3.453c.91-.645 1.898-.965 3.023-.91.961.05 1.895.16 2.778.613.75.375 1.523.723 2.328 1.047.21.078.425.105.64.133.348.054.668-.348.563-.668a4.118 4.118 0 0 0-.32-.778c-.375-.562-.805-1.097-1.18-1.66-.453-.7-.934-1.422-1.336-2.172-.746-1.363-.774-2.812-.32-4.285.402-1.312 1.07-2.492 2.058-3.453.242-.242.48-.484.696-.727.054-.05.082-.132.105-.187.055-.188.055-.399-.05-.563-.028-.05-.056-.105-.11-.132-.188-.106-.426-.215-.613-.188-.27.027-.563.133-.801.27-1.18.562-2.434.855-3.746 1.07-1.04.187-2.032 0-2.965-.402a10.818 10.818 0 0 1-2.969-1.93c-.535-.48-1.043-1.043-1.55-1.578-.403-.403-.774-.832-1.15-1.23-.16-.165-.589-.188-.804-.083-.265.16-.426.403-.398.696.054.457.16.882.293 1.312.293.938.347 1.875.375 2.84 0 1.258-.43 2.332-1.23 3.27-.481.562-1.016 1.07-1.63 1.472-.777.48-1.578.883-2.406 1.258-.508.215-1.043.43-1.55.695-.243.137-.481.297-.669.485-.375.402-.215 1.07.266 1.285zm3.797-1.66c.133-.082.293-.16.453-.243a36.93 36.93 0 0 0 1.738-1.07c.668-.43 1.203-1.02 1.684-1.66.828-1.047 1.23-2.277 1.39-3.59.055-.348.055-.672.082-1.02 0-.16.051-.214.188-.214.05 0 .133 0 .16.027a11.806 11.806 0 0 0 2.297 1.715c1.926 1.18 3.957 1.555 6.176.91.11-.027.215 0 .32.027 0 .16 0 .32-.05.457-.11.266-.298.48-.403.75a16.569 16.569 0 0 0-.59 1.579c-.453 1.472-.348 2.894.297 4.285.238.511.48 1.02.695 1.554.028.082.051.243 0 .293-.054.055-.215.055-.32.055-.164-.027-1.258-.242-1.66-.293-2.297-.27-4.195.59-5.8 2.168-.349.348-.669.777-1.017 1.152-.027.028-.132.055-.16.028a.488.488 0 0 1-.187-.215c-.082-.375-.133-.777-.215-1.18-.293-1.847-1.309-3.215-2.941-4.152-.696-.399-1.415-.695-2.11-1.07-.082-.055-.133-.16-.187-.266.054.05.132-.027.16-.027zm0 0"/></g><g clip-path="url(#d)"><path d="M68.39 120.867c-.347-.055-.667 0-.937.266-.078.082-.16.164-.238.242-.43.668-.91 1.313-1.285 2.008a25.122 25.122 0 0 0-1.762 3.86c-1.633 4.362-3.102 8.757-4.492 13.175-1.043 3.242-1.739 6.562-2.328 9.91-.211 1.18-.399 2.36-.586 3.54-.055.398-.082.773.078 1.175.11.27.297.484.562.59.348.105.668 0 .938-.242.187-.211.37-.426.508-.668.718-1.286 1.468-2.543 2.136-3.856 1.258-2.547 2.328-5.172 3.29-7.824 1.363-3.777 2.566-7.633 3.34-11.57.429-2.168.804-4.34 1.179-6.508.16-.883.238-1.797.371-2.625-.023-.242-.023-.403-.05-.59 0-.402-.376-.828-.723-.883zm-2.699 11.278c-.617 2.648-1.257 5.3-1.898 7.925a47.82 47.82 0 0 1-.617 2.118c-1.016 2.945-2.137 5.84-3.555 8.625-.105.187-.16.43-.402.507h-.133c0-.215-.05-.453 0-.668.723-3.617 1.5-7.207 2.621-10.714 1.258-3.993 2.672-7.958 4.172-11.868.105-.265.453-1.39.668-1.632.027-.028.133-.083.133-.055.054.055.16.137.16.215.027.375-.828 4.07-1.149 5.547zm0 0"/></g><path d="M23.074 141.758c-.586.215-1.148.508-1.738.672-1.711.48-3.234.238-4.488-1.102-.457-.508-.91-.988-1.364-1.5-.242-.293-.562-.348-.91-.293-.187.028-.43.27-.453.457-.027.211-.055.453-.027.668.05.563.16 1.125.21 1.688.11.91-.21 1.687-.855 2.304a5.156 5.156 0 0 1-.933.723c-.614.402-1.309.64-2.004.91-.325.106-.617.27-.91.43-.43.265-.375 1.043.078 1.285.187.105.402.215.617.293.426.16.855.297 1.281.43 1.285.402 2.059 1.312 2.543 2.543.238.644.371 1.312.426 1.984.027.266.105.535.215.805.133.375.613.425.855.132.16-.16.266-.375.426-.535.297-.402.59-.832.937-1.207 1.282-1.554 2.915-2.062 4.84-1.5.188.055.348.11.535.133.266.082.532.082.774.055.32-.028.535-.535.348-.805-.243-.32-.508-.613-.75-.91-.586-.723-.856-1.578-.907-2.516-.082-1.207.293-2.222 1.203-3.027.293-.27.614-.508.907-.777.215-.188.242-.668.11-.965-.138-.32-.59-.508-.966-.375zm-2.484 7.34h-.348c-1.258-.106-2.3.43-3.262 1.152-.347.266-.668.617-.988.91-.11.106-.32.028-.375-.133-.082-.27-.133-.562-.215-.804-.425-1.153-1.097-2.09-2.191-2.707-.133-.078-.293-.16-.402-.293-.051-.055 0-.243.054-.27.188-.133.403-.21.586-.32 1.18-.617 2.114-1.5 2.594-2.785.055-.16.137-.32.215-.457.055-.078.215-.133.27-.106.21.082.398.215.585.32.75.403 1.551.672 2.407.723.347.027.668.055 1.015.082.082 0 .16.082.188.16.027.243-.055.485-.133.672-.293.91-.215 1.793.055 2.676.078.27.183.535.293.805.078.214-.083.375-.348.375zM124.64 9.387c.188.11.403.187.614.27.805.292 1.336.855 1.66 1.605.184.402.266.86.371 1.285.055.164.082.324.137.484.05.16.371.32.558.32.243-.027.457-.105.59-.292.215-.325.403-.672.64-.993.458-.59 1.071-.832 1.794-.59.426.133.855.297 1.281.43.082.028.242-.027.297-.11.078-.132.184-.32.16-.452-.137-.375-.347-.723-.484-1.07-.371-.993-.399-1.985.027-2.977.082-.211.215-.399.32-.586.215-.457-.023-.914-.535-1.02-.21-.054-.453-.082-.668-.054-.265.027-.558.11-.828.136-.883.106-1.683-.109-2.324-.75-.188-.187-.402-.402-.64-.562-.243-.164-.536-.164-.805 0-.215.133-.293.348-.266.586.027.512.078 1.02.106 1.527 0 .43-.215.75-.48 1.047-.321.32-.75.508-1.122.723-.188.105-.324.293-.484.453-.133.11-.079.512.082.59zm2.325-.723c.535-.508.937-1.098 1.097-1.848.028-.16.215-.242.403-.16.613.266 1.226.535 1.922.48.242-.027.375.16.375.43v.91c.082.485.16.86.187 1.258 0 .082-.078.188-.16.27a.276.276 0 0 1-.133.055c-.75 0-1.418.238-2.031.695-.137.105-.324.055-.43-.106-.32-.59-.695-1.152-1.257-1.554-.133-.082-.133-.297.027-.43zM91.863 49.805a.564.564 0 0 0-.64.027c-.297.242-.618.512-.856.805-.242.293-.43.668-.617 1.02-1.227 2.222-2.7 4.308-4.277 6.32-.586.75-1.203 1.5-1.79 2.277-.617.8-1.23 1.605-1.843 2.437-.164.211-.27.48-.375.75-.11.293 0 .641.238.883.27.266.695.32 1.043.133.027 0 .027-.027.055-.027.265-.215.508-.453.722-.723 1.391-1.793 2.778-3.59 4.168-5.355a46.03 46.03 0 0 0 3.825-5.813c.242-.457.453-.91.64-1.394.082-.215.11-.426.11-.668.027-.297-.16-.536-.403-.672zM74.727 67.297c-.188-.106-.403-.215-.614-.242a28.734 28.734 0 0 0-1.5-.266c-1.843-.215-3.633-.7-5.398-1.34-1.176-.43-2.328-.86-3.504-1.258a10.166 10.166 0 0 0-1.309-.324c-.215-.027-.453.028-.668.055-.27.055-.562.348-.535.562.028.215.078.457.215.618.32.425.8.613 1.281.777 1.203.453 2.434.91 3.664 1.312 1.07.348 2.137.696 3.235.989 1.258.324 2.539.59 3.93.617.054 0 .242 0 .402-.027.105 0 .238-.028.32-.055.215-.078.426-.188.586-.32.348-.243.297-.883-.105-1.098zm0 0"/></svg>