<svg xmlns="http://www.w3.org/2000/svg" width="610" viewBox="0 0 457.5 167.25" height="223" version="1.0"><defs><clipPath id="i"><path d="M393 87h12v79.504h-12zm0 0"/></clipPath><clipPath id="a"><path d="M240.676 117.484h43.68v26.528h-43.68zm0 0"/></clipPath><clipPath id="c"><path d="M254 22.484h26V44h-26zm0 0"/></clipPath><clipPath id="d"><path d="M228.5 76H257v17h-28.5zm0 0"/></clipPath><clipPath id="e"><path d="M228.5 79h8.5v7h-8.5zm0 0"/></clipPath><clipPath id="f"><path d="M280 86h15.7v11H280zm0 0"/></clipPath><clipPath id="g"><path d="M254 22.484h12V35h-12zm0 0"/></clipPath><clipPath id="h"><path d="M391 87h14v79.504h-14zm0 0"/></clipPath><clipPath id="b"><path d="M232.5 57.484h63.14v72.22H232.5zm0 0"/></clipPath><clipPath id="j"><path d="M56 87h14v79.504H56zm0 0"/></clipPath><clipPath id="k"><path d="M56 87h12v79.504H56zm0 0"/></clipPath><clipPath id="l"><path d="M416 87h21v79.504h-21zm0 0"/></clipPath><clipPath id="m"><path d="M419 87h18v79.504h-18zm0 0"/></clipPath><clipPath id="n"><path d="M24 87h21v79.504H24zm0 0"/></clipPath><clipPath id="o"><path d="M24 87h17v79.504H24zm0 0"/></clipPath><clipPath id="p"><path d="M1.293.035h454.71V162H1.294zm0 0"/></clipPath></defs><g clip-path="url(#a)"><path fill="#6b9a3b" d="M242.402 122.008c-.511 2.77-.96 5.543-1.297 8.34-.367 3.043-.601 6.265-.23 8.765.14.938.355 1.766.879 2.39.726.864 2.031 1.25 3.39 1.567 4.11.953 8.524 1.098 12.946.703.535-.046 1.066-.097 1.43-.378.472-.36.644-1.086.785-1.844.28-1.48.418-3.035.511-4.606.797 1.48 1.606 2.965 2.247 4.5.222.528.417 1.059.824 1.426.742.668 2.144.758 3.593.82 4.11.176 8.31.239 12.477.309 1.766.027 3.441.063 4.063-.746.355-.469.34-1.18.3-1.957-.136-2.719-.715-6.203-1.144-9.414-.434-3.262-.61-6.52-2.457-9-5.176-6.965-20.946-7.11-38.317-.875"/></g><g clip-path="url(#b)"><path fill="#ffeaca" d="M261.29 57.527c-3.157-.132-6.306.547-9.466 1.239-3.457.754-6.879 1.523-9.492 3.449-2.508 1.847-4.2 4.722-5.789 7.687-1.492 2.785-2.816 5.649-4.04 8.57 1.302 2.946 3.216 5.423 5.724 6.958 1.84 1.12 3.953 1.722 6.183 1.605-.469 5.164-.765 10.356-1.383 15.512-.687 5.73-1.32 11.89-1.453 17.062-.05 1.926-.023 3.696.871 4.86 1.055 1.37 3.297 1.742 5.559 2.199 5.25 1.055 10.379 2.437 15.613 2.863 9.246.746 17.5-1.261 18.98-5.047.403-1.03.231-2.168.036-3.363-.547-3.371-1.48-7.125-2.227-10.871-.742-3.754-1.308-7.563-1.355-11.367-.04-3.16.152-6.34.785-9.457.691 1.676 1.394 3.355 1.898 5.078.211.715.38 1.43.864 1.793 1.011.758 3.226-.024 5.468-1.258 1.778-.98 3.422-2.18 5.192-3.203.941-.547 1.926-1.02 2.254-1.8.578-1.38-.875-3.563-2.188-5.977-2.406-4.422-4.043-9.25-6.633-13.063a23.758 23.758 0 0 0-5.296-5.574c-2.485-1.89-5.325-3.305-8.243-4.574-3.882-1.692-7.847-3.153-11.863-3.32"/></g><path fill="#f7bd9a" d="M257.406 51.54c.067 1.288.094 2.6-.039 3.757-.055.476-.14.93-.332 1.32-.129.254-.305.473-.383.758-.25.953.524 2.547 1.883 3.785 1.938 1.77 4.766 2.594 7.73 3.055 2.54.39 5.114.508 7.09-.246.997-.38 1.832-.961 2.47-1.782-1.087-.48-2.106-1.062-2.977-1.804-.586-.496-1.102-1.047-1.407-1.727-.464-1.043-.441-2.347-.054-3.633l-13.98-3.484"/><path fill="#f7bd9a" d="M256.516 47.406c-1.356-5.422-.903-10.687 1.812-14.531 1.95-2.762 4.887-4.582 8.016-4.809 4.261-.312 8.117 2.164 9.601 6.192.89 2.41.707 5.234.543 8.12-.238 4.142-.55 8.282-2.062 10.806-.707 1.183-1.672 1.988-2.63 2.84-1.675 1.492-3.273 3-5.151 3.41-2.766.601-5.747-1.016-7.645-3.836-.738-1.094-1.254-2.344-1.648-3.649-.446-1.476-.707-2.996-.836-4.543"/><path fill="#f7bd9a" d="M257.5 42.852c-.695-2.672-1.973-4.723-3.16-4.586-1.285.144-1.992 2.62-1.422 5.547.348 1.757 1.187 3.316 2.457 3.777.809.297 1.7.125 2.348-.55.261-1.415.129-2.833-.223-4.188M274.93 44.172c.62-2.473 1.71-4.48 2.98-4.586.559-.047 1.07.277 1.406.828.649 1.066.446 2.895-.066 4.719-.488 1.73-1.164 3.297-2.316 3.781-.77.324-1.602.121-2.215-.555a10.564 10.564 0 0 1 .21-4.187"/><path fill="#886047" d="M263.605 40.91c-.238-.648-1.62-.87-3.14-.289-.93.356-1.57.867-1.461 1.102.101.207.89.078 1.754.035a18.571 18.571 0 0 1 1.547-.004c.425.016.836.039 1.09-.152a.606.606 0 0 0 .21-.692M269.867 41.29c.293-.661 1.75-.802 3.293-.095.945.438 1.578 1.012 1.445 1.246-.117.211-.93.024-1.828-.078a18.54 18.54 0 0 0-1.613-.11c-.441-.01-.871-.015-1.121-.23a.632.632 0 0 1-.176-.734"/><path fill="#393939" d="M260.762 43.95c-.004-.626.422-1.13.937-1.13.52 0 .942.504.942 1.13 0 .62-.422 1.128-.942 1.124-.515 0-.941-.504-.937-1.125M270.734 44.441c0-.625.422-1.129.942-1.129s.937.508.937 1.13c0 .624-.418 1.128-.937 1.128-.52 0-.942-.504-.942-1.129"/><path fill="none" d="M265.582 44.969c-.18.672-.32 1.348-.469 2.027-.183.856-.414 1.68-.152 2.297.367.875 1.445 1.242 2.535.762M258.348 53.524c.906 1.511 1.988 2.886 3.28 3.98.903.762 1.88 1.395 3.009 1.61 1.859.359 4.03-.372 5.976-1.755" stroke="#886047" stroke-width=".34318978"/><g clip-path="url(#c)"><path fill="#886047" d="M278.113 39.777c.926-2.843 1.39-5.78.805-8.543-.547-2.59-1.953-4.925-4.047-6.422-2.633-1.882-6.148-2.324-9.723-1.402-3.175-.574-6.097.496-8.035 2.735-2.418 2.793-2.965 7.02-2.324 11.324.434 2.933 1.227 5.183 1.606 5.117.382-.07.152-2.746 1.21-5.262.82-1.949 2.399-3.465 4.5-4.285.258.645.258 1.328.016 1.938-.262.66-.808 1.203-.746 1.613.14.926 2.563 1.02 5.547.367 1.258-.273 2.457-.73 3.555-1.422a3.54 3.54 0 0 1-.508 1.258c-.258.395-.598.727-.563 1 .063.531 1.246.707 2.692.531a6.428 6.428 0 0 0 2.761-1.008c.457.989.774 2.024.946 3.09.226 1.403.215 2.75.53 2.856.4.129 1.114-1.446 1.778-3.485"/></g><g clip-path="url(#d)"><path fill="#f7bd9a" d="M232.883 79.73a10.613 10.613 0 0 0-3.32 4.282c-.79 1.867-1.063 3.84-.395 5.46.988 2.391 3.508 3.594 5.965 2.91 1.98-.55 3.469-2.292 3.445-4.632 1.152.363 2.305.785 3.375 1.281.508.235 1 .492 1.55.66.942.282 2.028.286 3.122.301.754.008 1.492.035 1.965-.316.46-.344.656-.969.402-1.582.66-.086 1.168-.422 1.367-.985.18-.511.04-1.043-.363-1.476.711-.137 1.234-.547 1.395-1.195.16-.637-.094-1.235-.645-1.684.719-.09 1.422-.246 2.149-.285 1.343-.067 2.613-.145 3.082-.7.246-.292.27-.699.078-1.003-.278-.45-1.02-.598-1.82-.684-1.016-.105-2.051-.066-3.09-.105-.801-.028-1.606-.055-2.403-.149 2.196-.52 3.766-1.59 3.84-2.648.031-.438-.191-.801-.527-.91-.34-.114-.782.082-1.25.273-1.715.695-3.586 1.172-5.575 1.555-1.695.32-3.414.523-5.062.984a18.65 18.65 0 0 0-5.188 2.39 8.465 8.465 0 0 0-1.07-1.046 7.078 7.078 0 0 0-1.027-.696"/></g><g clip-path="url(#e)"><path fill="none" d="M230.48 83.895c1.168-.582 2.348-1.184 3.418-1.813.332-.195.657-.39.97-.601" stroke="#886047" stroke-width=".34318978"/></g><path fill="none" d="M245.61 79.598c.542.086 1.093.144 1.644.168.437.02.879.015 1.32-.012M247.836 82.64c.707.028 1.414.051 2.121.079M247.395 85.543l2.355.063M246.477 88.055l2.277.011" stroke="#886047" stroke-width=".34318978"/><path fill="#f7bd9a" d="m284.535 96.547 1.34 4.086c-.09 4.316-.246 8.625-.457 12.933-.18 3.723-.356 7.434-2.012 10.246-1.273 2.16-3.34 3.829-5.953 4.403.227.773.59 1.476 1.11 2.043.39.426.867.77 1.417.984-.195.965-.648 1.852-1.21 2.625-.926 1.274-2.211 2.207-2.247 3.067-.015.382.192.726.508.949.176.125.383.226.614.234-.024.352.09.668.347.918.555.555 1.707.77 2.973.668.305.192.64.32.988.375.309.05.629.047.942-.023.265.414.69.632 1.175.652 1.016.04 2.254-.852 3.172-2.062 1.008-1.333 1.594-2.946 1.871-4.649.317-1.93.246-3.902.621-5.8.262-1.337.762-2.63 1.211-3.93 2.258-6.543 3.493-13.676 3.434-20.239-.02-1.797-.11-3.535-.457-5.257a21.585 21.585 0 0 0-2.113-5.88 55.182 55.182 0 0 1-3.829 2.106 46.89 46.89 0 0 1-3.445 1.55"/><path fill="none" d="M286.16 100.367a7.07 7.07 0 0 1 1.496-.82c.403-.156.82-.27 1.254-.328M277.894 138.168c.657-.2 1.243-.54 1.79-.977 1.03-.828 1.906-2.043 2.632-3.347M281.09 139.297c.617-.48 1.199-.996 1.758-1.543a27.968 27.968 0 0 0 2.199-2.453M283.21 139.793a5.597 5.597 0 0 0 1.704-1.11c.793-.738 1.422-1.695 1.922-2.734" stroke="#886047" stroke-width=".34318978"/><path fill="none" d="M281.176 76.3c-.82 1.962-1.387 3.997-1.59 6.063a16.142 16.142 0 0 0 .215 4.805" stroke="#c7a66a" stroke-width=".34318978"/><g clip-path="url(#f)"><path fill="none" d="M282.648 94.07a25.775 25.775 0 0 0 5.63-1.96 25.964 25.964 0 0 0 5.058-3.231" stroke="#c7a66a" stroke-width=".34318978"/></g><path fill="none" d="M244.3 123.121c4.993 2.23 10.286 3.461 15.665 3.852 6.87.5 13.844-.403 20.66-2.344M243.672 65.61c.387 2.632.723 5.285.91 7.898.098 1.367.16 2.723.16 4.086M255.039 60.324c1.918 2.727 4.582 4.63 7.605 5.684 4.012 1.394 8.512 1.219 12.954-.121" stroke="#c7a66a" stroke-width=".34318978"/><path fill="none" d="M276.594 44.133a7.071 7.071 0 0 1 .902-1.945c.34-.504.75-.957 1.227-1.34M253.336 40.024a1.348 1.348 0 0 1 1.148.082c.707.386 1.223 1.359 1.47 2.52M263.394 52.82c1.067.325 2.16.508 3.243.485.8-.016 1.597-.14 2.359-.406M256.043 43.711c.117 1.176.238 2.352.355 3.531M276.148 45.082l-.304 3.75" stroke="#886047" stroke-width=".34318978"/><g clip-path="url(#g)"><path fill="none" d="M263.633 24.367a7.826 7.826 0 0 0-5.008 2.29c-1.613 1.617-2.488 3.859-2.66 6.35" stroke="#c7a66a" stroke-width=".34318978"/></g><path fill="none" d="M257.96 30.91c.505-1.375 1.282-2.59 2.337-3.508a6.877 6.877 0 0 1 3.05-1.55" stroke="#c7a66a" stroke-width=".34318978"/><path fill="none" d="M242.57 130.684a49.95 49.95 0 0 0 2.907-1.422c.894-.477 1.777-.98 2.64-1.516M259.82 129.055c-.015 1.515.078 3.035.364 4.484.18.899.425 1.77.78 2.613" stroke="#c9c9c9" stroke-width=".34318978"/><g clip-path="url(#h)"><path fill="#543022" d="M397.875 87.512c-.426 24.84 2.02 51.37 6.305 78.976h-4.274a469.827 469.827 0 0 1-8.851-78.976zm0 0"/></g><g clip-path="url(#i)"><path fill="#543022" d="M393.703 87.512h4.172c-.426 24.84 2.02 51.37 6.305 78.976h-2.723c-5.039-30.422-9.148-59.289-7.754-78.976zm0 0"/></g><g clip-path="url(#j)"><path fill="#543022" d="M62.813 87.512c.425 24.84-2.02 51.37-6.305 78.976h4.273a470.232 470.232 0 0 0 8.852-78.976zm0 0"/></g><g clip-path="url(#k)"><path fill="#543022" d="M66.984 87.512h-4.171c.425 24.84-2.02 51.37-6.305 78.976h2.722c5.04-30.422 9.145-59.289 7.754-78.976zm0 0"/></g><g clip-path="url(#l)"><path fill="#543022" d="M426.617 87.512c-.644 24.84 3.059 51.37 9.547 78.976h-6.473c-7.746-26.46-12.52-52.8-13.394-78.976zm0 0"/></g><g clip-path="url(#m)"><path fill="#80482a" d="M420.309 87.512h6.308c-.644 24.84 3.059 51.37 9.547 78.976h-4.121c-7.629-30.422-13.844-59.289-11.734-78.976zm0 0"/></g><g clip-path="url(#n)"><path fill="#543022" d="M34.07 87.512c.645 24.84-3.058 51.37-9.547 78.976h6.473c7.746-26.46 12.52-52.8 13.395-78.976zm0 0"/></g><g clip-path="url(#o)"><path fill="#80482a" d="M40.379 87.512H34.07c.645 24.84-3.058 51.37-9.547 78.976h4.122c7.628-30.422 13.843-59.289 11.734-78.976zm0 0"/></g><path fill="#543022" d="M36.797 138.742h386.672l-.668-4.18H37.906zm0 0"/><g clip-path="url(#p)"><path fill="#fff0c6" d="M456.004 135.05c-9.27 11.243-25.672 12.552-39.79 7.61-.265-2.531-.784-5.824-1.05-8.37-10.57-1.294-31.414 1.741-41.64 4.573.8 3.157 1.898 7.785 2.714 10.942-26.441 10.039-46.312 11.722-73.883 5.035-.27-3.05-1.445-6.477-1.71-9.516-8.72-1.355-17.989-2.219-26.79-1.472-.25 4.046-.957 8.441-1.207 12.492-16.875 3.902-26.613 5.332-43.992 5.332-17.375 0-27.117-1.43-43.992-5.332-.25-4.051-.957-8.446-1.207-12.492-8.797-.747-18.066.117-26.789 1.472-.266 3.04-1.441 6.465-1.707 9.516-27.57 6.687-47.441 5.004-73.887-5.035.817-3.157 1.914-7.785 2.715-10.942-10.242-2.832-31.07-5.87-41.64-4.574-.266 2.547-.786 5.84-1.051 8.371a47.704 47.704 0 0 1-9.254 2.262C20.3 146.59 8.586 143.895 1.293 135.05 16.523 102.734 30.543 53.953 34.918.09h387.477c4.375 53.863 18.398 102.644 33.609 134.96zm0 0"/></g><path fill="#fcbc99" d="M54.164 45.328s-12.8 94.8-13.066 97.332a47.704 47.704 0 0 1-9.254 2.262c8.047-30.438 15.433-63.84 22.32-99.594zm29.625 93.535c5.086-26.593 6.398-58.152 4.805-93.535a463.123 463.123 0 0 1-12.446 91.774zm71.172 15.977a307.312 307.312 0 0 0 3.644-52.547 307.246 307.246 0 0 0-5.355-52.402c2.617 39.922.613 74.011-7.695 106.953zm28.496-10.988c-1.988-33.293-1.809-64.899 1.64-93.961-5.96 31.039-9.3 62.359-10.011 93.96zm89.191 12.492 1.207-12.492c4.66-30.672 3.055-61.227-3.468-91.68a743.157 743.157 0 0 1-4.117 105.598zm27.997-11.02a479.564 479.564 0 0 1-3.829-93.152 514.336 514.336 0 0 0-4.015 92.117zm75.593 4.48-2.71-10.94a599.84 599.84 0 0 0-12.243-82.509 446.947 446.947 0 0 1 5.297 96.829zm38.926-15.515 1.05 8.371 9.274 2.262c-8.918-26.238-16.722-57.117-23.758-91.23 2.946 32.12 6.852 60.937 13.434 80.597zm0 0"/><path fill="#fff3c9" d="M33.617 39.926a399.507 399.507 0 0 1-27.851 94.172 29.361 29.361 0 0 0 6.504 4.453 29.32 29.32 0 0 0 7.457 2.566c7.316-32.953 11.562-67.586 13.89-101.191zM93.781 53.313a474.04 474.04 0 0 1-7.215 93.523c7.84 2.809 15.707 5.746 24.047 6.496-7.87-9.36-11.097-21.656-12.433-33.566-2.446-21.813-3.797-44.524-4.399-66.454zM243.902 156.07c-17.566 3.266-36.507 1.383-53.832-2.886a329.122 329.122 0 0 1-4.164-46.852 328.818 328.818 0 0 1 2.551-46.965c1.758 13.707 2.367 27.578 4.113 41.29 1.743 13.706 5.594 27.585 14.371 38.593 8.778 11.008 22.551 18.66 36.961 16.82zM331.293 153.973c-8.05 1.02-16.676-.762-24-4.098a487.825 487.825 0 0 1-7.055-93.523c2.586 18.543 5.649 36.753 8.235 55.3 1.093 7.848 2.218 15.809 5.464 23.098 3.25 7.293 9.57 16.39 17.356 19.223zM425.766 48.367c5.132 32.328 13.347 60.88 24.914 84.883-4.442 5.469-11.47 6.836-18.649 7.953 3.094-1.48 5.305-5.07 5.844-8.316.54-3.25-.012-6.563-.563-9.809-4.144-24.523-7.398-50.191-11.546-74.71zM418.918 3.063c-126.66.175-253.324.355-379.984.53 0 6.075.28 12.419 15.851 12.555 114.153.997 250.48-3.863 364.133-13.085zm0 0"/></svg>