<svg xmlns="http://www.w3.org/2000/svg" width="870" viewBox="0 0 652.5 169.5" height="226" version="1.0"><defs><clipPath id="a"><path d="M463.027 103.602h1.516v1.515h-1.516zm0 0"/></clipPath><clipPath id="b"><path d="M463.785 103.602a.759.759 0 1 0 .002 1.517.759.759 0 0 0-.002-1.517zm0 0"/></clipPath></defs><g clip-path="url(#a)"><g clip-path="url(#b)"><path fill="#fff" d="M463.027 103.602h1.516v1.515h-1.516zm0 0"/></g></g><path d="M645.777 68.64c-5.207-7.652-14.086-9.73-22.71-11.242-9.192-1.613-18.563-1.82-27.872-1.812-38.215.004-76.449 1.156-114.61 3.129-76.835 3.972-153.491 11.672-229.573 23.14-37.602 5.665-75.028 12.329-112.317 19.793-18.379 3.676-36.789 7.336-55.402 9.63-15.387 1.898-31.617 3.745-46.914.245-14.645-3.347-26.727-13.12-28.45-28.808-1.964-17.91 8.536-33.61 19.833-46.43 8.152-9.254 16.972-18.508 27.687-24.797 7.45-4.375 16.899-7.613 25.547-5.355 7.942 2.074 11.352 9.082 10.543 16.949-.68 6.602-4.437 12.711-9.488 16.898-6.387 5.305-14.68 7.606-22.797 5.415-2.145-.583-1.559.96.078 1.445 12.465 3.7 26.234-2.238 33.426-12.836 3.82-5.64 5.75-13.047 3.98-19.758C94.871 7.187 88.418 3.41 81.52 2.555 65.496.547 50.398 10.325 39.094 20.617c-12.782 11.645-25.606 25.524-32 41.828-6.067 15.461-5.75 34.703 6 47.473 9.988 10.86 25.465 14.227 39.636 14.82 18.422.766 37.122-2.101 55.239-5.101 19.789-3.278 39.426-7.418 59.133-11.145C246.71 93.434 327.078 82.38 407.805 75.47a2345.91 2345.91 0 0 1 121.039-7.215c19.988-.68 39.988-1.106 59.992-1.274 9.672-.085 19.383-.296 29.039.399 4.734.34 9.46.914 14.11 1.894 2.421.508 4.843 1.094 7.187 1.883.351.117.687.23 1.031.36a3.17 3.17 0 0 1-.453.777c-.93 1.172-2.273 2.074-3.559 2.812-3.316 1.891-6.918 2.649-10.66 3.118-10.293 1.289-20.586 2.57-30.879 3.859l-60.496 7.559c-40.324 5.039-80.66 10.09-120.988 15.12l-30.223 3.778c-3.394.418 2.989 11.336 6.399 11.227 55.992-1.825 112.011-3.653 168.031-2.704 3.246.051 6.484.118 9.727.192a541.292 541.292 0 0 1-59.012 12.937c-3.606.579 3.203 11.13 6.398 11.223a630.264 630.264 0 0 1 41.266 2.625c-7.234 4.969-15.18 9.004-23.469 11.469-2.863.847.7 12.504 3.695 11.613 14.504-4.312 27.567-10.918 38.793-21.191 1.508-1.387-.722-4.895-1.464-6.051-1.196-1.867-3.164-4.711-5.579-5.012a633.88 633.88 0 0 0-12.972-1.508A549.827 549.827 0 0 0 606 118.45c2.914-1.004-4.496-10.941-7.043-11.066-32.168-1.567-64.363-1.969-96.559-1.73 39.926-4.985 79.848-9.966 119.766-14.954 7.274-.902 15.656-.933 22.059-4.992 6.675-4.234 5.613-11.113 1.554-17.066"/></svg>