<svg xmlns="http://www.w3.org/2000/svg" width="367" viewBox="0 0 275.25 275.25" height="367" version="1.0"><defs><clipPath id="a"><path d="M50.352 57h203.445v160.762H50.352zm0 0"/></clipPath><clipPath id="b"><path d="M0 .344h273.754v273.754H0zm0 0"/></clipPath></defs><g clip-path="url(#a)"><path d="M89.957 103.09c-5.043.379-17.355 2.074-26.824 9.68-7.094 5.699-12.738 14.574-12.781 28.515-.043 13.516 5.988 22.004 13.492 27.383 8.492 6.086 19.09 7.922 24.636 8.48 1.098 3.73 1.852 8.434 2.16 13.54.337 5.558.133 11.585-.824 17.41l-1.59 9.668 8.926-4.059c9.711-4.465 27.856-8.164 46.903-7.945 4.785.054 9.617.394 14.43.886 3.214.332 6.394.684 9.566 1.176 4.078.633 8.008 1.375 11.93 2.414 4.14 1.098 8.027 2.235 11.874 3.996-2.957-2.98-6.039-5.586-9.605-7.886-3.527-2.278-7.29-4.067-11.262-5.63-3.133-1.226-6.347-2.187-9.648-2.96-2.18-.512-4.39-.875-6.61-1.176-8.421-1.133-16.953-1.144-24.988-.59-10.86.746-20.836 2.715-28.629 5.117a92.4 92.4 0 0 0-.004-11.058c-.484-7.934-2-15.035-4.011-19.887l-1.336-3.223H92.27s-12.872.067-22.41-6.699c-5.212-3.695-9.294-9.605-9.325-18.957-.031-10.066 3.809-16.586 8.899-20.738 7.046-5.746 16.16-7.258 20.43-7.652.116 1.406.296 2.804.53 4.175 1.891 10.989 7.184 20.336 14.801 24.961-6.18-5.582-9.27-15.027-9.367-25.449-.078-8.512 2.063-17.543 6.66-25.586 2.485-4.351 5.762-8.308 9.805-11.758 7.844-6.691 18.82-11.136 33.684-10.965 16.097.106 26.859 4.977 33.992 11.622 14.035 13.085 14.035 32.543 14.035 32.543v6.445l6.402-.77s16.809-2.125 29.52 4.836c7.09 3.88 12.68 10.88 12.73 23.153.094 11.73-4.105 18.507-9.902 22.23-4.77 3.063-10.395 4.117-15.156 4.566-4.543.43-8.368.293-10.141.188.262-.367.508-.738.742-1.117a25.16 25.16 0 0 0 2.899-6.614c.468-1.718.816-3.44.902-5.27.184-3.862-.39-7.675-1.867-11.76-.14 2.292-.543 4.312-1.063 6.378-.777 3.113-2.058 5.766-3.554 8.363-.977 1.696-2.118 3.215-3.305 4.727-.781.996-1.613 1.95-2.438 2.91-2.128 2.484-4.39 4.797-7.07 6.703-4.305 3.059-8.984 5.375-14.305 6.25 5.75.946 11.442.41 16.805-1.55 1.895-.692 3.676-1.602 5.363-2.672a46.17 46.17 0 0 0-1.101 10.847c.113 6.817 1.433 13.727 3.047 20.918.398-7.133 1.183-13.875 2.672-20.316.707-3.063 1.601-5.965 2.796-8.715 2.438.402 6.063.82 10.227.707 6.316-.168 13.746-1.73 20.133-5.637 8.383-5.129 15.195-14.41 15.328-31.136.059-13.536-4.926-22.497-11.766-28.489-11.199-9.804-28.101-11.156-36.96-11.117-1.145-8.285-4.899-23.574-17.176-34.973-8.79-8.16-21.934-14.472-41.743-14.52-15.136.013-27.003 3.93-35.875 10.212-2.882 2.039-5.468 4.312-7.707 6.812-3.484 3.895-6.25 8.215-8.246 12.813a54.84 54.84 0 0 0-4.238 16.25zm0 0" fill-rule="evenodd"/></g><g clip-path="url(#b)"><path fill="#f5d5af" d="M273.754 137.223c0 75.574-61.3 136.875-136.875 136.875C61.3 274.098 0 212.797 0 137.223 0 61.648 61.3.343 136.879.343c75.574 0 136.875 61.305 136.875 136.88zm0 0"/></g><path fill="#af3925" d="M136.879 27.836c-15.797 0-36.852 2.34-49.254 12.988-4.445 3.801-8.305 8.188-13.043 11.7-4.39 3.273-9.418 5.671-13.98 8.714-23.106 15.676-33.11 49.367-33.11 75.985 0 20.59 4.856 46.093 22.988 58.492 2.516 1.7 5.149 3.101 7.606 4.914 6.96 5.09 11.406 12.754 16.262 19.89 7.254 10.586 15.91 16.551 28.02 20.532 19.71 6.55 43.05 9.242 59.952-5.324 4.563-3.977 8.309-8.832 13.047-12.637 14.39-11.582 35.914-11.582 49.367-24.215 15.852-14.8 21.528-40.828 21.528-61.652 0-60.426-48.961-109.387-109.383-109.387zm-89.79 82.77c0 .468-.41.878-.878.878a.901.901 0 0 1-.879-.879v-2.804c0-.469.41-.88.879-.88.469 0 .879.411.879.88zm3.509-17.489-2.633 2.633c-.176.176-.41.234-.645.234-.23 0-.465-.058-.64-.234a.85.85 0 0 1 0-1.23l2.633-2.633a.852.852 0 0 1 1.226 0c.41.351.41.879.059 1.23zm1.113 60.367c-.352-.351-.527-.761-.527-1.23s.175-.934.527-1.227c.64-.644 1.812-.644 2.453 0l1.523 1.52c.352.351.528.762.528 1.23 0 .465-.176.934-.528 1.227-.351.351-.761.527-1.23.527-.465 0-.934-.176-1.227-.527zm5.906 24.098c0 .996-.762 1.754-1.754 1.754-.996 0-1.758-.758-1.758-1.754v-3.156c0-.996.762-1.758 1.758-1.758.992 0 1.754.762 1.754 1.758zm12.574-26.555c0-.996.762-1.754 1.758-1.754.992 0 1.754.758 1.754 1.754v3.391c0 .996-.762 1.758-1.754 1.758a1.726 1.726 0 0 1-1.758-1.758zm-7.308-4.152h-2.809c-.996 0-1.754-.762-1.754-1.758 0-.992.758-1.754 1.754-1.754h2.809c.992 0 1.754.762 1.754 1.754 0 .996-.762 1.758-1.754 1.758zm4.68 20.473a1.726 1.726 0 0 1-1.758-1.758c0-.992.761-1.754 1.757-1.754h3.918c.997 0 1.754.762 1.754 1.754 0 .996-.757 1.758-1.754 1.758zm9.707 6.55-2.047 2.047c-.352.352-.758.528-1.227.528-.469 0-.937-.176-1.23-.528-.348-.351-.524-.761-.524-1.23 0-.465.176-.934.524-1.227l2.046-2.047c.645-.644 1.817-.644 2.458 0 .351.352.527.762.527 1.227 0 .469-.176.937-.527 1.23zm49.898-134.714h3.508c.469 0 .879.41.879.879 0 .468-.41.878-.88.878h-3.507a.901.901 0 0 1-.879-.879c0-.468.352-.878.879-.878zm-10.473 32.992h3.22c.991 0 1.753.761 1.753 1.754 0 .996-.762 1.757-1.754 1.757h-3.219a1.726 1.726 0 0 1-1.754-1.757c0-.993.762-1.754 1.754-1.754zm4.739 75.34c-.176.175-.41.234-.641.234-.234 0-.469-.059-.645-.234l-2.222-2.223a.845.845 0 0 1 0-1.227.845.845 0 0 1 1.226 0l2.223 2.223c.41.352.41.875.059 1.227zm-26.204-84.7h3.391c.996 0 1.754.762 1.754 1.754 0 .996-.758 1.758-1.754 1.758h-3.39a1.726 1.726 0 0 1-1.758-1.758c0-.992.761-1.754 1.757-1.754zm-6.843 18.192c-.469 0-.938-.176-1.23-.528L84.64 77.97c-.352-.352-.528-.762-.528-1.23 0-.47.176-.938.528-1.227.644-.645 1.812-.645 2.457 0l2.515 2.511c.352.352.528.762.528 1.23 0 .47-.176.938-.528 1.227-.351.293-.761.528-1.226.528zm7.078 72.242-2.457 2.457c-.352.352-.762.527-1.23.527-.47 0-.934-.175-1.227-.527-.352-.352-.528-.762-.528-1.23 0-.47.176-.934.528-1.227l2.457-2.457c.699-.703 1.812-.703 2.457 0 .347.352.523.762.523 1.227 0 .468-.175.878-.523 1.23zm5.613 69.84c-.351.351-.762.527-1.226.527-.47 0-.938-.176-1.23-.527l-1.99-1.988c-.35-.352-.527-.758-.527-1.227 0-.469.176-.938.528-1.23.644-.641 1.812-.641 2.457 0l1.988 1.992c.352.347.527.758.527 1.226 0 .469-.175.88-.527 1.227zm.586-144.656h-2.867a1.722 1.722 0 0 1-1.754-1.754c0-.993.762-1.754 1.754-1.754h2.867c.992 0 1.754.761 1.754 1.754 0 .996-.82 1.754-1.754 1.754zm1.871-33.633h-4.21a.901.901 0 0 1-.88-.88.9.9 0 0 1 .88-.874h4.21a.9.9 0 0 1 .88.875.863.863 0 0 1-.88.879zm4.797 19.011V59.31c0-.996.762-1.758 1.754-1.758.996 0 1.754.761 1.754 1.758v4.504c0 .992-.758 1.753-1.754 1.753a1.725 1.725 0 0 1-1.754-1.754zm2.867 22.403h2.98c.997 0 1.758.762 1.758 1.754 0 .996-.761 1.754-1.757 1.754h-2.98c-.997 0-1.759-.758-1.759-1.754 0-.992.762-1.754 1.758-1.754zm-1.523 12.226c0-.996.761-1.757 1.758-1.757H115c.996 0 1.754.761 1.754 1.757 0 .993-.758 1.754-1.754 1.754h-3.566a1.762 1.762 0 0 1-1.758-1.754zm4.215 108.274-1.465-1.465c-.352-.352-.528-.758-.528-1.227 0-.468.176-.937.528-1.23.644-.64 1.812-.64 2.457 0l1.46 1.465c.352.347.528.758.528 1.226 0 .47-.176.938-.527 1.23-.348.349-.758.524-1.227.524-.469 0-.879-.175-1.226-.523zm1.46 10.527c0-.469.176-.937.528-1.226l2.687-2.692c.645-.644 1.817-.644 2.457 0 .352.352.528.758.528 1.227 0 .469-.176.937-.528 1.23l-2.687 2.688c-.352.351-.762.527-1.23.527-.47 0-.934-.176-1.227-.527-.352-.348-.527-.758-.527-1.227zm5.497 12.344h-2.63a1.726 1.726 0 0 1-1.757-1.758c0-.992.762-1.754 1.758-1.754h2.629c.996 0 1.757.762 1.757 1.754 0 .996-.82 1.758-1.757 1.758zm2.109-184.844c-.176.176-.41.235-.644.235-.235 0-.47-.059-.645-.235l-3.45-3.453a.845.845 0 0 1 0-1.227.845.845 0 0 1 1.227 0l3.453 3.45c.407.293.407.879.059 1.23zm6.316 165.54c-.351.35-.761.527-1.23.527-.465 0-.934-.176-1.227-.528l-1.988-1.988c-.351-.352-.527-.762-.527-1.23 0-.465.176-.934.527-1.227.64-.645 1.813-.645 2.457 0l1.988 1.988c.352.352.528.762.528 1.23 0 .466-.176.876-.528 1.227zm4.387-65.805h-2.984a.898.898 0 0 1-.875-.88c0-.468.406-.878.875-.878h2.984c.469 0 .88.41.88.879a.863.863 0 0 1-.88.879zm4.328-14.274c-.175.176-.41.234-.644.234-.235 0-.465-.058-.64-.234l-2.517-2.516a.85.85 0 0 1 0-1.23.852.852 0 0 1 1.227 0l2.516 2.516c.41.351.41.937.058 1.23zm2.575-92.832v-2.75a.9.9 0 0 1 .878-.875.9.9 0 0 1 .875.875v2.75a.9.9 0 0 1-.875.879.901.901 0 0 1-.879-.879zm4.62 97.805-2.515 2.515c-.176.172-.41.23-.645.23-.234 0-.468-.058-.64-.23a.85.85 0 0 1 0-1.23l2.512-2.516a.85.85 0 0 1 1.23 0c.41.352.41.938.059 1.23zm6.493 7.484c-.176.176-.41.235-.645.235-.234 0-.465-.06-.64-.235l-2.164-2.164a.845.845 0 0 1 0-1.226.845.845 0 0 1 1.226 0l2.164 2.164c.352.293.352.879.059 1.226zm55.277 5.207h2.399c.996 0 1.753.762 1.753 1.754 0 .996-.757 1.758-1.753 1.758h-2.399a1.726 1.726 0 0 1-1.754-1.758c0-.992.817-1.754 1.754-1.754zm-25.855-58.203c.351.352.527.762.527 1.23 0 .47-.176.934-.527 1.227-.352.352-.758.527-1.227.527-.469 0-.937-.175-1.23-.527l-2.63-2.629c-.35-.351-.527-.762-.527-1.23 0-.469.176-.938.528-1.227.699-.703 1.812-.703 2.453 0zm-4.973-23.219c.996 0 1.758.758 1.758 1.754v3.86c0 .996-.762 1.754-1.758 1.754a1.722 1.722 0 0 1-1.754-1.754v-3.86c0-.996.82-1.754 1.754-1.754zm-7.016 37.903-2.457 2.457c-.351.351-.761.527-1.23.527s-.934-.176-1.227-.527c-.351-.352-.527-.762-.527-1.227 0-.469.176-.937.527-1.23l2.457-2.457c.7-.704 1.813-.704 2.457 0 .348.351.524.761.524 1.23 0 .465-.176.934-.524 1.227zm.7-56.215a.894.894 0 0 1-.875-.875c0-.469.406-.88.875-.88h3.746a.9.9 0 0 1 .875.88c0 .469-.41.875-.875.875zm9.066 136.293h-3.45a1.72 1.72 0 0 1-1.753-1.754 1.72 1.72 0 0 1 1.754-1.754h3.449c.996 0 1.758.758 1.758 1.754s-.762 1.754-1.758 1.754zm6.55 9.887c-.405.82-.816 1.578-1.343 2.34-.352.468-.879.761-1.46.761-.352 0-.704-.117-.997-.293-.82-.527-.992-1.64-.469-2.457.41-.586.762-1.172 1.055-1.812.176-.41.527-.762.992-.938.469-.176.938-.117 1.348.059.41.175.758.527.875.996.234.406.176.875 0 1.344zm3.454-118.395c0 .996-.762 1.758-1.754 1.758a1.726 1.726 0 0 1-1.758-1.758v-4.152c0-.993.762-1.754 1.758-1.754.992 0 1.754.761 1.754 1.754zm3.45 21.937-1.99-1.988a1.682 1.682 0 0 1-.523-1.23c0-.469.172-.934.524-1.227.644-.644 1.816-.644 2.457 0l1.988 1.988c.352.352.528.762.528 1.227 0 .469-.176.938-.528 1.23-.347.352-.758.528-1.226.528-.47 0-.938-.235-1.23-.528zm6.026 96.692a1.73 1.73 0 0 1-.996.933c-.175.06-.41.118-.586.118a1.702 1.702 0 0 1-1.636-1.168l-1.11-3.043c-.351-.934.118-1.93 1.051-2.223.469-.176.938-.117 1.348.059.406.175.758.527.933.996l1.114 3.039c.117.41.058.879-.118 1.289zm1.52-107.863h-3.684c-.996 0-1.754-.762-1.754-1.758 0-.992.758-1.754 1.754-1.754h3.684c.996 0 1.754.762 1.754 1.754 0 .996-.758 1.758-1.754 1.758zm2.281-17.844h-4.035a1.72 1.72 0 0 1-1.754-1.754c0-.992.758-1.754 1.754-1.754h4.035c.996 0 1.754.762 1.754 1.754a1.72 1.72 0 0 1-1.754 1.754zm7.02 117.984-2.985 1.055c-.175.059-.347.117-.582.117a1.707 1.707 0 0 1-1.64-1.172c-.293-.933.176-1.93 1.113-2.222l2.984-1.051c.934-.293 1.93.176 2.223 1.11.29.82-.176 1.812-1.113 2.163zm3.043-24.976c-.469 0-.938-.176-1.23-.528-.352-.351-.524-.757-.524-1.226s.172-.938.523-1.23l2.457-2.458c.703-.699 1.813-.699 2.457 0 .352.352.528.762.528 1.23 0 .47-.176.934-.528 1.227l-2.457 2.457c-.351.352-.757.528-1.226.528zm8.011 5.324c-.351.351-.757.527-1.226.527s-.938-.176-1.23-.527l-1.813-1.813c-.352-.351-.527-.761-.527-1.23s.175-.938.527-1.227c.703-.703 1.812-.703 2.457 0l1.812 1.813c.352.351.528.758.528 1.226 0 .47-.176.88-.528 1.23zm5.266-38.375c-.176.176-.41.234-.644.234-.235 0-.47-.058-.641-.234l-1.7-1.695a.845.845 0 0 1 0-1.227.85.85 0 0 1 1.231 0l1.696 1.695c.41.352.41.88.058 1.227zm2.691-13.16 3.508-3.508a.85.85 0 0 1 1.23 0 .845.845 0 0 1 0 1.226l-3.51 3.512c-.177.176-.411.235-.642.235-.234 0-.468-.059-.644-.235-.293-.293-.293-.879.059-1.23zm2.516 20.765v3.57a.9.9 0 0 1-.879.876.897.897 0 0 1-.875-.875v-3.57c0-.47.406-.876.875-.876s.88.407.88.875zm1.988 21.88c-.175.175-.41.234-.644.234-.234 0-.469-.059-.645-.235l-2.511-2.515a.85.85 0 0 1 0-1.23.845.845 0 0 1 1.226 0l2.516 2.515c.41.351.41.937.058 1.23zm0 0"/><path fill="#fff" d="M186.89 132.191c-18.6 0-34.1 13.512-37.144 31.235-.059-.348-.117-.7-.234-1.051l-.176-.879-2.867.645.176.879c.117.464.234.992.292 1.46h-.058l.176.645c-.703 7.66-3.332 14.855-7.664 20.883l-.524.699 2.399 1.7.523-.704a44.919 44.919 0 0 0 6.668-14.039c.41 3.566.703 7.254.82 11.172-.058.293-.058.527-.117.82l-.117.059.059.293c-.352 3.097-.817 6.433-1.872 9.531-.644 1.758-1.636 3.922-3.335 5.793-3.508-11.523-14.211-19.887-26.907-19.887-15.558 0-28.136 12.575-28.136 28.133 0 15.563 12.578 28.137 28.136 28.137 15.559 0 28.137-12.574 28.137-28.137 0-1.695-.176-3.332-.469-4.973 1.93-1.695 3.336-3.742 4.27-5.671-.176 3.218-.469 6.55-.817 10.004l-.117.875 2.922.292.117-.878c.528-5.262.88-10.235 1.055-14.915a16.213 16.213 0 0 0 1.93 2.985c1.754 2.164 3.976 3.8 6.14 5.32l.528-.699-.528.7.703.527 1.696-2.399-.7-.527c-1.988-1.461-4.097-2.922-5.617-4.797-2.105-2.629-3.215-6.14-4.152-9.356v-1.347c5.789 13.394 19.129 22.812 34.629 22.812 20.824 0 37.726-16.902 37.726-37.726.176-20.766-16.726-37.614-37.55-37.614zm-86.456 90.258c-.176.176-.407.235-.641.235-.234 0-.469-.059-.645-.235l-1.988-1.988a.85.85 0 0 1 0-1.23.845.845 0 0 1 1.227 0l1.988 1.988c.41.351.41.879.059 1.23zm15.328-16.32c-.176.176-.41.234-.645.234-.234 0-.469-.058-.644-.234l-1.461-1.465a.845.845 0 0 1 0-1.226.845.845 0 0 1 1.226 0l1.465 1.46c.41.293.41.88.059 1.23zm1.343 11.992c-.234 0-.468-.059-.644-.234a.856.856 0 0 1 0-1.23l2.691-2.692a.856.856 0 0 1 1.23 0 .85.85 0 0 1 0 1.23l-2.69 2.692c-.176.117-.352.234-.587.234zm3.743 10.586h-2.63a.901.901 0 0 1-.878-.879.9.9 0 0 1 .879-.875h2.629a.9.9 0 0 1 .879.875c0 .469-.41.879-.88.879zm7.78-19.07c-.175.175-.41.234-.644.234-.234 0-.464-.059-.64-.234l-1.989-1.989a.845.845 0 0 1 0-1.226.845.845 0 0 1 1.227 0l1.988 1.988c.41.352.41.875.059 1.227zm50.247-26.086h-3.45a.901.901 0 0 1-.878-.88c0-.468.41-.878.879-.878h3.449c.469 0 .879.41.879.879a.863.863 0 0 1-.879.879zm5.734 10.351c-.351.762-.761 1.52-1.289 2.223a.908.908 0 0 1-.699.352.945.945 0 0 1-.527-.176c-.41-.293-.528-.82-.235-1.227.41-.644.82-1.289 1.11-1.992.234-.465.703-.64 1.172-.406.527.293.703.816.468 1.226zm12.457.762c-.117.059-.175.059-.293.059a.88.88 0 0 1-.816-.586l-1.113-3.043c-.176-.465.058-.934.527-1.11.469-.175.938.059 1.113.528l1.11 3.039c.176.41-.059.937-.528 1.113zm11.817-8.656-2.98 1.05c-.118.06-.176.06-.294.06a.881.881 0 0 1-.82-.587c-.176-.465.117-.933.527-1.11l2.98-1.054c.47-.176.938.117 1.114.528.176.41-.058.937-.527 1.113zm.469-35.508h-2.399a.901.901 0 0 1-.879-.879.9.9 0 0 1 .88-.875h2.398a.9.9 0 0 1 .878.875.863.863 0 0 1-.878.879zm5.906 7.781-2.453 2.457c-.176.172-.41.23-.645.23-.234 0-.469-.058-.644-.23a.85.85 0 0 1 0-1.23l2.457-2.457a.845.845 0 0 1 1.226 0c.41.293.41.879.059 1.23zm3.746 8.54c-.234 0-.469-.06-.645-.235l-1.812-1.813a.85.85 0 0 1 0-1.23.845.845 0 0 1 1.226 0l1.817 1.816a.852.852 0 0 1 0 1.227c-.176.117-.352.234-.586.234zM98.387 186.882l.644-.586c3.918-3.684 6.727-8.305 9.477-12.75.41-.703.875-1.402 1.285-2.106.703-1.113 1.406-2.164 2.105-3.218 0 .175-.058.293-.058.468-.348 3.22-.176 6.375.058 9.125l.059.88 2.926-.235-.059-.879c-.234-2.633-.41-5.613-.117-8.539.352-2.867 1.172-5.266 2.457-7.254.234-.234.469-.469.762-.703l.586-.406-.059-.059a23.904 23.904 0 0 1 2.746-2.05l.762-.466-1.578-2.457-.762.47a27.048 27.048 0 0 0-3.566 2.687c-.118.117-.293.175-.41.293l-.118-.059-.234.293c-1.754 1.113-3.629 1.93-5.5 2.281.234-1.636.352-3.332.352-5.031 0-15.5-9.477-28.777-22.93-34.394a58.772 58.772 0 0 1 4.27-.7 38.977 38.977 0 0 0 13.628 2.63 78.98 78.98 0 0 0 3.98.995c-2.222.469-4.503.762-6.144.82h-.875l.117 2.922h.875c3.454-.117 9.067-1.167 12.52-2.398l.469.117v-.058c1.343.234 2.629.41 3.976.586l.875.117.352-2.926-.875-.117a53.598 53.598 0 0 1-4.504-.7l-.059-.292-.41.175c-.351-.117-.703-.175-1.055-.351 13.57-3.336 24.278-13.98 27.668-27.551.176 1.402.41 2.75.762 4.035a149.887 149.887 0 0 1-1.754 7.254l-.234.82 2.808.758.23-.816.704-2.633c3.805 9.3 11.172 16.73 20.414 20.531-.117 0-.234 0-.41.059l-.875.058.176 2.926.875-.058a98.27 98.27 0 0 0 7.136-.762h.176l.059.176.234-.118c2.281.41 4.68.645 7.078.645 1.754 0 3.453-.117 5.149-.352 3.918.758 7.836 2.106 11.523 3.977l.758.41 1.348-2.574-.762-.41c-2.164-1.11-4.387-2.047-6.61-2.75a38.009 38.009 0 0 0 9.712-4.68 56.397 56.397 0 0 0 10.527-2.57l.82-.293-.937-2.75-.817.293a64.069 64.069 0 0 1-4.68 1.402 37.429 37.429 0 0 0 11.758-27.316c0-20.824-16.906-37.73-37.73-37.73-10.297 0-19.594 4.097-26.383 10.765.762-2.75 1.582-5.5 2.574-8.133l.293-.816-2.75-.996-.289.82c-1.699 4.621-2.984 9.36-4.097 14.156-.582.817-1.11 1.637-1.637 2.453-.527-3.86-.879-8.246-.996-13.218v-.875l-2.922.058v.875c.176 6.785.7 12.578 1.637 17.492-.88 1.93-1.52 3.977-2.047 6.024-2.34-18.602-18.192-32.934-37.38-32.934-20.823 0-37.726 16.906-37.726 37.73 0 9.184 3.332 17.665 8.774 24.215-2.223-.992-4.446-1.988-6.551-2.921l-.82-.352-1.23 2.691.82.348c4.386 1.992 8.949 4.04 13.746 5.969a33.951 33.951 0 0 0 4.503 2.984c-1.578.348-3.214.758-4.738 1.168a36.502 36.502 0 0 0-9.183-1.168c-20.59 0-37.262 16.668-37.262 37.258 0 20.59 16.672 37.262 37.262 37.262 9.066 0 17.375-3.215 23.867-8.656zM198.18 66.21h4.035c.469 0 .879.406.879.875s-.41.879-.88.879h-4.034a.901.901 0 0 1-.88-.88.86.86 0 0 1 .88-.874zm-1.93 17.84h3.684a.9.9 0 0 1 .879.875c0 .469-.41.879-.88.879h-3.683a.901.901 0 0 1-.879-.88c0-.464.352-.874.879-.874zm-5.324 9.945a.85.85 0 0 1 1.23 0l1.989 1.988a.852.852 0 0 1 0 1.227c-.176.176-.41.234-.645.234-.234 0-.469-.058-.645-.234l-1.988-1.988c-.293-.352-.293-.938.059-1.227zm-4.68-22.23c0-.47.41-.875.879-.875.465 0 .875.406.875.875v4.152a.9.9 0 0 1-.875.879.901.901 0 0 1-.879-.879zm-8.363 15.851 2.633 2.633a.856.856 0 0 1 0 1.23c-.176.176-.41.235-.645.235-.234 0-.469-.059-.644-.235l-2.633-2.632a.85.85 0 0 1 0-1.23.92.92 0 0 1 1.289 0zM175.25 68.2a.9.9 0 0 1 .875-.879c.469 0 .879.41.879.88v3.859c0 .468-.41.879-.879.879a.9.9 0 0 1-.875-.88zm-10.473 36.793 2.457-2.457a.85.85 0 0 1 1.23 0 .845.845 0 0 1 0 1.227l-2.456 2.457c-.176.176-.41.234-.645.234-.234 0-.468-.058-.644-.234a.91.91 0 0 1 .058-1.227zM53.875 154.418l-1.523-1.52a.85.85 0 0 1 0-1.23.856.856 0 0 1 1.23 0l1.52 1.523a.845.845 0 0 1 0 1.227c-.176.176-.41.234-.645.234a.744.744 0 0 1-.582-.234zm2.863 23.164a.898.898 0 0 1-.875.879.901.901 0 0 1-.879-.879v-3.156c0-.469.41-.88.88-.88.468 0 .874.411.874.88zm6.145-31.586h-2.809a.901.901 0 0 1-.879-.879.9.9 0 0 1 .88-.875h2.808a.9.9 0 0 1 .875.875.862.862 0 0 1-.875.88zm8.597 20.473h-3.918a.901.901 0 0 1-.878-.88.9.9 0 0 1 .879-.874h3.917a.9.9 0 0 1 .88.875c0 .469-.41.879-.88.879zm1.344-12.051a.898.898 0 0 1-.875.879.901.901 0 0 1-.879-.879v-3.39c0-.47.41-.88.88-.88.468 0 .874.41.874.88zm37.906 10.473-.527.699c-.527.82-1.11 1.582-1.695 2.281.351-1.05.644-2.164.875-3.215a9.938 9.938 0 0 0 1.816-.351c-.176.175-.351.41-.469.586zm5.965-91.836h3.22c.468 0 .878.406.878.875 0 .468-.41.879-.879.879h-3.219a.898.898 0 0 1-.875-.88c0-.468.352-.874.875-.874zm-.757 25.386a.9.9 0 0 1-.88.875h-3.566a.9.9 0 0 1-.879-.875c0-.468.41-.879.88-.879h3.566c.468 0 .879.41.879.88zm-1.817-11.347c.469 0 .879.406.879.875s-.41.879-.879.879h-2.98a.901.901 0 0 1-.88-.88c0-.468.41-.874.88-.874zm-4.91-27.727c0-.469.406-.879.875-.879s.879.41.879.88v4.503a.9.9 0 0 1-.88.875.897.897 0 0 1-.874-.875zm-6.672 17.313a.898.898 0 0 1-.875.879h-2.867a.901.901 0 0 1-.879-.88c0-.468.41-.878.879-.878h2.867c.469 0 .875.41.875.879zM95.23 63.695h3.391a.9.9 0 0 1 .879.875c0 .47-.41.88-.879.88h-3.39a.901.901 0 0 1-.88-.88c0-.465.352-.875.88-.875zM85.227 76.094a.845.845 0 0 1 1.226 0l2.516 2.515a.85.85 0 0 1 0 1.23c-.176.177-.406.235-.64.235-.235 0-.47-.058-.645-.234l-2.516-2.516a.906.906 0 0 1 .059-1.23zm-8.54 97.219-2.046 2.046c-.176.176-.41.235-.645.235-.234 0-.469-.059-.644-.235a.845.845 0 0 1 0-1.226l2.046-2.047a.85.85 0 0 1 1.23 0c.352.289.352.875.06 1.226zm15.735-18.25c-.176.175-.41.234-.645.234-.234 0-.468-.059-.644-.234a.852.852 0 0 1 0-1.227l2.457-2.457a.85.85 0 0 1 1.23 0 .845.845 0 0 1 0 1.226zm0 0"/><path fill="#666e34" d="m137.402 121.836 1.114.41a40.062 40.062 0 0 0 1.695-5.73c45.098-30.887 16.73-77.739 16.73-77.739-50.363 20.649-20.765 73.528-18.015 78.207a46.561 46.561 0 0 1-1.524 4.852zm1.641-42.816c2.57 5.03 4.445 10.414 5.496 15.968.645-3.215 1.23-6.375 1.754-9.535.234-1.402.527-2.863.762-4.27-1.754-5.906-2.75-13.453-3.043-23.105l1.172-.058c.234 8.308.992 15.093 2.34 20.53 1.519-7.952 3.273-15.968 6.081-23.628l1.114.406c-2.633 7.137-4.328 14.684-5.793 22.172 2.926-5.441 6.96-10.766 11.23-14.8l.82.878c-5.206 4.914-10.003 11.758-12.867 18.367-.234 1.285-.468 2.516-.703 3.801-.469 2.457-.879 4.973-1.402 7.547 2.453-4.504 5.672-8.656 9.414-12.11l.82.88c-4.68 4.328-8.422 9.652-10.996 15.44h-.058c-.059.235-.118.528-.176.763v.058h-.059c-.644 3.04-1.344 6.082-2.164 9.067l-1.113-.293c.82-2.926 1.465-5.91 2.11-8.891a59.576 59.576 0 0 0-5.91-18.602zm11.523 53.406.118 1.168a50.328 50.328 0 0 0 6.609-1.168c6.434 2.457 53.93 18.894 64.754-26.207 0 0-44.457-18.309-65.106 25.035-2.105.586-4.21.937-6.375 1.172zm21.582-6.785c5.91-2.457 10.063-7.723 14.508-13.805l.934.7c-3.684 5.089-7.192 9.593-11.695 12.46a97.872 97.872 0 0 0 15.734-4.328c3.566-3.219 6.434-7.254 8.363-11.64l1.055.468c-1.64 3.742-3.922 7.195-6.727 10.117 2.453-.992 4.91-2.047 7.25-3.273l.528 1.05c-2.223 1.114-4.504 2.106-6.786 3.044 5.208-.352 10.297-1.344 14.977-2.985l.406 1.114c-5.847 2.046-12.34 3.101-18.773 3.16a99.414 99.414 0 0 1-12.285 3.625c5.906.351 11.875 1.988 17.37 4.855l-.523 1.05c-7.547-3.858-16.027-5.495-23.867-4.503v-.059a89.28 89.28 0 0 1-7.957.88l-.058-1.173c2.457-.113 4.972-.406 7.546-.757zm-29.246 21.933a59.098 59.098 0 0 1-1.054-4.387l-1.168.235c.293 1.344.644 2.75.992 4.094-3.332 5.793-30.473 55.922 17.61 75.632.058 0 27.609-45.625-16.38-75.574zm17.664 31.59-.527 1.05a24.357 24.357 0 0 1-9.883-9.886c.758 5.031 1.168 10.297 1.285 15.969.938 3.277 2.047 6.96 4.329 9.77 1.582 1.988 3.687 3.511 5.792 4.972l-.703.938c-2.105-1.524-4.328-3.102-5.964-5.149-1.583-1.93-2.633-4.21-3.395-6.55-.059 5.847-.41 12.105-1.11 18.894l-1.171-.117c.586-5.735.937-11.118 1.113-16.145-.234 1.11-.586 2.281-.937 3.39-.993 2.868-3.043 6.786-6.903 9.067l-.586-.992c3.57-2.11 5.442-5.793 6.38-8.484 1.226-3.508 1.694-7.43 2.046-10.88-.176-5.734-.644-11.054-1.465-16.144-1.11 6.668-3.683 12.985-7.543 18.426l-.937-.703c4.445-6.2 7.136-13.63 7.781-21.465-.176-.762-.293-1.465-.469-2.223l1.11-.234c.175.758.351 1.46.468 2.223 1.461 5.964 5.735 11.289 11.29 14.273zm-28.601-46.504c-23.692-55.394-79.672-34.043-79.672-34.043 12.695 59.899 79.672 34.043 79.672 34.043zM95.87 120.492c-5.496-.351-13.629 1.695-18.777 3.977l-.465-1.051c4.27-1.871 10.644-3.688 16.144-4.035-8.367-2.985-16.378-6.496-23.75-9.828l.47-1.055c7.195 3.277 14.972 6.668 23.105 9.594-5.207-4.621-9.067-10.703-12.578-16.145l.996-.644c3.976 6.261 8.48 13.28 14.855 17.902 4.68 1.578 9.477 2.98 14.332 4.035-5.031-3.336-9.125-9.418-11.348-15.152l1.114-.406c2.746 7.136 8.539 14.972 15.383 16.55 1.636.293 3.273.528 4.914.762l-.176 1.172a61.041 61.041 0 0 1-4.563-.703c-3.336 1.226-9.007 2.34-12.52 2.457l-.058-1.172c2.692-.059 6.903-.816 10.121-1.754-5.851-1.168-11.64-2.75-17.257-4.621zm67.035 23.047s.82 46.914 50.54 33.633c0 0-8.95-42.817-50.54-33.633zm28.43 19.54c-.527 0-1.113 0-1.637-.06 1.988.993 4.094 1.813 6.258 2.512l-.352 1.114c-2.515-.762-4.914-1.813-7.253-2.985.585.82 1.171 1.758 1.695 2.692l-1.05.527c-.997-1.871-2.224-3.57-3.571-4.914-3.567-2.164-6.785-4.856-9.59-7.957.992 2.75 2.687 6.789 4.504 9.183l-.938.704c-2.75-3.743-5.148-10.82-5.617-12.282-.23-.293-.406-.527-.64-.82l.933-.703c.117.176.234.293.352.469 4.152 1.226 8.074 1.343 12.812 1.343v1.172c-4.215 0-7.84-.117-11.582-.996 3.04 3.512 6.61 6.61 10.586 9.008 4.152 1.406 8.774.586 12.344-.234l.293 1.113c-2.223.586-4.856 1.113-7.547 1.113zm-108.86 29.714s43.579 3.684 46.739-38.785c0 0-52.352-12.633-46.738 38.785zm34.16-33.285a31.455 31.455 0 0 1 3.512-2.692l.645.996c-1.523.934-2.926 2.106-4.273 3.391-1.403 2.106-2.282 4.68-2.63 7.723-.35 3.043-.117 6.082.114 8.715l-1.168.117c-.234-2.692-.469-5.848-.059-8.95.176-1.578.528-3.101.996-4.445-1.699 2.106-3.218 4.387-4.68 6.668a40.66 40.66 0 0 0-1.288 2.106c-2.692 4.386-5.555 8.949-9.36 12.578l-.816-.88c3.683-3.507 6.492-7.952 9.183-12.343a.434.434 0 0 0 .118-.23c-3.22 2.57-6.961 4.035-10.883 4.093v-1.171c5.851-.118 10.996-3.274 14.918-9.067a53.283 53.283 0 0 1 2.808-3.625c-1.933.817-3.863 1.344-5.734 1.403l-.059-1.168c2.81-.118 5.965-1.29 8.657-3.22zm0 0"/><path fill="#925b32" d="M76.102 46.496c-3.16 3.977-8.48 5.031-11.875 2.281-3.391-2.691-3.567-8.129-.41-12.05 3.16-3.918 8.484-5.028 11.874-2.282 3.336 2.692 3.57 8.075.41 12.051zm90.492 193.266c-4.274 1.113-6.903 4.972-5.969 8.597.938 3.63 5.148 5.676 9.418 4.563 4.27-1.11 6.902-4.969 5.969-8.598-.938-3.625-5.149-5.672-9.418-4.562zm20.18-18.075c-6.61 1.754-10.82 7.782-9.301 13.395 1.52 5.617 8.07 8.832 14.683 7.078 6.61-1.754 10.82-7.777 9.297-13.394-1.52-5.618-8.012-8.832-14.68-7.078zM59.84 215.781c-5.79.758-9.828 6.844-8.95 13.63.88 6.784 6.258 11.698 12.11 10.995 5.79-.761 9.824-6.844 8.95-13.629-.88-6.785-6.263-11.757-12.11-10.996zm128.219 31.352c-2.922.762-4.797 3.453-4.153 5.965.645 2.515 3.57 3.922 6.551 3.16 2.926-.762 4.797-3.45 4.152-5.965-.64-2.516-3.566-3.922-6.55-3.16zm32.992-199.64c-.762-2.927-3.453-4.798-5.965-4.153-2.516.64-3.922 3.566-3.16 6.55.762 2.981 3.449 4.797 5.965 4.153 2.515-.703 3.922-3.629 3.16-6.55zM52.703 212.68c2.516-.645 3.918-3.567 3.16-6.551-.761-2.926-3.453-4.797-5.968-4.152-2.516.64-3.918 3.566-3.157 6.55.758 2.98 3.45 4.856 5.965 4.153zm5.149-157.528c2.574 0 4.62-1.754 4.62-3.976 0-2.223-2.046-3.977-4.62-3.977-2.575 0-4.622 1.754-4.622 3.977 0 2.222 2.047 3.976 4.622 3.976zm-2.164-14.386c1.519.582 3.332-.41 4.035-2.223.644-1.816-.059-3.746-1.578-4.328-1.524-.586-3.336.406-4.04 2.222-.699 1.813.06 3.743 1.583 4.329zm25.62-20.473c-3.687 1.52-5.558 5.262-4.269 8.363 1.285 3.102 5.262 4.446 8.95 2.926 3.683-1.523 5.554-5.266 4.269-8.367-1.29-3.156-5.324-4.445-8.95-2.922zm0 0"/></svg>