<svg xmlns="http://www.w3.org/2000/svg" width="273" viewBox="0 0 204.75 162" height="216" version="1.0"><defs><clipPath id="a"><path d="M42.32 61.082h1.516v1.512H42.32zm0 0"/></clipPath><clipPath id="b"><path d="M43.078 61.082a.755.755 0 1 0 0 1.512.756.756 0 1 0 0-1.512zm0 0"/></clipPath><clipPath id="c"><path d="M.574.281h203.75v161.051H.574zm0 0"/></clipPath></defs><g clip-path="url(#a)"><g clip-path="url(#b)"><path fill="#fff" d="M42.32 61.082h1.516v1.512H42.32zm0 0"/></g></g><g clip-path="url(#c)"><path d="M40.242 46.488c-5.054.38-17.383 2.078-26.867 9.696C6.273 61.89.617 70.777.575 84.742c-.044 13.535 6 22.035 13.515 27.422 8.504 6.098 19.117 7.938 24.672 8.492 1.101 3.739 1.855 8.45 2.164 13.563.336 5.566.133 11.601-.824 17.433l-1.594 9.684 8.937-4.063c9.73-4.472 27.899-8.18 46.977-7.957 4.793.055 9.629.395 14.45.887 3.218.328 6.401.688 9.581 1.176 4.086.633 8.02 1.375 11.95 2.418 4.144 1.098 8.038 2.238 11.89 4.004-2.965-2.985-6.047-5.594-9.621-7.899-3.535-2.28-7.297-4.074-11.277-5.636-3.137-1.23-6.36-2.196-9.665-2.97-2.183-.51-4.394-.874-6.617-1.175-8.437-1.137-16.98-1.144-25.027-.594-10.875.75-20.867 2.723-28.672 5.125a91.787 91.787 0 0 0-.004-11.07c-.488-7.95-2-15.062-4.02-19.918l-1.335-3.227h-3.5s-12.89.067-22.442-6.71c-5.218-3.704-9.308-9.618-9.336-18.985-.03-10.086 3.813-16.61 8.91-20.77 7.06-5.753 16.184-7.269 20.461-7.667.118 1.414.297 2.812.532 4.183 1.894 11.008 7.191 20.367 14.82 25-6.188-5.59-9.281-15.05-9.383-25.488-.078-8.523 2.07-17.57 6.672-25.625 2.492-4.36 5.773-8.316 9.82-11.773 7.86-6.704 18.852-11.157 33.735-10.98 16.125.105 26.902 4.98 34.043 11.64 14.054 13.101 14.058 32.59 14.058 32.59v6.453l6.41-.77s16.833-2.129 29.563 4.84c7.105 3.89 12.7 10.898 12.75 23.188.098 11.75-4.11 18.539-9.918 22.265-4.777 3.07-10.406 4.125-15.176 4.574-4.55.43-8.383.293-10.156.188.262-.367.508-.738.742-1.121a25.037 25.037 0 0 0 2.903-6.621c.468-1.723.816-3.446.902-5.278.187-3.867-.39-7.687-1.867-11.78-.141 2.296-.547 4.32-1.067 6.39-.777 3.117-2.058 5.773-3.558 8.375-.977 1.695-2.121 3.218-3.309 4.734-.785 1-1.613 1.953-2.441 2.914-2.133 2.488-4.399 4.805-7.082 6.711-4.309 3.066-8.996 5.387-14.325 6.262 5.758.945 11.457.41 16.829-1.551 1.898-.695 3.68-1.605 5.37-2.68a46.358 46.358 0 0 0-1.1 10.868c.112 6.824 1.433 13.742 3.05 20.945.402-7.145 1.187-13.895 2.676-20.344.707-3.07 1.601-5.973 2.8-8.726 2.442.402 6.075.816 10.243.707 6.324-.172 13.765-1.735 20.164-5.649 8.394-5.133 15.218-14.43 15.351-31.183.059-13.555-4.933-22.528-11.785-28.528-11.215-9.824-28.14-11.176-37.016-11.137-1.148-8.296-4.906-23.609-17.199-35.023C129.395 6.699 116.23.379 96.395.332 81.235.348 69.348 4.27 60.46 10.559c-2.887 2.043-5.477 4.32-7.715 6.824-3.492 3.898-6.262 8.226-8.258 12.828a54.907 54.907 0 0 0-4.246 16.277zm0 0" fill-rule="evenodd"/></g></svg>