<svg xmlns="http://www.w3.org/2000/svg" width="264" viewBox="0 0 198 314.25" height="419" version="1.0"><path fill="#040606" d="M101.652 209.242c-1.257 1.531-3.406.95-4.207-.277-4.785-1.219-2.218-20.106-1.82-24.563 1.355-6.968 2.39-14.84 7.535-20.148 4.95-4.703 13.422-3.965 15.742 2.992 2.778 14.45-8.93 30.871-17.25 41.996zM82.48 156.605c-1.636 1.13-3.562.012-4.023-1.382-4.219-2.184 3.043-19.188 4.465-23.16 3.18-6.52 6.285-13.872 12.539-18 5.57-3.356 13.984-1.395 14.883 5.82.05 14.539-17.114 28.46-27.864 36.722zm14.872-71.84c-3.266 2.551-26.082 19.993-27.215 11.903C65.859 92.211 82.78 70 86.988 66.191c17.153-17.324 33.34 3.008 10.364 18.575zM64.199 51.36c-.82 1.809-3.015 1.805-4.113.813-5.059.156-7.902-19.832-8.625-24.36-.7-6.597-1.73-15.527 2.566-21.187 4.11-5.445 11.996-5.914 15.676.176 5.817 13.73-.473 31.3-5.504 44.558zM43.098 77.586C37.602 81.21 18.047 61.3 14.676 56.324.719 37.398 22.777 24.484 35.129 49.47c1.976 3.226 16.297 29.156 7.969 28.117zM14.78 79.953c6.66.512 11.93 6.64 16.012 11.309 2.594 3.136 20.566 25.492 12.453 26.582-4.535 4.406-27.277-12.035-31.277-16.254C3.816 95.96 1.934 80 14.78 79.953zm4.114 52.227c6.949-.93 13.835 4.168 19.125 8.004 3.14 2.543 24.761 19.097 17.316 22.09-3.656 5.195-28.52-4.95-33.633-8.044-9.535-3.351-15.996-19.148-2.808-22.05zm20.468 52.695c6.907-1.45 14.09 3.863 19.325 7.617 3.195 2.504 25.234 19.344 17.746 22.38-3.348 5.253-28.727-5.005-33.649-8.036-9.265-3.375-15.89-18.234-3.422-21.961zm18.88-50.188c7.19 37.637 23.366 73.434 46.378 104.07 23.125 30.794 53.352 56.153 88.238 72.677 2.793 1.32 4.305-3.23 1.543-4.54-19.074-9.03-36.851-20.894-52.636-34.874-28.102-24.887-50.22-56.262-64.59-90.872C62.754 146.395 56.352 108.336 59.82 70.82c.285-3.078-4.508-3.398-4.793-.332-1.976 21.407-.816 43.082 3.215 64.2"/></svg>