<svg xmlns="http://www.w3.org/2000/svg" width="263" viewBox="0 0 197.25 314.25" height="419" version="1.0"><path fill="#040606" d="M95.813 209.168c1.257 1.527 3.402.95 4.203-.273 4.777-1.22 2.214-20.079 1.816-24.532-1.352-6.957-2.387-14.816-7.523-20.12-4.942-4.696-13.403-3.958-15.72 2.987-2.773 14.43 8.919 30.829 17.224 41.938zm19.144-52.563c1.637 1.125 3.559.012 4.02-1.378 4.214-2.18-3.036-19.16-4.457-23.125-3.176-6.512-6.278-13.856-12.524-17.98-5.562-3.349-13.965-1.392-14.86 5.812-.05 14.523 17.087 28.421 27.821 36.671zm-14.848-71.738c3.262 2.547 26.047 19.965 27.176 11.887C131.56 92.3 114.66 70.12 110.461 66.32c-17.133-17.3-33.297 3.004-10.352 18.547zm33.106-33.36c.816 1.806 3.012 1.802 4.11.813 5.05.157 7.89-19.804 8.613-24.324.695-6.59 1.726-15.508-2.567-21.16-4.101-5.434-11.976-5.906-15.652.176-5.809 13.71.469 31.258 5.496 44.496zm21.07 26.192c5.488 3.617 25.016-16.265 28.383-21.23 13.937-18.903-8.09-31.797-20.422-6.852-1.973 3.227-16.273 29.117-7.96 28.082zm28.278 2.364c-6.653.511-11.915 6.628-15.989 11.289-2.59 3.132-20.539 25.46-12.437 26.546 4.531 4.399 27.238-12.02 31.234-16.23 8.145-5.617 10.02-21.559-2.809-21.606zm-4.11 52.152c-6.937-.93-13.812 4.164-19.098 7.996-3.132 2.539-24.722 19.07-17.289 22.055 3.653 5.191 28.48-4.942 33.586-8.028 9.52-3.347 15.973-19.125 2.801-22.023zm-20.437 52.62c-6.895-1.444-14.07 3.856-19.297 7.61-3.192 2.496-25.2 19.317-17.719 22.344 3.344 5.25 28.684-4.996 33.598-8.023 9.254-3.371 15.867-18.211 3.418-21.93zM139.16 134.72c-7.18 37.586-23.332 73.332-46.308 103.926-23.094 30.746-53.282 56.07-88.118 72.57-2.785 1.32-4.296-3.223-1.539-4.531 19.047-9.02 36.797-20.868 52.563-34.825 28.062-24.851 50.144-56.183 64.496-90.746 14.406-34.703 20.797-72.71 17.336-110.168-.285-3.078 4.5-3.394 4.781-.336 1.977 21.38.816 43.024-3.21 64.11"/></svg>