<svg xmlns="http://www.w3.org/2000/svg" width="329" viewBox="0 0 246.75 237" height="316" version="1.0"><defs><clipPath id="a"><path d="M.5.586h245.75v236.012H.5zm0 0"/></clipPath></defs><g clip-path="url(#a)"><path d="M10.836 218.828c0-21.84 8.937-41.7 23.328-56.09 14.395-14.398 34.242-23.34 56.074-23.34h.313c16.094 0 31.105 4.86 43.648 13.176.012.012.031.02.043.031a79.804 79.804 0 0 1 12.38 10.133 80.129 80.129 0 0 1 8.366 9.836c.032.035.055.078.086.113a79.378 79.378 0 0 1 10.414 19.97c.008.011.008.015.012.03a78.774 78.774 0 0 1 4.453 26.149 2.153 2.153 0 0 1-2.148 2.129H12.992a2.16 2.16 0 0 1-2.156-2.137zm75.644-87.785c1.247-.055 2.5-.078 3.758-.078h.313c1.258 0 2.511.023 3.754.078 1.246.055 2.082-1.277 1.492-2.383a6.528 6.528 0 0 0-.89-1.281l-.184-.184c-1.11-1.16-2.637-1.886-4.313-1.886h-.039c-1.676 0-3.203.726-4.332 1.886a6.398 6.398 0 0 0-1.035 1.43c-.598 1.117.219 2.473 1.476 2.418zM246.125 20.84v213.726c0 1.11-.902 2.012-2.016 2.012h-53.59c-1.214 0-2.124-1.062-1.996-2.266a11.992 11.992 0 0 0-3.457-9.816 12.072 12.072 0 0 0-5.238-3.082c-.812-.226-1.46-1.117-1.457-1.957 0-.223.008-.43.008-.621 0-7.184-.871-14.172-2.516-20.863-.316-1.266.649-2.48 1.95-2.48H217.5a4.22 4.22 0 0 0 4.184-4.735c-.25-2.149-2.196-3.703-4.364-3.703h-43.562a2.004 2.004 0 0 1-1.86-1.262 86.823 86.823 0 0 0-3.98-8.418c-.723-1.348.234-2.984 1.762-2.984h47.82a4.221 4.221 0 0 0 4.184-4.735c-.25-2.148-2.196-3.703-4.364-3.703h-55.757a2 2 0 0 1-1.598-.797l-9.79-10.781a.634.634 0 0 1 .45-1.082H217.5a4.22 4.22 0 0 0 4.184-4.734c-.25-2.149-2.196-3.7-4.364-3.7h-78.933c-.383 0-.75-.113-1.07-.316a87.23 87.23 0 0 0-32.262-12.371l.004-.164c0-3.969-1.52-7.613-3.989-10.328l-.238-.278a14.894 14.894 0 0 0-4.965-3.43c-.762-.32-1.265-1.042-1.265-1.867V20.84c0-1.11.902-2.012 2.011-2.012h147.508c1.102 0 2.004.902 2.004 2.012zm-29.168 22.945-.273-.27c-3.536-3.382-8.274-4.843-13.11-4.456-4.734.375-9.578 2.523-13.414 6.359-3.836 3.84-5.98 8.684-6.355 13.418-.215 2.695.14 5.36 1.086 7.8.547 1.407.246 2.997-.817 4.067l-8.531 8.531a3.751 3.751 0 0 1-5.305 0l-7.332-7.336a3.758 3.758 0 0 1 0-5.304l2.938-2.942a4.258 4.258 0 0 0 0-6.023l-22.457-22.465a4.213 4.213 0 0 0-6.301.387c-1.34 1.703-1.063 4.176.465 5.707l19.351 19.355c.02.02.02.043 0 .063l-2.582 2.586a.048.048 0 0 1-.062 0l-19.469-19.496a4.218 4.218 0 0 0-6.305.386c-1.336 1.703-1.058 4.176.47 5.707l19.35 19.356c.02.02.02.043 0 .062l-2.585 2.586a.037.037 0 0 1-.059 0l-19.476-19.48a4.208 4.208 0 0 0-6.301.387c-1.34 1.699-1.063 4.171.465 5.703l22.336 22.34a4.253 4.253 0 0 0 6.02 0l2.94-2.938a3.746 3.746 0 0 1 5.301 0l7.336 7.336a3.758 3.758 0 0 1 0 5.305l-23.422 23.43a4.218 4.218 0 0 0 .387 6.304c1.7 1.34 4.172 1.063 5.703-.473l23.297-23.308a3.753 3.753 0 0 1 5.3 0l23.302 23.308c1.527 1.528 4 1.805 5.699.465a4.212 4.212 0 0 0 .387-6.305l-23.418-23.43a3.758 3.758 0 0 1 0-5.304l8.515-8.52c1.063-1.062 2.653-1.363 4.059-.824 2.441.938 5.113 1.301 7.808 1.086 4.73-.375 9.575-2.527 13.41-6.367 3.837-3.836 5.985-8.68 6.356-13.414.395-4.96-1.144-9.812-4.707-13.379zm-6.129 5.774c-1.726-1.61-4.105-2.293-6.598-2.094-2.812.219-5.734 1.547-8.109 3.922-2.375 2.37-3.7 5.297-3.922 8.11-.195 2.491.485 4.874 2.086 6.6.063.055.125.11.184.173.058.054.113.117.168.175 1.73 1.606 4.113 2.293 6.597 2.094 2.805-.219 5.73-1.547 8.106-3.922 2.379-2.375 3.703-5.305 3.922-8.11.203-2.577-.532-5.042-2.258-6.773zM244.868.652l-63.595 7.493c-1.402.164-1.28 2.246.13 2.246h63.593c.617 0 1.129-.504 1.129-1.13V1.778c0-.675-.59-1.203-1.258-1.125zm-68.282 228.75H4.207c-.98 0-1.879.407-2.527 1.055a3.561 3.561 0 0 0 0 5.059 3.565 3.565 0 0 0 2.527 1.058h172.379c.98 0 1.879-.406 2.527-1.058a3.565 3.565 0 0 0 1.059-2.528c0-.984-.406-1.879-1.059-2.531a3.584 3.584 0 0 0-2.527-1.055zm0 0" fill-rule="evenodd"/></g></svg>