<svg xmlns="http://www.w3.org/2000/svg" xmlns:xlink="http://www.w3.org/1999/xlink" width="68" zoomAndPan="magnify" viewBox="0 0 50.879997 51.749998" height="69" preserveAspectRatio="xMidYMid meet" version="1.0"><defs><clipPath id="f08fb9f4cc"><path d="M 8.417969 4.605469 L 50.214844 4.605469 L 50.214844 46.402344 L 8.417969 46.402344 Z M 8.417969 4.605469 " clip-rule="nonzero"/></clipPath><clipPath id="6e934052a4"><path d="M 0.558594 0.230469 L 50.566406 0.230469 L 50.566406 50.988281 L 0.558594 50.988281 Z M 0.558594 0.230469 " clip-rule="nonzero"/></clipPath></defs><g clip-path="url(#f08fb9f4cc)"><path fill="#ffffff" d="M 50.214844 25.503906 C 50.214844 26.1875 50.183594 26.871094 50.117188 27.550781 C 50.046875 28.234375 49.949219 28.910156 49.816406 29.582031 C 49.679688 30.25 49.515625 30.914062 49.316406 31.570312 C 49.117188 32.226562 48.886719 32.867188 48.625 33.5 C 48.363281 34.132812 48.070312 34.75 47.75 35.355469 C 47.425781 35.957031 47.074219 36.546875 46.695312 37.113281 C 46.3125 37.683594 45.90625 38.234375 45.472656 38.761719 C 45.039062 39.289062 44.578125 39.796875 44.09375 40.28125 C 43.609375 40.765625 43.105469 41.222656 42.574219 41.660156 C 42.046875 42.09375 41.496094 42.5 40.929688 42.878906 C 40.359375 43.261719 39.773438 43.613281 39.167969 43.933594 C 38.566406 44.257812 37.949219 44.550781 37.316406 44.8125 C 36.683594 45.074219 36.039062 45.304688 35.382812 45.503906 C 34.730469 45.703125 34.066406 45.867188 33.394531 46 C 32.722656 46.132812 32.046875 46.234375 31.367188 46.300781 C 30.683594 46.367188 30 46.402344 29.316406 46.402344 C 28.632812 46.402344 27.949219 46.367188 27.269531 46.300781 C 26.585938 46.234375 25.910156 46.132812 25.238281 46 C 24.570312 45.867188 23.90625 45.703125 23.25 45.503906 C 22.59375 45.304688 21.953125 45.074219 21.320312 44.8125 C 20.6875 44.550781 20.070312 44.257812 19.464844 43.933594 C 18.863281 43.613281 18.277344 43.261719 17.707031 42.878906 C 17.136719 42.5 16.589844 42.09375 16.058594 41.660156 C 15.53125 41.222656 15.023438 40.765625 14.539062 40.28125 C 14.054688 39.796875 13.597656 39.289062 13.164062 38.761719 C 12.726562 38.234375 12.320312 37.683594 11.941406 37.113281 C 11.558594 36.546875 11.207031 35.957031 10.886719 35.355469 C 10.5625 34.75 10.269531 34.132812 10.007812 33.5 C 9.746094 32.867188 9.515625 32.226562 9.316406 31.570312 C 9.121094 30.914062 8.953125 30.25 8.820312 29.582031 C 8.6875 28.910156 8.585938 28.234375 8.519531 27.550781 C 8.453125 26.871094 8.417969 26.1875 8.417969 25.503906 C 8.417969 24.820312 8.453125 24.136719 8.519531 23.453125 C 8.585938 22.773438 8.6875 22.097656 8.820312 21.425781 C 8.953125 20.753906 9.121094 20.089844 9.316406 19.4375 C 9.515625 18.78125 9.746094 18.136719 10.007812 17.503906 C 10.269531 16.875 10.5625 16.253906 10.886719 15.652344 C 11.207031 15.046875 11.558594 14.460938 11.941406 13.890625 C 12.320312 13.324219 12.726562 12.773438 13.164062 12.246094 C 13.597656 11.714844 14.054688 11.210938 14.539062 10.726562 C 15.023438 10.242188 15.53125 9.78125 16.058594 9.347656 C 16.589844 8.914062 17.136719 8.507812 17.707031 8.125 C 18.277344 7.746094 18.863281 7.394531 19.464844 7.070312 C 20.070312 6.75 20.6875 6.457031 21.320312 6.195312 C 21.953125 5.933594 22.59375 5.703125 23.25 5.503906 C 23.90625 5.304688 24.570312 5.140625 25.238281 5.007812 C 25.910156 4.871094 26.585938 4.773438 27.269531 4.703125 C 27.949219 4.636719 28.632812 4.605469 29.316406 4.605469 C 30 4.605469 30.683594 4.636719 31.367188 4.703125 C 32.046875 4.773438 32.722656 4.871094 33.394531 5.007812 C 34.066406 5.140625 34.730469 5.304688 35.382812 5.503906 C 36.039062 5.703125 36.683594 5.933594 37.316406 6.195312 C 37.949219 6.457031 38.566406 6.75 39.167969 7.070312 C 39.773438 7.394531 40.359375 7.746094 40.929688 8.125 C 41.496094 8.507812 42.046875 8.914062 42.574219 9.347656 C 43.105469 9.78125 43.609375 10.242188 44.09375 10.726562 C 44.578125 11.210938 45.039062 11.714844 45.472656 12.246094 C 45.90625 12.773438 46.3125 13.324219 46.695312 13.890625 C 47.074219 14.460938 47.425781 15.046875 47.75 15.652344 C 48.070312 16.253906 48.363281 16.875 48.625 17.503906 C 48.886719 18.136719 49.117188 18.78125 49.316406 19.4375 C 49.515625 20.089844 49.679688 20.753906 49.816406 21.425781 C 49.949219 22.097656 50.046875 22.773438 50.117188 23.453125 C 50.183594 24.136719 50.214844 24.820312 50.214844 25.503906 Z M 50.214844 25.503906 " fill-opacity="1" fill-rule="nonzero"/></g><g clip-path="url(#6e934052a4)"><path fill="#211d1d" d="M 7.867188 33.269531 L 25.804688 33.269531 L 25.804688 31.476562 L 7.867188 31.476562 Z M 32.699219 27.671875 L 7.867188 27.671875 L 7.867188 29.464844 L 32.699219 29.464844 Z M 7.867188 25.660156 L 29.328125 25.660156 L 29.328125 23.867188 L 7.867188 23.867188 Z M 7.867188 20.0625 L 7.867188 21.855469 L 25.804688 21.855469 L 25.804688 20.0625 Z M 27.859375 8.53125 C 28.027344 10.085938 28.632812 11.21875 30.683594 13.796875 C 31.257812 14.527344 31.96875 15.382812 32.765625 16.347656 C 34.601562 18.554688 36.386719 20.652344 38.199219 22.738281 C 40 20.667969 41.785156 18.570312 43.640625 16.34375 C 44.039062 15.867188 44.40625 15.425781 44.742188 15.011719 C 47.652344 11.464844 48.359375 10.257812 48.539062 8.535156 L 48.542969 8.53125 C 48.664062 7.414062 48.757812 4.671875 46.996094 3.359375 C 46.242188 2.796875 44.832031 2.277344 42.382812 3 C 40.574219 3.539062 39.429688 4.730469 38.910156 5.390625 L 38.203125 6.289062 L 37.496094 5.394531 C 36.855469 4.582031 35.726562 3.507812 34.019531 3 C 33.160156 2.75 32.433594 2.648438 31.8125 2.648438 C 30.660156 2.648438 29.890625 2.996094 29.40625 3.359375 C 27.644531 4.675781 27.738281 7.414062 27.859375 8.53125 Z M 26.070312 8.726562 C 25.917969 7.304688 25.824219 3.796875 28.328125 1.925781 C 29.40625 1.121094 31.359375 0.355469 34.523438 1.28125 C 36.15625 1.765625 37.363281 2.648438 38.203125 3.492188 C 38.992188 2.703125 40.207031 1.777344 41.875 1.28125 C 45.039062 0.351562 46.992188 1.117188 48.074219 1.925781 C 50.570312 3.792969 50.484375 7.300781 50.328125 8.726562 C 50.089844 10.988281 49.070312 12.5625 46.136719 16.144531 C 45.792969 16.5625 45.421875 17.007812 45.019531 17.492188 C 42.925781 20.003906 40.917969 22.359375 38.878906 24.691406 L 38.203125 25.46875 L 37.523438 24.695312 C 35.464844 22.339844 33.457031 19.984375 31.378906 17.488281 C 30.574219 16.519531 29.859375 15.652344 29.273438 14.910156 C 27 12.046875 26.28125 10.660156 26.070312 8.726562 Z M 50.398438 22.773438 L 50.398438 33.292969 C 50.398438 38.425781 46.207031 42.601562 41.058594 42.601562 L 18.59375 42.601562 L 5.085938 50.726562 C 4.941406 50.816406 4.78125 50.855469 4.621094 50.855469 C 4.398438 50.855469 4.175781 50.773438 4.003906 50.613281 C 3.710938 50.335938 3.636719 49.902344 3.824219 49.542969 L 5.96875 45.460938 C 6.515625 44.417969 7.066406 43.371094 7.617188 42.324219 C 3.515625 41.304688 0.558594 37.621094 0.558594 33.292969 L 0.558594 22.773438 C 0.558594 17.636719 4.746094 13.457031 9.894531 13.457031 L 25.476562 13.457031 C 25.976562 13.457031 26.375 13.859375 26.375 14.355469 C 26.375 14.851562 25.976562 15.25 25.476562 15.25 L 9.894531 15.25 C 5.738281 15.25 2.355469 18.625 2.355469 22.773438 L 2.355469 33.292969 C 2.355469 37.140625 5.246094 40.351562 9.078125 40.765625 C 9.371094 40.796875 9.632812 40.972656 9.773438 41.234375 C 9.910156 41.496094 9.914062 41.808594 9.773438 42.074219 C 9.039062 43.480469 8.300781 44.886719 7.558594 46.292969 L 6.90625 47.539062 L 17.878906 40.941406 C 18.019531 40.855469 18.179688 40.8125 18.34375 40.8125 L 41.058594 40.8125 C 45.21875 40.8125 48.601562 37.4375 48.601562 33.292969 L 48.601562 22.773438 C 48.601562 21.535156 48.292969 20.308594 47.710938 19.230469 C 47.480469 18.792969 47.640625 18.25 48.082031 18.019531 C 48.519531 17.78125 49.0625 17.949219 49.296875 18.382812 C 50.015625 19.722656 50.398438 21.242188 50.398438 22.773438 " fill-opacity="1" fill-rule="nonzero"/></g></svg>