<svg xmlns="http://www.w3.org/2000/svg" xmlns:xlink="http://www.w3.org/1999/xlink" width="180" zoomAndPan="magnify" viewBox="0 0 135 149.249994" height="199" preserveAspectRatio="xMidYMid meet" version="1.0"><defs><clipPath id="cd28b72cf0"><path d="M 0.714844 0.347656 L 134.273438 0.347656 L 134.273438 148.09375 L 0.714844 148.09375 Z M 0.714844 0.347656 " clip-rule="nonzero"/></clipPath></defs><g clip-path="url(#cd28b72cf0)"><path fill="#000000" d="M 102.976562 90.976562 L 103.78125 90.289062 C 103.792969 90.28125 103.800781 90.269531 103.8125 90.257812 C 104.226562 90.246094 104.636719 90.234375 105.039062 90.222656 C 104.363281 90.464844 103.675781 90.71875 102.976562 90.976562 Z M 94.835938 107.023438 L 68.636719 113.871094 C 68.625 113.875 68.617188 113.878906 68.609375 113.878906 C 68.570312 113.890625 68.535156 113.902344 68.496094 113.914062 C 68.46875 113.925781 68.441406 113.933594 68.414062 113.945312 C 68.382812 113.957031 68.355469 113.96875 68.324219 113.984375 C 68.292969 114 68.257812 114.015625 68.226562 114.03125 C 68.214844 114.035156 68.207031 114.039062 68.199219 114.042969 L 46.394531 125.792969 C 45.914062 126.054688 45.558594 126.503906 45.421875 127.035156 L 44.527344 130.496094 L 20.339844 126.714844 L 23.84375 117.035156 L 29.230469 108.222656 C 29.304688 108.101562 29.367188 107.972656 29.410156 107.839844 C 29.949219 106.28125 34.566406 92.421875 31.347656 85.183594 C 29.492188 81.007812 28.109375 78.253906 27.304688 76.726562 C 27.910156 76.332031 28.730469 75.949219 29.609375 75.953125 C 30.625 75.957031 31.59375 76.488281 32.574219 77.574219 C 35.269531 80.5625 38.734375 87.929688 39.375 89.316406 C 39.535156 90.261719 40.117188 93.703125 40.636719 97.070312 C 41.445312 102.300781 46.203125 105.988281 51.46875 105.464844 C 61.335938 104.488281 79.910156 102.316406 93.445312 98.789062 C 93.488281 98.777344 93.527344 98.761719 93.570312 98.75 C 93.589844 98.742188 93.613281 98.738281 93.636719 98.726562 C 93.644531 98.726562 93.652344 98.722656 93.660156 98.71875 C 103.449219 94.929688 114.492188 90.921875 116.21875 90.703125 C 117.6875 90.796875 118.734375 91.160156 119.175781 91.734375 C 119.300781 91.898438 119.371094 92.078125 119.410156 92.246094 Z M 17.339844 135.003906 L 18.972656 130.492188 L 43.535156 134.332031 L 42.25 139.300781 Z M 4.753906 76.101562 C 7.269531 45.921875 31.621094 21.46875 61.71875 18.722656 C 61.722656 18.726562 61.726562 18.734375 61.730469 18.738281 C 61.761719 18.78125 61.792969 18.816406 61.820312 18.855469 C 61.90625 18.96875 61.996094 19.082031 62.082031 19.1875 C 62.125 19.238281 62.167969 19.289062 62.210938 19.335938 C 62.285156 19.425781 62.359375 19.511719 62.4375 19.59375 C 62.484375 19.644531 62.53125 19.691406 62.578125 19.742188 C 62.648438 19.816406 62.722656 19.890625 62.796875 19.960938 C 62.84375 20.007812 62.890625 20.050781 62.9375 20.09375 C 63.011719 20.164062 63.085938 20.226562 63.15625 20.289062 C 63.203125 20.328125 63.25 20.371094 63.296875 20.40625 C 63.375 20.46875 63.449219 20.527344 63.527344 20.585938 C 63.570312 20.617188 63.613281 20.652344 63.65625 20.683594 C 63.742188 20.746094 63.828125 20.800781 63.914062 20.859375 C 63.945312 20.878906 63.976562 20.902344 64.007812 20.921875 C 64.125 20.996094 64.242188 21.066406 64.359375 21.128906 C 64.378906 21.140625 64.398438 21.148438 64.414062 21.160156 C 64.511719 21.210938 64.609375 21.261719 64.707031 21.308594 C 64.746094 21.324219 64.785156 21.34375 64.824219 21.359375 C 64.898438 21.394531 64.972656 21.425781 65.046875 21.457031 C 65.09375 21.472656 65.132812 21.488281 65.175781 21.507812 C 65.246094 21.53125 65.316406 21.558594 65.382812 21.582031 C 65.425781 21.597656 65.46875 21.609375 65.515625 21.625 C 65.578125 21.644531 65.644531 21.664062 65.710938 21.679688 C 65.753906 21.691406 65.796875 21.703125 65.835938 21.714844 C 65.902344 21.730469 65.964844 21.746094 66.03125 21.761719 C 66.070312 21.769531 66.109375 21.777344 66.148438 21.785156 C 66.214844 21.796875 66.28125 21.808594 66.351562 21.820312 C 66.382812 21.824219 66.414062 21.832031 66.445312 21.835938 C 66.542969 21.851562 66.636719 21.863281 66.726562 21.871094 C 66.789062 21.875 66.851562 21.878906 66.914062 21.878906 L 68.078125 21.878906 C 68.140625 21.878906 68.199219 21.875 68.261719 21.871094 C 68.355469 21.863281 68.449219 21.851562 68.546875 21.835938 C 68.578125 21.832031 68.609375 21.824219 68.640625 21.820312 C 68.707031 21.808594 68.773438 21.796875 68.84375 21.785156 C 68.882812 21.777344 68.921875 21.769531 68.960938 21.761719 C 69.023438 21.746094 69.089844 21.730469 69.152344 21.714844 C 69.195312 21.703125 69.238281 21.691406 69.28125 21.679688 C 69.347656 21.664062 69.410156 21.644531 69.476562 21.625 C 69.519531 21.609375 69.5625 21.597656 69.609375 21.582031 C 69.675781 21.558594 69.742188 21.53125 69.8125 21.507812 C 69.855469 21.492188 69.898438 21.472656 69.941406 21.457031 C 70.015625 21.425781 70.089844 21.394531 70.164062 21.359375 C 70.203125 21.34375 70.242188 21.328125 70.285156 21.308594 C 70.378906 21.261719 70.472656 21.214844 70.570312 21.164062 C 70.589844 21.152344 70.609375 21.140625 70.632812 21.128906 C 70.746094 21.066406 70.863281 20.996094 70.980469 20.921875 C 71.015625 20.902344 71.046875 20.878906 71.082031 20.855469 C 71.167969 20.800781 71.25 20.742188 71.335938 20.683594 C 71.378906 20.652344 71.425781 20.617188 71.46875 20.582031 C 71.542969 20.527344 71.617188 20.46875 71.691406 20.410156 C 71.738281 20.371094 71.789062 20.328125 71.835938 20.285156 C 71.90625 20.226562 71.980469 20.164062 72.050781 20.097656 C 72.097656 20.050781 72.148438 20.003906 72.199219 19.957031 C 72.269531 19.890625 72.339844 19.816406 72.410156 19.746094 C 72.460938 19.695312 72.507812 19.644531 72.554688 19.59375 C 72.628906 19.511719 72.703125 19.425781 72.777344 19.34375 C 72.820312 19.289062 72.867188 19.242188 72.910156 19.1875 C 72.996094 19.082031 73.082031 18.972656 73.164062 18.859375 C 73.195312 18.820312 73.230469 18.78125 73.257812 18.738281 C 73.265625 18.734375 73.269531 18.726562 73.273438 18.722656 C 103.371094 21.46875 127.722656 45.925781 130.238281 76.125 C 122.835938 77.941406 78.597656 79.003906 40.191406 78.195312 C 39.46875 78.175781 38.832031 78.550781 38.476562 79.125 C 37.503906 77.519531 36.476562 76.011719 35.5 74.933594 C 33.75 72.992188 31.761719 72.007812 29.589844 72.007812 C 26.078125 72.007812 23.609375 74.632812 23.335938 74.933594 C 22.761719 75.566406 22.664062 76.503906 23.097656 77.246094 C 23.101562 77.25 23.183594 77.394531 23.335938 77.675781 C 10.878906 77.132812 6.363281 76.46875 4.753906 76.101562 Z M 64.496094 4.703125 C 65.449219 4.144531 69.539062 4.144531 70.488281 4.699219 C 72.902344 6.160156 73.011719 7.570312 72.835938 8.636719 C 72.625 9.953125 71.972656 13.265625 70.566406 15.664062 C 70.464844 15.835938 70.363281 16 70.257812 16.152344 C 69.535156 17.230469 68.765625 17.828125 67.96875 17.933594 L 67.023438 17.933594 C 66.585938 17.875 66.160156 17.667969 65.742188 17.316406 C 65.722656 17.300781 65.703125 17.289062 65.6875 17.273438 C 65.65625 17.25 65.628906 17.21875 65.601562 17.191406 C 65.414062 17.015625 65.226562 16.820312 65.042969 16.585938 C 65.023438 16.558594 65.003906 16.527344 64.984375 16.503906 C 64.898438 16.390625 64.816406 16.277344 64.730469 16.152344 C 64.628906 16 64.527344 15.835938 64.425781 15.664062 C 64.421875 15.664062 64.421875 15.664062 64.421875 15.664062 C 63.015625 13.269531 62.367188 9.953125 62.152344 8.636719 C 61.976562 7.566406 62.085938 6.15625 64.496094 4.703125 Z M 67.515625 90.757812 C 67.746094 90.757812 67.972656 90.757812 68.203125 90.757812 C 65.890625 92.828125 64 94.640625 63.878906 94.757812 C 63.089844 95.515625 63.066406 96.761719 63.824219 97.546875 C 64.210938 97.949219 64.726562 98.152344 65.246094 98.152344 C 65.738281 98.152344 66.230469 97.96875 66.609375 97.601562 C 66.65625 97.5625 70.796875 93.585938 74.261719 90.742188 C 77.601562 90.726562 80.90625 90.699219 84.152344 90.660156 C 82.953125 91.710938 82.0625 92.519531 81.988281 92.585938 C 81.183594 93.316406 81.121094 94.5625 81.851562 95.367188 C 82.242188 95.796875 82.777344 96.015625 83.3125 96.015625 C 83.785156 96.015625 84.261719 95.847656 84.636719 95.507812 C 84.671875 95.476562 87.886719 92.566406 90.355469 90.574219 C 92.800781 90.53125 95.191406 90.484375 97.515625 90.429688 L 92.019531 95.082031 C 78.78125 98.476562 60.726562 100.585938 51.078125 101.542969 C 47.898438 101.855469 45.023438 99.628906 44.535156 96.46875 C 44.171875 94.105469 43.777344 91.710938 43.515625 90.148438 C 43.84375 90.40625 44.253906 90.566406 44.703125 90.574219 C 52.078125 90.699219 59.816406 90.757812 67.515625 90.757812 Z M 133.195312 83.914062 C 132.421875 83.519531 131.511719 83.6875 130.921875 84.261719 C 126.425781 86.121094 84.183594 87.292969 44.769531 86.632812 C 44.757812 86.632812 44.75 86.632812 44.734375 86.632812 C 43.96875 86.632812 43.308594 87.074219 42.980469 87.71875 C 42.664062 87.027344 41.589844 84.71875 40.199219 82.140625 C 48.75 82.320312 58.105469 82.410156 67.449219 82.410156 C 78.789062 82.410156 90.109375 82.277344 99.941406 82.019531 C 132.5625 81.167969 133.359375 79.597656 134.0625 78.214844 C 134.21875 77.902344 134.292969 77.554688 134.273438 77.207031 C 134.246094 76.808594 134.222656 76.410156 134.1875 76.027344 C 132.925781 60.15625 125.988281 45.214844 114.652344 33.953125 C 103.988281 23.359375 90.082031 16.679688 75.242188 14.960938 C 76.066406 12.789062 76.511719 10.609375 76.730469 9.273438 C 77.097656 7.027344 76.667969 3.828125 72.527344 1.324219 C 70.363281 0.0195312 64.628906 0.0195312 62.460938 1.324219 C 58.320312 3.820312 57.890625 7.023438 58.261719 9.269531 C 58.476562 10.605469 58.925781 12.789062 59.75 14.960938 C 44.910156 16.679688 31.007812 23.359375 20.339844 33.953125 C 9.003906 45.214844 2.066406 60.15625 0.804688 76.03125 C 0.773438 76.421875 0.742188 76.8125 0.71875 77.207031 C 0.699219 77.554688 0.773438 77.902344 0.929688 78.214844 C 1.535156 79.402344 2.808594 80.042969 8.773438 80.667969 C 12.445312 81.050781 17.609375 81.386719 24.128906 81.65625 C 24.53125 81.671875 24.90625 81.566406 25.230469 81.371094 C 25.917969 82.789062 26.761719 84.585938 27.742188 86.785156 C 27.761719 86.828125 27.773438 86.871094 27.792969 86.914062 C 27.449219 86.464844 26.914062 86.167969 26.304688 86.144531 C 8.59375 85.46875 4.824219 84.542969 4.0625 84.253906 C 3.476562 83.683594 2.566406 83.519531 1.792969 83.914062 C 0.824219 84.40625 0.4375 85.59375 0.929688 86.5625 C 1.550781 87.785156 2.921875 88.441406 9.398438 89.078125 C 13.417969 89.476562 19.054688 89.816406 26.15625 90.085938 C 26.179688 90.085938 26.207031 90.085938 26.230469 90.085938 C 27.28125 90.085938 28.152344 89.261719 28.199219 88.203125 C 29.414062 93.480469 26.976562 102.710938 25.75 106.351562 L 20.371094 115.152344 C 20.304688 115.261719 20.246094 115.382812 20.199219 115.507812 L 15.824219 127.601562 C 15.824219 127.605469 15.824219 127.605469 15.824219 127.605469 L 11.714844 138.964844 C 11.34375 139.988281 11.875 141.117188 12.898438 141.488281 C 13.117188 141.570312 13.34375 141.605469 13.566406 141.605469 C 14.375 141.605469 15.132812 141.109375 15.421875 140.304688 L 15.976562 138.769531 L 41.261719 143.132812 L 40.613281 145.628906 C 40.34375 146.683594 40.976562 147.757812 42.03125 148.03125 C 42.195312 148.074219 42.363281 148.09375 42.527344 148.09375 C 43.402344 148.09375 44.203125 147.503906 44.433594 146.617188 L 49.027344 128.855469 L 69.863281 117.628906 L 96.109375 110.765625 C 96.292969 110.71875 96.464844 110.644531 96.628906 110.550781 L 122.359375 95.074219 C 122.800781 94.808594 123.121094 94.382812 123.253906 93.882812 C 123.316406 93.636719 123.835938 91.429688 122.378906 89.433594 C 122.363281 89.410156 122.34375 89.390625 122.324219 89.371094 C 133.054688 88.535156 133.582031 87.507812 134.0625 86.5625 C 134.554688 85.59375 134.167969 84.40625 133.195312 83.914062 " fill-opacity="1" fill-rule="nonzero"/></g><path fill="#000000" d="M 96.6875 34.425781 C 110.054688 42.6875 119.199219 56.269531 121.773438 71.6875 C 121.933594 72.652344 122.769531 73.335938 123.714844 73.335938 C 123.824219 73.335938 123.933594 73.324219 124.042969 73.308594 C 125.117188 73.128906 125.84375 72.113281 125.664062 71.039062 C 122.902344 54.496094 113.097656 39.929688 98.761719 31.070312 C 97.835938 30.496094 96.617188 30.785156 96.046875 31.710938 C 95.472656 32.636719 95.757812 33.851562 96.6875 34.425781 " fill-opacity="1" fill-rule="nonzero"/><path fill="#000000" d="M 76.707031 27.007812 C 80.117188 27.546875 83.492188 28.417969 86.734375 29.597656 C 86.957031 29.679688 87.183594 29.71875 87.40625 29.71875 C 88.214844 29.71875 88.96875 29.222656 89.261719 28.421875 C 89.632812 27.398438 89.105469 26.265625 88.082031 25.894531 C 84.605469 24.628906 80.984375 23.691406 77.324219 23.113281 C 76.246094 22.941406 75.238281 23.675781 75.066406 24.75 C 74.894531 25.828125 75.628906 26.835938 76.707031 27.007812 " fill-opacity="1" fill-rule="nonzero"/></svg>